<svg xmlns="http://www.w3.org/2000/svg" viewBox="0 0 300 300"><defs><style>.a{fill-rule:evenodd;}</style></defs><title>FontTristan-01</title><path class="a" d="M212.33367,142.27973a45.75032,45.75032,0,0,0,2.83373,33.96714,45.0802,45.0802,0,0,0,25.47137,23.15821q-8.23566,17.50148-13.895,25.21373-19.04713,30.374-36.53787,30.88119-6.17459,0-16.21346-4.63164a48.11026,48.11026,0,0,0-20.32445-4.63164,56.91718,56.91718,0,0,0-19.81463,4.88925q-10.0388,4.3794-16.21343,4.374-17.50148,0-36.5379-28.8203-18.01672-27.78985-21.10269-58.41343-3.08329-30.60749,8.75343-47.59916Q86.7614,93.90771,113.5235,93.90243q8.75074,0,21.36029,4.63156,12.60687,4.63706,18.78418,4.63168,6.17463,0,18.01134-4.63168a60.94676,60.94676,0,0,1,22.12779-4.63156q23.668,0,40.65426,21.61784-16.97822,9.26595-22.12769,26.75946M146.97544,95.44806q-3.09134-17.48545,10.809-33.45194Q171.156,46.04836,189.69071,44.5q2.568,17.50145-10.29381,34.4824-12.87255,16.471-32.42147,16.46566"/></svg>