<svg id="Layer_1" data-name="Layer 1" xmlns="http://www.w3.org/2000/svg" viewBox="0 0 300 300"><title>briefcase</title><path d="M46.3,111.1V227.7a13.38,13.38,0,0,0,13,13h13V98.1h-13A13.38,13.38,0,0,0,46.3,111.1Z"/><path d="M240.7,98.2h-13V240.8h13a13.38,13.38,0,0,0,13-13V111.2A13.38,13.38,0,0,0,240.7,98.2Z"/><path d="M201.8,85.2a30.76,30.76,0,0,0-25.9-25.9H124.1A30.55,30.55,0,0,0,98.2,85.2v13h-13V240.7H214.7V98.2H201.8Zm-77.7-13c0,2.5,3.3,0,10.4,0h31.1c7.1,0,10.4,2.5,10.4,0l-.1,13H124.1Z"/></svg>