<svg xmlns="http://www.w3.org/2000/svg" viewBox="0 0 300 300"><defs><style>.a{fill-rule:evenodd;}</style></defs><title>burger</title><path class="a" d="M40,223.33333A18.26864,18.26864,0,0,1,58.37868,205H241.62132a18.33339,18.33339,0,1,1,0,36.66667H58.37868A18.311,18.311,0,0,1,40,223.33333ZM40,150a18.26864,18.26864,0,0,1,18.37868-18.33333H241.62132a18.33339,18.33339,0,1,1,0,36.66667H58.37868A18.311,18.311,0,0,1,40,150Zm0-73.33333A18.26862,18.26862,0,0,1,58.37868,58.33333H241.62132a18.33339,18.33339,0,1,1,0,36.66667H58.37868A18.311,18.311,0,0,1,40,76.66667Z"/></svg>