<svg id="Layer_1" data-name="Layer 1" xmlns="http://www.w3.org/2000/svg" viewBox="0 0 300 300"><defs><style>.cls-1{fill-rule:evenodd;}</style></defs><title>FontTristan</title><path class="cls-1" d="M204.09,56.26h-22V45.2583a11,11,0,0,0-22,0V56.26h-22V45.2583a11,11,0,0,0-22,0V56.26h-22V45.2583a11,11,0,0,0-22,0V56.26h-0.054A32.9693,32.9693,0,0,0,39.09,89.2616V232.2592A32.9774,32.9774,0,0,0,72.0358,265.26h154.108a32.9693,32.9693,0,0,0,32.946-33.0012V89.2616A32.9774,32.9774,0,0,0,226.1438,56.26H226.09V45.2583a11,11,0,0,0-22,0V56.26Zm33,77v98.9988a10.9694,10.9694,0,0,1-10.946,11.0012H72.0358A10.9775,10.9775,0,0,1,61.09,232.2592V133.26h176Zm0-22V89.2616A10.9775,10.9775,0,0,0,226.1438,78.26H226.09a11,11,0,0,1-22,.0021l-22-.0021a11,11,0,0,1-22,.0021l-22-.0021a11,11,0,0,1-22,.0021l-22-.0021a11,11,0,0,1-22,.0021l-0.054-.0021A10.9694,10.9694,0,0,0,61.09,89.2616V111.26h176Z"/></svg>