<svg id="Layer_1" data-name="Layer 1" xmlns="http://www.w3.org/2000/svg" viewBox="0 0 300 300"><defs><style>.cls-1{fill-rule:evenodd;}</style></defs><title>FontTristan</title><path class="cls-1" d="M98.8636,159.9877A51.1364,51.1364,0,1,1,150,211.124,51.1363,51.1363,0,0,1,98.8636,159.9877Zm-40.9-56.25L57.9545,226.4432c0,0.0244,184.0817.0218,184.0817,0.0218l0.0092-122.7055c0-.0244-37.36-0.0218-37.36-0.0218a8.1463,8.1463,0,0,1-7.0255-4.7267l-10.4374-25.955-74.5095-.0022-10.3559,25.89a8.1787,8.1787,0,0,1-7.0413,4.7944H57.9638ZM86.5909,83.2831L95.0643,62.1c2.0983-5.2459,8.3925-9.4985,13.98-9.4985h81.9123c5.6224,0,11.889,4.2719,13.98,9.4985l8.4734,21.1833h28.6271A20.4578,20.4578,0,0,1,262.5,103.7594V226.4432a20.4747,20.4747,0,0,1-20.4638,20.4763H57.9638A20.4578,20.4578,0,0,1,37.5,226.4432V103.7594A20.4747,20.4747,0,0,1,57.9638,83.2831H86.5909Zm92.739,67.67a30.6493,30.6493,0,1,1-20.295-20.295A15.3434,15.3434,0,1,0,179.33,150.9528Z"/></svg>