<svg xmlns="http://www.w3.org/2000/svg" viewBox="0 0 300 300"><defs><style>.a{fill-rule:evenodd;}</style></defs><title>camera-solid</title><path class="a" d="M231.4,83.40013H205.5l-5.897-15.72509c-2.89058-7.63128-11.90933-13.875-20.00307-13.875H120.4c-8.09375,0-17.1125,6.24368-20.00313,13.875L94.5,83.40013H68.6a29.65719,29.65719,0,0,0-29.6,29.6V216.60011a29.657,29.657,0,0,0,29.6,29.59981H231.4A29.657,29.657,0,0,0,261,216.60011V113.00018A29.65723,29.65723,0,0,0,231.4,83.40013Zm-81.4,133.2A51.8,51.8,0,1,1,201.8,164.8,51.86284,51.86284,0,0,1,150,216.60011Z"/><circle cx="149.99998" cy="164.80002" r="33.30004"/></svg>