<svg id="Layer_1" data-name="Layer 1" xmlns="http://www.w3.org/2000/svg" xmlns:xlink="http://www.w3.org/1999/xlink" viewBox="0 0 300 300"><defs><style>.cls-1{clip-rule:evenodd;}.cls-2{fill-rule:evenodd;}.cls-3{clip-path:url(#clip-path);}.cls-4{clip-path:url(#clip-path-2);}.cls-5{clip-path:url(#clip-path-3);}.cls-6{clip-path:url(#clip-path-4);}.cls-7{clip-path:url(#clip-path-5);}</style><clipPath id="clip-path"><path class="cls-1" d="M-683.91,264.78A21.92,21.92,0,0,0-662,242.86a21.92,21.92,0,0,0-21.92-21.92,21.92,21.92,0,0,0-21.92,21.92A21.92,21.92,0,0,0-683.91,264.78Zm98.64,0a21.92,21.92,0,0,0,21.92-21.92,21.92,21.92,0,0,0-21.92-21.92,21.92,21.92,0,0,0-21.92,21.92A21.92,21.92,0,0,0-585.27,264.78Zm-108.45-109.6h128.61l10.38-55.56-154-9.42Zm-20.15-87.26,174.32,10.69A9.38,9.38,0,0,1-530.64,90l-14.27,76.37a13.69,13.69,0,0,1-13,10.75h-130.8l2.53,11h122.78a11,11,0,0,1,11,11,11,11,0,0,1-11,11H-694.87a11,11,0,0,1-10.68-8.5l-31.7-137.37-17.14-8.61a11,11,0,0,1-4.92-14.7,11,11,0,0,1,14.7-4.92l21.75,10.85a11,11,0,0,1,5.79,7.34Z"/></clipPath><clipPath id="clip-path-2"><path class="cls-1" d="M-191.91,56.26h-22v-11a11,11,0,0,0-11-11,11,11,0,0,0-11,11v11h-22v-11a11,11,0,0,0-11-11,11,11,0,0,0-11,11v11h-22v-11a11,11,0,0,0-11-11,11,11,0,0,0-11,11v11H-324a33,33,0,0,0-32.95,33v143a33,33,0,0,0,32.95,33h154.11a33,33,0,0,0,32.95-33v-143a33,33,0,0,0-32.95-33h-0.05v-11a11,11,0,0,0-11-11,11,11,0,0,0-11,11v11Zm33,77v99a11,11,0,0,1-10.95,11H-324a11,11,0,0,1-10.95-11v-99h176Zm0-22v-22a11,11,0,0,0-10.95-11h-0.05a11,11,0,0,1-11,11,11,11,0,0,1-11-11h-22a11,11,0,0,1-11,11,11,11,0,0,1-11-11h-22a11,11,0,0,1-11,11,11,11,0,0,1-11-11h-22a11,11,0,0,1-11,11,11,11,0,0,1-11-11H-324a11,11,0,0,0-10.95,11v22h176Z"/></clipPath><clipPath id="clip-path-3"><path class="cls-1" d="M98.86,160A51.14,51.14,0,1,1,150,211.12,51.14,51.14,0,0,1,98.86,160ZM58,103.74V226.44s184.08,0,184.08,0V103.76s-37.36,0-37.36,0a8.15,8.15,0,0,1-7-4.73l-10.44-26H112.71L102.36,98.94a8.18,8.18,0,0,1-7,4.79H58ZM86.59,83.28L95.06,62.1c2.1-5.25,8.39-9.5,14-9.5H191c5.62,0,11.89,4.27,14,9.5l8.47,21.18H242a20.46,20.46,0,0,1,20.46,20.48V226.44A20.47,20.47,0,0,1,242,246.92H58A20.46,20.46,0,0,1,37.5,226.44V103.76A20.47,20.47,0,0,1,58,83.28H86.59ZM179.33,151a30.65,30.65,0,1,1-20.3-20.3A15.34,15.34,0,1,0,179.33,151Z"/></clipPath><clipPath id="clip-path-4"><rect x="-463.64" y="-14695.13" width="9081.82" height="18409.09"/></clipPath><clipPath id="clip-path-5"><path class="cls-1" d="M423.09,86.69a21,21,0,0,1,21-20.95h57.77a14.69,14.69,0,0,1,9,3.73L545.36,104a14.48,14.48,0,0,1,3.73,9V233.76a21,21,0,0,1-20.95,21H444a20.94,20.94,0,0,1-20.95-20.95V86.69Zm168-41.95h21a21,21,0,0,1,21,21v147l-20.7,34.57c-6,10-15.65,9.93-21.59,0l-20.7-34.57v-147A21,21,0,0,1,591.07,44.75Zm21,131.25V97.27s-21,0-21,0,0,46.31,0,78.75h21Zm0,21v10.07l-10.5,17.33L591.1,206.93s0-3.78,0-9.94h21Zm-83.93-57.75c0,34.09,0,94.5,0,94.5s-84.05,0-84.05.05l0-147.05h31.52v42a10.49,10.49,0,0,0,10.53,10.5h42Zm0-21c0-1.12,0-1.72,0-1.72L498.3,86.75h-1.71v31.5h31.58Z"/></clipPath></defs><title>FontTristan</title><path class="cls-2" d="M-683.91,264.78A21.92,21.92,0,0,0-662,242.86a21.92,21.92,0,0,0-21.92-21.92,21.92,21.92,0,0,0-21.92,21.92A21.92,21.92,0,0,0-683.91,264.78Zm98.64,0a21.92,21.92,0,0,0,21.92-21.92,21.92,21.92,0,0,0-21.92-21.92,21.92,21.92,0,0,0-21.92,21.92A21.92,21.92,0,0,0-585.27,264.78Zm-108.45-109.6h128.61l10.38-55.56-154-9.42Zm-20.15-87.26,174.32,10.69A9.38,9.38,0,0,1-530.64,90l-14.27,76.37a13.69,13.69,0,0,1-13,10.75h-130.8l2.53,11h122.78a11,11,0,0,1,11,11,11,11,0,0,1-11,11H-694.87a11,11,0,0,1-10.68-8.5l-31.7-137.37-17.14-8.61a11,11,0,0,1-4.92-14.7,11,11,0,0,1,14.7-4.92l21.75,10.85a11,11,0,0,1,5.79,7.34Z"/><g class="cls-3"><rect x="-6037.68" y="-10503.03" width="9732.13" height="19727.29"/></g><path class="cls-2" d="M-191.91,56.26h-22v-11a11,11,0,0,0-11-11,11,11,0,0,0-11,11v11h-22v-11a11,11,0,0,0-11-11,11,11,0,0,0-11,11v11h-22v-11a11,11,0,0,0-11-11,11,11,0,0,0-11,11v11H-324a33,33,0,0,0-32.95,33v143a33,33,0,0,0,32.95,33h154.11a33,33,0,0,0,32.95-33v-143a33,33,0,0,0-32.95-33h-0.05v-11a11,11,0,0,0-11-11,11,11,0,0,0-11,11v11Zm33,77v99a11,11,0,0,1-10.95,11H-324a11,11,0,0,1-10.95-11v-99h176Zm0-22v-22a11,11,0,0,0-10.95-11h-0.05a11,11,0,0,1-11,11,11,11,0,0,1-11-11h-22a11,11,0,0,1-11,11,11,11,0,0,1-11-11h-22a11,11,0,0,1-11,11,11,11,0,0,1-11-11h-22a11,11,0,0,1-11,11,11,11,0,0,1-11-11H-324a11,11,0,0,0-10.95,11v22h176Z"/><g class="cls-4"><rect x="-9354.91" y="-15288.74" width="9768" height="19800"/></g><path class="cls-2" d="M98.86,160A51.14,51.14,0,1,1,150,211.12,51.14,51.14,0,0,1,98.86,160ZM58,103.74V226.44s184.08,0,184.08,0V103.76s-37.36,0-37.36,0a8.15,8.15,0,0,1-7-4.73l-10.44-26H112.71L102.36,98.94a8.18,8.18,0,0,1-7,4.79H58ZM86.59,83.28L95.06,62.1c2.1-5.25,8.39-9.5,14-9.5H191c5.62,0,11.89,4.27,14,9.5l8.47,21.18H242a20.46,20.46,0,0,1,20.46,20.48V226.44A20.47,20.47,0,0,1,242,246.92H58A20.46,20.46,0,0,1,37.5,226.44V103.76A20.47,20.47,0,0,1,58,83.28H86.59ZM179.33,151a30.65,30.65,0,1,1-20.3-20.3A15.34,15.34,0,1,0,179.33,151Z"/><g class="cls-5"><rect x="-463.64" y="-14695.13" width="9081.82" height="18409.09"/><g class="cls-6"><rect x="11.93" y="27.03" width="276.14" height="245.45"/></g></g><path class="cls-2" d="M423.09,86.69a21,21,0,0,1,21-20.95h57.77a14.69,14.69,0,0,1,9,3.73L545.36,104a14.48,14.48,0,0,1,3.73,9V233.76a21,21,0,0,1-20.95,21H444a20.94,20.94,0,0,1-20.95-20.95V86.69Zm168-41.95h21a21,21,0,0,1,21,21v147l-20.7,34.57c-6,10-15.65,9.93-21.59,0l-20.7-34.57v-147A21,21,0,0,1,591.07,44.75Zm21,131.25V97.27s-21,0-21,0,0,46.31,0,78.75h21Zm0,21v10.07l-10.5,17.33L591.1,206.93s0-3.78,0-9.94h21Zm-83.93-57.75c0,34.09,0,94.5,0,94.5s-84.05,0-84.05.05l0-147.05h31.52v42a10.49,10.49,0,0,0,10.53,10.5h42Zm0-21c0-1.12,0-1.72,0-1.72L498.3,86.75h-1.71v31.5h31.58Z"/><g class="cls-7"><rect x="-5645.91" y="-6024.25" width="9324" height="18900"/></g></svg>