<?xml version="1.0" encoding="utf-8"?>
<!-- Generator: Adobe Illustrator 19.2.1, SVG Export Plug-In . SVG Version: 6.00 Build 0)  -->
<svg version="1.1" id="Layer_1" xmlns="http://www.w3.org/2000/svg" xmlns:xlink="http://www.w3.org/1999/xlink" x="0px" y="0px"
	 viewBox="0 0 300 300" style="enable-background:new 0 0 300 300;" xml:space="preserve">
<style type="text/css">
	.st0{fill-rule:evenodd;clip-rule:evenodd;}
</style>
<g>
	<defs>
		<rect id="SVGID_1_" x="-8549.5" y="-3917.1" width="15094.6" height="11550.3"/>
	</defs>
	<clipPath id="SVGID_2_">
		<use xlink:href="#SVGID_1_"  style="overflow:visible;"/>
	</clipPath>
</g>
<g>
	<defs>
		<rect id="SVGID_3_" x="-8549.5" y="-3917.1" width="15094.6" height="11550.3"/>
	</defs>
	<clipPath id="SVGID_4_">
		<use xlink:href="#SVGID_3_"  style="overflow:visible;"/>
	</clipPath>
</g>
<g>
	<path d="M150,43.9c-60.5,0-109.5,49-109.5,109.5s49,109.5,109.5,109.5s109.5-49,109.5-109.5S210.5,43.9,150,43.9z M200.8,138.3
		l-57.4,57.4l-2,2c-3.8,3.8-10,3.9-13.9,0l-33.1-33.1c-3.8-3.8-3.8-10.1,0-13.9l2.7-2.7c3.8-3.8,10-3.9,13.9,0l23.5,23.5l49.8-49.8
		c4.6-4.6,12-4.6,16.6,0C205.4,126.3,205.4,133.7,200.8,138.3z"/>
</g>
</svg>
