<svg id="Layer_1" data-name="Layer 1" xmlns="http://www.w3.org/2000/svg" viewBox="0 0 300 300"><title>FontTristan</title><path d="M258.9531,117.0168L155.4375,220.5324a9.4727,9.4727,0,0,1-12.6953,0L39.2266,117.0168a11.1073,11.1073,0,0,1-2.4414-6.3477,8.5788,8.5788,0,0,1,2.4414-6.3477L62.6641,81.3723a7.3867,7.3867,0,0,1,5.8594-2.93q4.3945,0,6.3477,2.93l74.2188,73.73,74.2188-73.73c1.2969-1.9531,3.418-2.93,6.3477-2.93a7.4088,7.4088,0,0,1,5.8594,2.93l23.4375,22.9492a8.6094,8.6094,0,0,1,2.4414,6.3477A11.1629,11.1629,0,0,1,258.9531,117.0168Z"/></svg>