<?xml version="1.0" encoding="utf-8"?>
<!-- Generator: Adobe Illustrator 19.2.1, SVG Export Plug-In . SVG Version: 6.00 Build 0)  -->
<svg version="1.1" id="Layer_1" xmlns="http://www.w3.org/2000/svg" xmlns:xlink="http://www.w3.org/1999/xlink" x="0px" y="0px"
	 viewBox="0 0 300 300" style="enable-background:new 0 0 300 300;" xml:space="preserve">
<style type="text/css">
	.st0{fill-rule:evenodd;clip-rule:evenodd;}
</style>
<g>
	<path d="M214.3,76.2l-74.2,74.2l74.2,73.7c1.6,2.3,2.4,4.4,2.4,6.3c0,2.6-0.8,4.7-2.4,6.3l-23.4,23.4c-1.6,1.6-3.7,2.4-6.3,2.4
		c-2.3,0-4.2-0.8-5.9-2.4L75.1,156.8c-2-2-2.9-4.1-2.9-6.3c0-2.6,1-4.7,2.9-6.3L178.7,40.6c1.6-2,3.6-2.9,5.9-2.9c2.9,0,5,1,6.3,2.9
		l23.4,22.9c1.6,2.3,2.4,4.4,2.4,6.3S215.9,73.9,214.3,76.2z"/>
</g>
<g>
	<defs>
		<rect id="SVGID_1_" x="-7345.5" y="-3917.1" width="15094.6" height="11550.3"/>
	</defs>
	<clipPath id="SVGID_2_">
		<use xlink:href="#SVGID_1_"  style="overflow:visible;"/>
	</clipPath>
</g>
<g>
	<defs>
		<rect id="SVGID_3_" x="-7345.5" y="-3917.1" width="15094.6" height="11550.3"/>
	</defs>
	<clipPath id="SVGID_4_">
		<use xlink:href="#SVGID_3_"  style="overflow:visible;"/>
	</clipPath>
</g>
</svg>
