<?xml version="1.0" encoding="utf-8"?>
<!-- Generator: Adobe Illustrator 19.2.1, SVG Export Plug-In . SVG Version: 6.00 Build 0)  -->
<svg version="1.1" id="Layer_1" xmlns="http://www.w3.org/2000/svg" xmlns:xlink="http://www.w3.org/1999/xlink" x="0px" y="0px"
	 viewBox="0 0 300 300" style="enable-background:new 0 0 300 300;" xml:space="preserve">
<style type="text/css">
	.st0{fill-rule:evenodd;clip-rule:evenodd;}
</style>
<g>
	<path d="M259,117L155.4,220.5c-2.3,1.6-4.4,2.4-6.3,2.4s-4.1-0.8-6.3-2.4L39.2,117c-1.6-2.3-2.4-4.4-2.4-6.3c0-2.6,0.8-4.7,2.4-6.3
		l23.4-22.9c1.6-2,3.6-2.9,5.9-2.9c2.9,0,5,1,6.3,2.9l74.2,73.7l74.2-73.7c1.3-2,3.4-2.9,6.3-2.9c2.3,0,4.2,1,5.9,2.9l23.4,22.9
		c1.6,1.6,2.4,3.7,2.4,6.3C261.4,112.6,260.6,114.7,259,117z"/>
</g>
<g>
	<defs>
		<rect id="SVGID_1_" x="-6959.5" y="-3917.1" width="15094.6" height="11550.3"/>
	</defs>
	<clipPath id="SVGID_2_">
		<use xlink:href="#SVGID_1_"  style="overflow:visible;"/>
	</clipPath>
</g>
<g>
	<defs>
		<rect id="SVGID_3_" x="-6959.5" y="-3917.1" width="15094.6" height="11550.3"/>
	</defs>
	<clipPath id="SVGID_4_">
		<use xlink:href="#SVGID_3_"  style="overflow:visible;"/>
	</clipPath>
</g>
</svg>
