<svg id="Layer_1" data-name="Layer 1" xmlns="http://www.w3.org/2000/svg" viewBox="0 0 300 300"><title>FontTristan</title><path d="M222.03,156.7824L118.5149,260.2981a7.9877,7.9877,0,0,1-5.8594,2.4414,8.5544,8.5544,0,0,1-6.3477-2.4414L82.87,236.8606a8.5544,8.5544,0,0,1-2.4414-6.3477,11.1267,11.1267,0,0,1,2.4414-6.3477l74.2188-73.73L82.87,76.216a11.1073,11.1073,0,0,1-2.4414-6.3477A11.1267,11.1267,0,0,1,82.87,63.5207l23.4375-22.9492a7.8627,7.8627,0,0,1,6.3477-2.93,7.4088,7.4088,0,0,1,5.8594,2.93L222.03,144.0871a7.884,7.884,0,0,1,2.93,6.3477A8.86,8.86,0,0,1,222.03,156.7824Z"/></svg>