<?xml version="1.0" encoding="utf-8"?>
<!-- Generator: Adobe Illustrator 19.2.1, SVG Export Plug-In . SVG Version: 6.00 Build 0)  -->
<svg version="1.1" id="Layer_1" xmlns="http://www.w3.org/2000/svg" xmlns:xlink="http://www.w3.org/1999/xlink" x="0px" y="0px"
	 viewBox="0 0 300 300" style="enable-background:new 0 0 300 300;" xml:space="preserve">
<style type="text/css">
	.st0{fill-rule:evenodd;clip-rule:evenodd;}
</style>
<g>
	<path d="M222,156.8L118.5,260.3c-1.6,1.6-3.6,2.4-5.9,2.4c-2.6,0-4.7-0.8-6.3-2.4l-23.4-23.4c-1.6-1.6-2.4-3.7-2.4-6.3
		c0-2,0.8-4.1,2.4-6.3l74.2-73.7L82.9,76.2c-1.6-2.3-2.4-4.4-2.4-6.3s0.8-4.1,2.4-6.3l23.4-22.9c1.6-2,3.7-2.9,6.3-2.9
		c2.3,0,4.2,1,5.9,2.9L222,144.1c2,1.6,2.9,3.7,2.9,6.3C225,152.7,224,154.8,222,156.8z"/>
</g>
<g>
	<defs>
		<rect id="SVGID_1_" x="-7739.5" y="-3917.1" width="15094.6" height="11550.3"/>
	</defs>
	<clipPath id="SVGID_2_">
		<use xlink:href="#SVGID_1_"  style="overflow:visible;"/>
	</clipPath>
</g>
<g>
	<defs>
		<rect id="SVGID_3_" x="-7739.5" y="-3917.1" width="15094.6" height="11550.3"/>
	</defs>
	<clipPath id="SVGID_4_">
		<use xlink:href="#SVGID_3_"  style="overflow:visible;"/>
	</clipPath>
</g>
</svg>
