<svg id="Layer_1" data-name="Layer 1" xmlns="http://www.w3.org/2000/svg" viewBox="0 0 300 300"><title>FontTristan</title><path d="M214.3076,76.216l-74.2187,74.2187,74.2188,73.73a11.1826,11.1826,0,0,1,2.4414,6.3477,8.5848,8.5848,0,0,1-2.4414,6.3477L190.87,260.2981a8.5788,8.5788,0,0,1-6.3477,2.4414,7.9627,7.9627,0,0,1-5.8594-2.4414L75.1475,156.7824a8.86,8.86,0,0,1-2.93-6.3477,7.884,7.884,0,0,1,2.93-6.3477L178.6631,40.5715a7.3867,7.3867,0,0,1,5.8594-2.93q4.3945,0,6.3477,2.93l23.4375,22.9492a11.1826,11.1826,0,0,1,2.4414,6.3477A11.1629,11.1629,0,0,1,214.3076,76.216Z"/></svg>