<svg xmlns="http://www.w3.org/2000/svg" viewBox="0 0 300 300"><defs><style>.a{fill-rule:evenodd;}</style></defs><title>FontTristan-01</title><path class="a" d="M265,188.33333a46.01191,46.01191,0,0,1-46,46H88.66666A53.61437,53.61437,0,0,1,65.90625,132.15105c-0.11979-1.79688-.23959-3.474-0.23959-5.15108a61.346,61.346,0,0,1,118.11453-23.23956,30.30934,30.30934,0,0,1,19.88541-7.427A30.72583,30.72583,0,0,1,234.33329,127a30.02006,30.02006,0,0,1-4.91146,16.53128A46.09936,46.09936,0,0,1,265,188.33333ZM188.3333,161.5a3.78429,3.78429,0,0,0-3.8333-3.83333H157.6667V115.5a3.94157,3.94157,0,0,0-3.83341-3.8333h-23A3.94149,3.94149,0,0,0,127,115.5v42.16668H100.16666A3.85988,3.85988,0,0,0,96.33333,161.5a3.99788,3.99788,0,0,0,1.07812,2.75521l42.16665,42.16666A3.79491,3.79491,0,0,0,142.33329,207.5a3.998,3.998,0,0,0,2.75525-1.07812L187.13535,164.375A4.42013,4.42013,0,0,0,188.3333,161.5Z"/></svg>