<?xml version="1.0" encoding="utf-8"?>
<!-- Generator: Adobe Illustrator 19.2.1, SVG Export Plug-In . SVG Version: 6.00 Build 0)  -->
<svg version="1.1" id="Layer_1" xmlns="http://www.w3.org/2000/svg" xmlns:xlink="http://www.w3.org/1999/xlink" x="0px" y="0px"
	 viewBox="0 0 300 300" style="enable-background:new 0 0 300 300;" xml:space="preserve">
<style type="text/css">
	.st0{fill-rule:evenodd;clip-rule:evenodd;}
</style>
<g>
	<path d="M259.4,153.4c0,30.3-10.7,56.1-32,77.4c-21.3,21.3-47.1,32-77.4,32s-56.1-10.7-77.4-32c-21.3-21.3-32-47.1-32-77.4
		s10.7-56.1,32-77.4c21.3-21.3,47.1-32,77.4-32s56.1,10.7,77.4,32C248.7,97.4,259.4,123.2,259.4,153.4z M166.1,153.4l37.1-36.6
		c2-2,2-3.9,0-5.9l-10.7-10.3c-0.3-1-1.3-1.5-2.9-1.5c-1,0-1.8,0.5-2.4,1.5L150,136.8l-37.1-36.1c-0.7-1-1.5-1.5-2.4-1.5
		s-2,0.5-2.9,1.5l-10.3,10.3c-2,2-2,3.9,0,5.9l37.1,36.6l-37.1,37.1c-0.7,0.3-1,1.1-1,2.4c0,1.3,0.3,2.3,1,2.9l10.3,10.7
		c1.3,0.7,2.3,1,2.9,1c0.6,0,1.6-0.3,2.9-1l36.6-37.1l37.1,36.6c0.6,1,1.5,1.5,2.4,1.5s2-0.5,2.9-1.5l10.3-10.3c1-1,1.5-2,1.5-2.9
		c0-1.3-0.5-2.1-1.5-2.4L166.1,153.4z"/>
</g>
<g>
	<defs>
		<rect id="SVGID_1_" x="-8960.5" y="-3917.1" width="15094.6" height="11550.3"/>
	</defs>
	<clipPath id="SVGID_2_">
		<use xlink:href="#SVGID_1_"  style="overflow:visible;"/>
	</clipPath>
</g>
<g>
	<defs>
		<rect id="SVGID_3_" x="-8960.5" y="-3917.1" width="15094.6" height="11550.3"/>
	</defs>
	<clipPath id="SVGID_4_">
		<use xlink:href="#SVGID_3_"  style="overflow:visible;"/>
	</clipPath>
</g>
</svg>
