<svg id="Layer_1" data-name="Layer 1" xmlns="http://www.w3.org/2000/svg" viewBox="0 0 300 300"><title>FontTristan</title><path d="M259.375,153.4245q0,45.41-31.9824,77.3926Q195.4063,262.8034,150,262.8q-45.41,0-77.3926-31.9824Q40.6211,198.8425,40.625,153.4245q0-45.41,31.9824-77.3926Q104.582,44.0573,150,44.05q45.41,0,77.3926,31.9824Q259.3672,108.0183,259.375,153.4245Zm-93.2617,0,37.1094-36.6211q2.93-2.93,0-5.8594L192.48,100.69q-0.4922-1.4648-2.93-1.4648a2.8661,2.8661,0,0,0-2.4414,1.4648L150,136.823,112.8906,100.69a2.8756,2.8756,0,0,0-2.4414-1.4648,4.22,4.22,0,0,0-2.93,1.4648L97.2656,110.9441q-2.93,2.93,0,5.8594l37.1094,36.6211L97.2656,190.5339c-0.6562.3281-.9766,1.1445-0.9766,2.4414a3.9494,3.9494,0,0,0,.9766,2.93L107.52,206.6472a7.3574,7.3574,0,0,0,2.93.9766,7.4322,7.4322,0,0,0,2.93-.9766L150,169.5378l37.1094,36.6211a2.8661,2.8661,0,0,0,2.4414,1.4648,4.22,4.22,0,0,0,2.93-1.4648l10.2539-10.2539a4.22,4.22,0,0,0,1.4648-2.93,2.2615,2.2615,0,0,0-1.4648-2.4414Z"/></svg>