<svg id="Layer_1" data-name="Layer 1" xmlns="http://www.w3.org/2000/svg" xmlns:xlink="http://www.w3.org/1999/xlink" viewBox="0 0 300 300"><defs><style>.cls-1{clip-rule:evenodd;}.cls-2{fill-rule:evenodd;}.cls-3{clip-path:url(#clip-path);}.cls-4{clip-path:url(#clip-path-2);}.cls-5{clip-path:url(#clip-path-3);}</style><clipPath id="clip-path"><path class="cls-1" d="M-1842.9,264.78A21.92,21.92,0,0,0-1821,242.86a21.92,21.92,0,0,0-21.92-21.92,21.92,21.92,0,0,0-21.92,21.92A21.92,21.92,0,0,0-1842.9,264.78Zm98.64,0a21.92,21.92,0,0,0,21.92-21.92,21.92,21.92,0,0,0-21.92-21.92,21.92,21.92,0,0,0-21.92,21.92A21.92,21.92,0,0,0-1744.26,264.78Zm-108.45-109.6h128.61l10.38-55.56-154-9.42Zm-20.15-87.26,174.32,10.69A9.38,9.38,0,0,1-1689.63,90l-14.27,76.37a13.69,13.69,0,0,1-13,10.75h-130.8l2.53,11h122.78a11,11,0,0,1,11,11,11,11,0,0,1-11,11h-131.52a11,11,0,0,1-10.68-8.5l-31.7-137.37-17.14-8.61a11,11,0,0,1-4.92-14.7,11,11,0,0,1,14.7-4.92l21.75,10.85a11,11,0,0,1,5.79,7.34Z"/></clipPath><clipPath id="clip-path-2"><path class="cls-1" d="M-1060.13,160A51.14,51.14,0,0,1-1009,108.85,51.14,51.14,0,0,1-957.86,160,51.14,51.14,0,0,1-1009,211.12,51.14,51.14,0,0,1-1060.13,160Zm-40.9-56.25V226.44s184.08,0,184.08,0V103.76s-37.36,0-37.36,0a8.15,8.15,0,0,1-7-4.73l-10.44-26h-74.51l-10.36,25.89a8.18,8.18,0,0,1-7,4.79H-1101Zm28.63-20.45,8.47-21.18c2.1-5.25,8.39-9.5,14-9.5H-968c5.62,0,11.89,4.27,14,9.5l8.47,21.18H-917a20.46,20.46,0,0,1,20.46,20.48V226.44A20.47,20.47,0,0,1-917,246.92H-1101a20.46,20.46,0,0,1-20.46-20.48V103.76A20.47,20.47,0,0,1-1101,83.28h28.63ZM-979.66,151a30.68,30.68,0,0,1,1.35,9A30.68,30.68,0,0,1-1009,190.67,30.68,30.68,0,0,1-1039.67,160,30.68,30.68,0,0,1-1009,129.31a30.68,30.68,0,0,1,9,1.35,15.34,15.34,0,0,0-9,14A15.34,15.34,0,0,0-993.65,160,15.34,15.34,0,0,0-979.66,151Z"/></clipPath><clipPath id="clip-path-3"><path class="cls-1" d="M-735.9,86.69a21,21,0,0,1,21-20.95h57.77a14.69,14.69,0,0,1,9,3.73L-613.63,104a14.48,14.48,0,0,1,3.73,9V233.76a21,21,0,0,1-20.95,21H-715A20.94,20.94,0,0,1-735.9,233.8V86.69Zm168-41.95h21a21,21,0,0,1,21,21v147l-20.7,34.57c-6,10-15.65,9.93-21.59,0l-20.7-34.57v-147A21,21,0,0,1-567.92,44.75Zm21,131.25V97.27s-21,0-21,0,0,46.31,0,78.75h21Zm0,21v10.07l-10.5,17.33-10.49-17.46s0-3.78,0-9.94h21Zm-83.93-57.75c0,34.09,0,94.5,0,94.5s-84.05,0-84.05.05l0-147.05h31.52v42a10.49,10.49,0,0,0,10.53,10.5h42Zm0-21c0-1.12,0-1.72,0-1.72l-29.87-29.78h-1.71v31.5h31.58Z"/></clipPath></defs><title>FontTristan</title><path class="cls-2" d="M-1842.9,264.78A21.92,21.92,0,0,0-1821,242.86a21.92,21.92,0,0,0-21.92-21.92,21.92,21.92,0,0,0-21.92,21.92A21.92,21.92,0,0,0-1842.9,264.78Zm98.64,0a21.92,21.92,0,0,0,21.92-21.92,21.92,21.92,0,0,0-21.92-21.92,21.92,21.92,0,0,0-21.92,21.92A21.92,21.92,0,0,0-1744.26,264.78Zm-108.45-109.6h128.61l10.38-55.56-154-9.42Zm-20.15-87.26,174.32,10.69A9.38,9.38,0,0,1-1689.63,90l-14.27,76.37a13.69,13.69,0,0,1-13,10.75h-130.8l2.53,11h122.78a11,11,0,0,1,11,11,11,11,0,0,1-11,11h-131.52a11,11,0,0,1-10.68-8.5l-31.7-137.37-17.14-8.61a11,11,0,0,1-4.92-14.7,11,11,0,0,1,14.7-4.92l21.75,10.85a11,11,0,0,1,5.79,7.34Z"/><g class="cls-3"><rect x="-7196.67" y="-10503.03" width="9732.13" height="19727.29"/></g><path class="cls-2" d="M-1060.13,160A51.14,51.14,0,0,1-1009,108.85,51.14,51.14,0,0,1-957.86,160,51.14,51.14,0,0,1-1009,211.12,51.14,51.14,0,0,1-1060.13,160Zm-40.9-56.25V226.44s184.08,0,184.08,0V103.76s-37.36,0-37.36,0a8.15,8.15,0,0,1-7-4.73l-10.44-26h-74.51l-10.36,25.89a8.18,8.18,0,0,1-7,4.79H-1101Zm28.63-20.45,8.47-21.18c2.1-5.25,8.39-9.5,14-9.5H-968c5.62,0,11.89,4.27,14,9.5l8.47,21.18H-917a20.46,20.46,0,0,1,20.46,20.48V226.44A20.47,20.47,0,0,1-917,246.92H-1101a20.46,20.46,0,0,1-20.46-20.48V103.76A20.47,20.47,0,0,1-1101,83.28h28.63ZM-979.66,151a30.68,30.68,0,0,1,1.35,9A30.68,30.68,0,0,1-1009,190.67,30.68,30.68,0,0,1-1039.67,160,30.68,30.68,0,0,1-1009,129.31a30.68,30.68,0,0,1,9,1.35,15.34,15.34,0,0,0-9,14A15.34,15.34,0,0,0-993.65,160,15.34,15.34,0,0,0-979.66,151Z"/><g class="cls-4"><rect x="-1622.63" y="-14695.13" width="9081.82" height="18409.09"/></g><path class="cls-2" d="M-735.9,86.69a21,21,0,0,1,21-20.95h57.77a14.69,14.69,0,0,1,9,3.73L-613.63,104a14.48,14.48,0,0,1,3.73,9V233.76a21,21,0,0,1-20.95,21H-715A20.94,20.94,0,0,1-735.9,233.8V86.69Zm168-41.95h21a21,21,0,0,1,21,21v147l-20.7,34.57c-6,10-15.65,9.93-21.59,0l-20.7-34.57v-147A21,21,0,0,1-567.92,44.75Zm21,131.25V97.27s-21,0-21,0,0,46.31,0,78.75h21Zm0,21v10.07l-10.5,17.33-10.49-17.46s0-3.78,0-9.94h21Zm-83.93-57.75c0,34.09,0,94.5,0,94.5s-84.05,0-84.05.05l0-147.05h31.52v42a10.49,10.49,0,0,0,10.53,10.5h42Zm0-21c0-1.12,0-1.72,0-1.72l-29.87-29.78h-1.71v31.5h31.58Z"/><g class="cls-5"><rect x="-6804.9" y="-6024.25" width="9324" height="18900"/></g><path d="M150,45.19a110,110,0,1,0,110,110A110.12,110.12,0,0,0,150,45.19Zm0,198a88,88,0,1,1,88-88A88.1,88.1,0,0,1,150,243.19Z"/><path d="M150,122.19a11,11,0,0,1,11,11h22a33,33,0,0,0-22-31v-13H139v13a32.92,32.92,0,0,0,11,64,11,11,0,1,1-11,11H117a32.94,32.94,0,0,0,22,31v13h22v-13a32.92,32.92,0,0,0-11-64A11,11,0,0,1,150,122.19Z"/></svg>