<?xml version="1.0" encoding="utf-8"?>
<!-- Generator: Adobe Illustrator 19.2.1, SVG Export Plug-In . SVG Version: 6.00 Build 0)  -->
<svg version="1.1" id="Layer_1" xmlns="http://www.w3.org/2000/svg" xmlns:xlink="http://www.w3.org/1999/xlink" x="0px" y="0px"
	 viewBox="0 0 300 300" style="enable-background:new 0 0 300 300;" xml:space="preserve">
<style type="text/css">
	.st0{fill-rule:evenodd;clip-rule:evenodd;}
</style>
<g>
	<path d="M236,62.3c2,2,2.9,4.2,2.9,6.8v160.2c0,2.6-1,4.9-2.9,6.8s-4.2,2.9-6.8,2.9h-45.9v-69.3h23.4l3.4-27.3h-26.9v-17.6
		c0-8.8,4.6-13.2,13.7-13.2h14.2V87.7c-4.9-1-11.9-1.5-21-1.5c-10.4,0-18.8,3.2-25.1,9.5s-9.5,15.2-9.5,26.6v20H132v27.3h23.4v69.3
		H69c-2.6,0-4.9-1-6.8-2.9s-2.9-4.2-2.9-6.8V69.1c0-2.6,1-4.9,2.9-6.8c2-2,4.2-2.9,6.8-2.9h160.2C231.8,59.4,234.1,60.4,236,62.3z"
		/>
</g>
<g>
	<defs>
		<rect id="SVGID_1_" x="-5789.5" y="-3917.1" width="15094.6" height="11550.3"/>
	</defs>
	<clipPath id="SVGID_2_">
		<use xlink:href="#SVGID_1_"  style="overflow:visible;"/>
	</clipPath>
</g>
<g>
	<defs>
		<rect id="SVGID_3_" x="-5789.5" y="-3917.1" width="15094.6" height="11550.3"/>
	</defs>
	<clipPath id="SVGID_4_">
		<use xlink:href="#SVGID_3_"  style="overflow:visible;"/>
	</clipPath>
</g>
</svg>
