<svg xmlns="http://www.w3.org/2000/svg" viewBox="0 0 300 300"><defs><style>.a{fill-rule:evenodd;}</style></defs><title>FontTristan-01</title><path class="a" d="M71,66.44845A20.96315,20.96315,0,0,1,91.98007,45.5h89.76537a14.68682,14.68682,0,0,1,8.9818,3.72723l34.54553,34.54553A14.47654,14.47654,0,0,1,229,92.73179V233.5166A20.9585,20.9585,0,0,1,208.05224,254.5H91.94778A20.944,20.944,0,0,1,71,233.55156V66.44845ZM208.06856,119c-0.01512,34.08557-.03879,114.5-0.01632,114.5,0,0-116.05224.02643-116.05224,0.05156L91.98007,66.5H155.5v42A10.4896,10.4896,0,0,0,166.03077,119h42.0378Zm0.00976-21c0.00053-1.11941.00084-1.72237,0.00084-1.72237L178.20856,66.5H176.5V98h31.57833Z"/></svg>