<svg xmlns="http://www.w3.org/2000/svg" viewBox="0 0 300 300"><title>gear-alt</title><path d="M238.75,132.8h-1.86a9.17,9.17,0,0,1-8.68-6.68h0a80.66,80.66,0,0,0-5.8-14.06h0a9.85,9.85,0,0,1-1.16-4.6,8.8,8.8,0,0,1,2.57-6.29l1.3-1.3h0a16,16,0,0,0,0-22.56h0l-1.76-1.76h0a16,16,0,0,0-22.56,0h0l-1.3,1.31a8.78,8.78,0,0,1-6.28,2.56,9.88,9.88,0,0,1-4.61-1.16,80.52,80.52,0,0,0-14.06-5.81,9.17,9.17,0,0,1-6.68-8.68V61.92a16,16,0,0,0-16-16h-2.48a16,16,0,0,0-16,16v1.86a9.17,9.17,0,0,1-6.68,8.68,80.45,80.45,0,0,0-14.06,5.81,9.88,9.88,0,0,1-4.61,1.16,8.78,8.78,0,0,1-6.28-2.56l-1.29-1.3h0a16,16,0,0,0-22.56,0h0l-1.76,1.76h0a16,16,0,0,0,0,22.56h0l1.3,1.3a8.8,8.8,0,0,1,2.57,6.29,9.85,9.85,0,0,1-1.16,4.6h0a80.48,80.48,0,0,0-5.8,14.06h0a9.17,9.17,0,0,1-8.68,6.68H62.58a16,16,0,0,0-16,16v2.48a16,16,0,0,0,16,16h1.86a9.17,9.17,0,0,1,8.68,6.69h0a80.09,80.09,0,0,0,5.81,14.06h0a9.86,9.86,0,0,1,1.16,4.6,8.79,8.79,0,0,1-2.57,6.28l-1.3,1.3h0a16,16,0,0,0,0,22.56h0L78,224.45h0a16,16,0,0,0,22.56,0h0l1.3-1.3a8.79,8.79,0,0,1,6.28-2.57,9.87,9.87,0,0,1,4.61,1.16,80.82,80.82,0,0,0,14.05,5.81h0a9.16,9.16,0,0,1,6.68,8.67v1.87a16,16,0,0,0,16,15.95h2.48a16,16,0,0,0,16-15.95v-1.87a9.16,9.16,0,0,1,6.68-8.67h0a80.89,80.89,0,0,0,14.05-5.81,9.86,9.86,0,0,1,4.61-1.16,8.79,8.79,0,0,1,6.28,2.57l1.3,1.3h0a16,16,0,0,0,22.56,0h0l1.76-1.76h0a16,16,0,0,0,0-22.56h0l-1.3-1.3a8.79,8.79,0,0,1-2.57-6.28,9.86,9.86,0,0,1,1.16-4.6h0a80.26,80.26,0,0,0,5.8-14.06h0a9.17,9.17,0,0,1,8.68-6.69h1.86a16,16,0,0,0,16-16v-2.48A16,16,0,0,0,238.75,132.8Zm0,27.43h-1.86a16.14,16.14,0,0,0-15.34,11.61h0a73.29,73.29,0,0,1-5.3,12.84h0a16.82,16.82,0,0,0-2,7.86,15.77,15.77,0,0,0,4.61,11.21l1.3,1.3a9,9,0,0,1,0,12.71h0l-1.76,1.76a9,9,0,0,1-12.71,0l-1.3-1.3h0a15.77,15.77,0,0,0-11.21-4.61,16.83,16.83,0,0,0-7.86,2,73.92,73.92,0,0,1-12.84,5.31h0a16.13,16.13,0,0,0-11.61,15.33v1.87a9,9,0,0,1-9,9h-2.48a9,9,0,0,1-9-9v-1.87a16.13,16.13,0,0,0-11.61-15.33h0A73.86,73.86,0,0,1,116,215.58a16.83,16.83,0,0,0-7.86-2,15.77,15.77,0,0,0-11.21,4.61h0l-1.3,1.3a9,9,0,0,1-12.71,0h0l-1.76-1.76a9,9,0,0,1,0-12.71l1.3-1.3h0a15.77,15.77,0,0,0,4.61-11.21,16.83,16.83,0,0,0-2-7.86h0a73.12,73.12,0,0,1-5.3-12.84h0a16.14,16.14,0,0,0-15.34-11.61H62.58a9,9,0,0,1-9-9v-2.48a9,9,0,0,1,9-9h1.86a16.14,16.14,0,0,0,15.34-11.6h0a73.51,73.51,0,0,1,5.3-12.85h0a16.81,16.81,0,0,0,2-7.86,15.78,15.78,0,0,0-4.61-11.21h0l-1.3-1.3a9,9,0,0,1,0-12.71l1.76-1.76h0a9,9,0,0,1,12.71,0l1.29,1.3h0a15.76,15.76,0,0,0,11.2,4.6,16.84,16.84,0,0,0,7.87-2,73.48,73.48,0,0,1,12.84-5.3,16.14,16.14,0,0,0,11.61-15.34V61.92a9,9,0,0,1,9-9h2.48a9,9,0,0,1,9,9v1.86A16.14,16.14,0,0,0,172.5,79.12a73.55,73.55,0,0,1,12.84,5.3,16.84,16.84,0,0,0,7.87,2,15.76,15.76,0,0,0,11.2-4.61h0l1.3-1.31h0a9,9,0,0,1,12.71,0l1.76,1.76h0a9,9,0,0,1,0,12.71h0l-1.3,1.3a15.78,15.78,0,0,0-4.61,11.21,16.81,16.81,0,0,0,2,7.86h0a73.69,73.69,0,0,1,5.3,12.85h0a16.14,16.14,0,0,0,15.34,11.6h1.86a9,9,0,0,1,9,9v2.48A9,9,0,0,1,238.75,160.23Z"/><path d="M150.67,110a40,40,0,1,0,40,40A40,40,0,0,0,150.67,110Zm23.39,63.44A33.08,33.08,0,1,1,183.75,150,33,33,0,0,1,174.06,173.39Z"/></svg>