<svg xmlns="http://www.w3.org/2000/svg" viewBox="0 0 300 300"><title>info</title><path d="M150,265A115,115,0,1,1,265,150,115.04016,115.04016,0,0,1,150,265Zm38.33333-67.08333a4.72958,4.72958,0,0,0-4.80258-4.78075H169.16667V116.46925a4.73448,4.73448,0,0,0-4.80258-4.80258H116.46925a4.73448,4.73448,0,0,0-4.80258,4.80258v23.94742a4.72958,4.72958,0,0,0,4.80258,4.78075h14.36408v47.9385H116.46925a4.72958,4.72958,0,0,0-4.80258,4.78075v23.94742a4.73448,4.73448,0,0,0,4.80258,4.80258h67.0615a4.73448,4.73448,0,0,0,4.80258-4.80258ZM169.16667,63.75a4.72958,4.72958,0,0,0-4.80258-4.78075H135.63592A4.72958,4.72958,0,0,0,130.83333,63.75V87.69742A4.73448,4.73448,0,0,0,135.63592,92.5h28.72817a4.73448,4.73448,0,0,0,4.80258-4.80258Z"/></svg>