<svg id="Layer_1" data-name="Layer 1" xmlns="http://www.w3.org/2000/svg" viewBox="0 0 300 300"><title>instagram</title><path d="M150,105.53A44.47,44.47,0,1,0,194.47,150,44.49,44.49,0,0,0,150,105.53Zm0,66.7A22.23,22.23,0,1,1,172.23,150,22.24,22.24,0,0,1,150,172.23Z"/><circle cx="194.47" cy="105.53" r="11.12"/><path d="M238.38,113.3c-.41-9.48-1.92-15.95-4.12-21.58a45.35,45.35,0,0,0-26-26c-5.64-2.2-12.17-3.71-21.58-4.12s-12.51-.55-36.7-.55-27.22.07-36.7.55-15.94,1.92-21.58,4.12a45.34,45.34,0,0,0-26,26c-2.2,5.64-3.71,12.17-4.12,21.58s-.55,12.51-.55,36.7.07,27.22.55,36.7,1.92,15.94,4.12,21.58a45.34,45.34,0,0,0,26,26c5.64,2.2,12.17,3.71,21.58,4.12s12.51.55,36.7.55,27.22-.07,36.7-.55,15.94-1.92,21.58-4.12a45.35,45.35,0,0,0,26-26c2.2-5.64,3.71-12.16,4.12-21.58s.55-12.51.55-36.7S238.87,122.78,238.38,113.3ZM216.2,182.85c-.38,7.91-1.7,12.25-2.83,15.07a25.18,25.18,0,0,1-6.09,9.36,25.43,25.43,0,0,1-9.36,6.09c-2.89,1.13-7.16,2.45-15.07,2.83-8.6.38-11.12.5-32.85.5s-24.31-.06-32.85-.5c-7.91-.38-12.25-1.7-15.07-2.83a25.16,25.16,0,0,1-9.36-6.09,25.44,25.44,0,0,1-6.09-9.36c-1.13-2.89-2.45-7.16-2.83-15.07-.38-8.6-.5-11.18-.5-32.85s.06-24.31.5-32.85c.38-7.91,1.7-12.25,2.83-15.07a25.16,25.16,0,0,1,6.09-9.36,25.44,25.44,0,0,1,9.36-6.09c2.89-1.13,7.16-2.45,15.07-2.83,8.6-.38,11.18-.5,32.85-.5s24.31.06,32.85.5c7.91.38,12.25,1.7,15.07,2.83a25.18,25.18,0,0,1,9.36,6.09,25.45,25.45,0,0,1,6.09,9.36c1.13,2.89,2.45,7.16,2.83,15.07.38,8.6.5,11.18.5,32.85S216.58,174.31,216.2,182.85Z"/></svg>