<svg xmlns="http://www.w3.org/2000/svg" viewBox="0 0 300 300"><title>juice-outline</title><path d="M196.37,64.24a44.61,44.61,0,0,0-44.47,41.14H117l-8.66-51.94a3.49,3.49,0,0,0-2.86-2.86L78.11,46A3.48,3.48,0,1,0,77,52.88l25,4.16L110,105.38H95.82a3.48,3.48,0,0,0-3.47,3.82l12.51,129.3A17.19,17.19,0,0,0,122,254h48.23a17.2,17.2,0,0,0,17.12-15.54l8.24-85.12a3.46,3.46,0,0,0,.81.1,44.62,44.62,0,1,0,0-89.24Zm-16,173.58a10.23,10.23,0,0,1-10.18,9.24H122a10.23,10.23,0,0,1-10.18-9.24L99.66,112.35h92.88ZM223,135.49a37.52,37.52,0,0,1-26.63,11h-.14l2.87-29.61,8.09,12.16a3.48,3.48,0,0,0,5.8-3.86l-9.14-13.74a3.48,3.48,0,0,0-4.09-1.33l.09-1a3.48,3.48,0,0,0-3.47-3.82h-5.85a3.47,3.47,0,0,0-.83-3.55L176,88.12A3.48,3.48,0,1,0,171.06,93l12.34,12.34H158.89A37.65,37.65,0,1,1,223,135.49Z"/><path d="M117.56,135.9a3.48,3.48,0,0,0-6.92.77l9.14,82.27a3.48,3.48,0,0,0,6.92-.77Z"/><path d="M196.38,78a3.48,3.48,0,0,0-3.49,3.48l0,18.32a3.48,3.48,0,0,0,7,0l0-18.32A3.48,3.48,0,0,0,196.38,78Z"/><path d="M217.29,92.25l-13.71,9.14a3.48,3.48,0,0,0,3.86,5.8L221.16,98a3.48,3.48,0,0,0-3.86-5.8Z"/></svg>