<?xml version="1.0" encoding="utf-8"?>
<!-- Generator: Adobe Illustrator 19.2.1, SVG Export Plug-In . SVG Version: 6.00 Build 0)  -->
<svg version="1.1" id="Layer_1" xmlns="http://www.w3.org/2000/svg" xmlns:xlink="http://www.w3.org/1999/xlink" x="0px" y="0px"
	 viewBox="0 0 300 300" style="enable-background:new 0 0 300 300;" xml:space="preserve">
<style type="text/css">
	.st0{fill-rule:evenodd;clip-rule:evenodd;}
</style>
<path class="st0" d="M150,37.5C87.9,37.5,37.5,87.9,37.5,150S87.9,262.5,150,262.5S262.5,212.1,262.5,150S212.1,37.5,150,37.5
	 M150,65.6c18.2,0,35,5.9,48.8,15.7l-20.3,20.3c-8.4-5-18.1-7.8-28.5-7.8c-10.4,0-20.2,2.9-28.5,7.8l-20.3-20.3
	C115,71.5,131.8,65.6,150,65.6 M178.1,150c0,1.5-0.2,2.9-0.4,4.3c-1.9,12-11.3,21.5-23.4,23.4c-1.4,0.3-2.8,0.4-4.3,0.4
	s-2.9-0.2-4.3-0.4c-12-1.9-21.5-11.3-23.4-23.4c-0.3-1.4-0.4-2.8-0.4-4.3s0.2-2.9,0.4-4.3c1.9-12,11.3-21.5,23.4-23.4
	c1.4-0.3,2.8-0.4,4.3-0.4s2.9,0.2,4.3,0.4c12,1.9,21.5,11.3,23.4,23.4C177.9,147.1,178.1,148.5,178.1,150 M65.6,150
	c0-18.2,5.8-35,15.7-48.8l20.3,20.3c-5,8.4-7.8,18.1-7.8,28.5c0,10.4,2.9,20.2,7.8,28.5l-20.3,20.3C71.5,185,65.6,168.2,65.6,150
	 M150,234.4c-18.2,0-35-5.8-48.8-15.7l20.3-20.3c8.4,4.9,18.1,7.8,28.5,7.8c10.4,0,20.2-2.9,28.5-7.8l20.3,20.3
	C185,228.5,168.2,234.4,150,234.4 M218.7,198.8l-20.3-20.3c4.9-8.4,7.8-18.1,7.8-28.5c0-10.4-2.9-20.2-7.8-28.5l20.3-20.3
	c9.8,13.8,15.7,30.6,15.7,48.8S228.5,185,218.7,198.8"/>
<g>
	<defs>
		<rect id="SVGID_1_" x="-6184.5" y="-3250.4" width="15094.6" height="11550.3"/>
	</defs>
	<clipPath id="SVGID_2_">
		<use xlink:href="#SVGID_1_"  style="overflow:visible;"/>
	</clipPath>
</g>
<g>
	<defs>
		<rect id="SVGID_3_" x="-6184.5" y="-3250.4" width="15094.6" height="11550.3"/>
	</defs>
	<clipPath id="SVGID_4_">
		<use xlink:href="#SVGID_3_"  style="overflow:visible;"/>
	</clipPath>
</g>
</svg>
