<svg id="Layer_1" data-name="Layer 1" xmlns="http://www.w3.org/2000/svg" viewBox="0 0 300 300"><defs><style>.cls-1{fill-rule:evenodd;}</style></defs><title>FontTristan</title><path class="cls-1" d="M150,37.5A112.5,112.5,0,1,0,262.5,150,112.505,112.505,0,0,0,150,37.5m0,28.125a83.8271,83.8271,0,0,1,48.8109,15.68l-20.2781,20.2781a55.885,55.885,0,0,0-57.0656,0L101.1891,81.3047A83.8271,83.8271,0,0,1,150,65.625M178.125,150a24.3119,24.3119,0,0,1-.4359,4.3313,28.0079,28.0079,0,0,1-23.3578,23.3578,21.7344,21.7344,0,0,1-8.6625,0,27.9923,27.9923,0,0,1-23.3578-23.3578,21.7344,21.7344,0,0,1,0-8.6625,28.0079,28.0079,0,0,1,23.3578-23.3578,21.7344,21.7344,0,0,1,8.6625,0,28.0236,28.0236,0,0,1,23.3578,23.3578A24.3118,24.3118,0,0,1,178.125,150m-112.5,0a83.827,83.827,0,0,1,15.68-48.8109l20.2781,20.2781a55.885,55.885,0,0,0,0,57.0656L81.3047,198.8109A83.827,83.827,0,0,1,65.625,150M150,234.375a83.827,83.827,0,0,1-48.8109-15.68l20.2781-20.2781a55.885,55.885,0,0,0,57.0656,0l20.2781,20.2781A83.827,83.827,0,0,1,150,234.375m68.6953-35.5641-20.2781-20.2781a55.885,55.885,0,0,0,0-57.0656l20.2781-20.2781a83.8142,83.8142,0,0,1,0,97.6219"/></svg>