<svg id="Layer_1" data-name="Layer 1" xmlns="http://www.w3.org/2000/svg" xmlns:xlink="http://www.w3.org/1999/xlink" viewBox="0 0 300 300"><defs><style>.cls-1{clip-rule:evenodd;}.cls-2{fill-rule:evenodd;}.cls-3{clip-path:url(#clip-path);}.cls-4{clip-path:url(#clip-path-2);}.cls-5{clip-path:url(#clip-path-3);}</style><clipPath id="clip-path"><path class="cls-1" d="M-1448.91,264.78A21.92,21.92,0,0,0-1427,242.86a21.92,21.92,0,0,0-21.92-21.92,21.92,21.92,0,0,0-21.92,21.92A21.92,21.92,0,0,0-1448.91,264.78Zm98.64,0a21.92,21.92,0,0,0,21.92-21.92,21.92,21.92,0,0,0-21.92-21.92,21.92,21.92,0,0,0-21.92,21.92A21.92,21.92,0,0,0-1350.27,264.78Zm-108.45-109.6h128.61l10.38-55.56-154-9.42Zm-20.15-87.26,174.32,10.69A9.38,9.38,0,0,1-1295.64,90l-14.27,76.37a13.69,13.69,0,0,1-13,10.75h-130.8l2.53,11h122.78a11,11,0,0,1,11,11,11,11,0,0,1-11,11h-131.52a11,11,0,0,1-10.68-8.5l-31.7-137.37-17.14-8.61a11,11,0,0,1-4.92-14.7,11,11,0,0,1,14.7-4.92l21.75,10.85a11,11,0,0,1,5.79,7.34Z"/></clipPath><clipPath id="clip-path-2"><path class="cls-1" d="M-666.14,160A51.14,51.14,0,0,1-615,108.85,51.14,51.14,0,0,1-563.86,160,51.14,51.14,0,0,1-615,211.12,51.14,51.14,0,0,1-666.14,160ZM-707,103.74V226.44s184.08,0,184.08,0V103.76s-37.36,0-37.36,0a8.15,8.15,0,0,1-7-4.73l-10.44-26h-74.51l-10.36,25.89a8.18,8.18,0,0,1-7,4.79H-707Zm28.63-20.45,8.47-21.18c2.1-5.25,8.39-9.5,14-9.5H-574c5.62,0,11.89,4.27,14,9.5l8.47,21.18H-523a20.46,20.46,0,0,1,20.46,20.48V226.44A20.47,20.47,0,0,1-523,246.92H-707a20.46,20.46,0,0,1-20.46-20.48V103.76A20.47,20.47,0,0,1-707,83.28h28.63ZM-585.67,151a30.68,30.68,0,0,1,1.35,9A30.68,30.68,0,0,1-615,190.67,30.68,30.68,0,0,1-645.68,160,30.68,30.68,0,0,1-615,129.31a30.68,30.68,0,0,1,9,1.35,15.34,15.34,0,0,0-9,14A15.34,15.34,0,0,0-599.66,160,15.34,15.34,0,0,0-585.67,151Z"/></clipPath><clipPath id="clip-path-3"><path class="cls-1" d="M-341.91,86.69a21,21,0,0,1,21-20.95h57.77a14.69,14.69,0,0,1,9,3.73L-219.64,104a14.48,14.48,0,0,1,3.73,9V233.76a21,21,0,0,1-20.95,21H-321a20.94,20.94,0,0,1-20.95-20.95V86.69Zm168-41.95h21a21,21,0,0,1,21,21v147l-20.7,34.57c-6,10-15.65,9.93-21.59,0l-20.7-34.57v-147A21,21,0,0,1-173.93,44.75Zm21,131.25V97.27s-21,0-21,0,0,46.31,0,78.75h21Zm0,21v10.07l-10.5,17.33-10.49-17.46s0-3.78,0-9.94h21Zm-83.93-57.75c0,34.09,0,94.5,0,94.5s-84.05,0-84.05.05l0-147.05h31.52v42a10.49,10.49,0,0,0,10.53,10.5h42Zm0-21c0-1.12,0-1.72,0-1.72L-266.7,86.75h-1.71v31.5h31.58Z"/></clipPath></defs><title>FontTristan</title><path class="cls-2" d="M-1448.91,264.78A21.92,21.92,0,0,0-1427,242.86a21.92,21.92,0,0,0-21.92-21.92,21.92,21.92,0,0,0-21.92,21.92A21.92,21.92,0,0,0-1448.91,264.78Zm98.64,0a21.92,21.92,0,0,0,21.92-21.92,21.92,21.92,0,0,0-21.92-21.92,21.92,21.92,0,0,0-21.92,21.92A21.92,21.92,0,0,0-1350.27,264.78Zm-108.45-109.6h128.61l10.38-55.56-154-9.42Zm-20.15-87.26,174.32,10.69A9.38,9.38,0,0,1-1295.64,90l-14.27,76.37a13.69,13.69,0,0,1-13,10.75h-130.8l2.53,11h122.78a11,11,0,0,1,11,11,11,11,0,0,1-11,11h-131.52a11,11,0,0,1-10.68-8.5l-31.7-137.37-17.14-8.61a11,11,0,0,1-4.92-14.7,11,11,0,0,1,14.7-4.92l21.75,10.85a11,11,0,0,1,5.79,7.34Z"/><g class="cls-3"><rect x="-6802.68" y="-10503.03" width="9732.13" height="19727.29"/></g><path class="cls-2" d="M-666.14,160A51.14,51.14,0,0,1-615,108.85,51.14,51.14,0,0,1-563.86,160,51.14,51.14,0,0,1-615,211.12,51.14,51.14,0,0,1-666.14,160ZM-707,103.74V226.44s184.08,0,184.08,0V103.76s-37.36,0-37.36,0a8.15,8.15,0,0,1-7-4.73l-10.44-26h-74.51l-10.36,25.89a8.18,8.18,0,0,1-7,4.79H-707Zm28.63-20.45,8.47-21.18c2.1-5.25,8.39-9.5,14-9.5H-574c5.62,0,11.89,4.27,14,9.5l8.47,21.18H-523a20.46,20.46,0,0,1,20.46,20.48V226.44A20.47,20.47,0,0,1-523,246.92H-707a20.46,20.46,0,0,1-20.46-20.48V103.76A20.47,20.47,0,0,1-707,83.28h28.63ZM-585.67,151a30.68,30.68,0,0,1,1.35,9A30.68,30.68,0,0,1-615,190.67,30.68,30.68,0,0,1-645.68,160,30.68,30.68,0,0,1-615,129.31a30.68,30.68,0,0,1,9,1.35,15.34,15.34,0,0,0-9,14A15.34,15.34,0,0,0-599.66,160,15.34,15.34,0,0,0-585.67,151Z"/><g class="cls-4"><rect x="-1228.64" y="-14695.13" width="9081.82" height="18409.09"/></g><path class="cls-2" d="M-341.91,86.69a21,21,0,0,1,21-20.95h57.77a14.69,14.69,0,0,1,9,3.73L-219.64,104a14.48,14.48,0,0,1,3.73,9V233.76a21,21,0,0,1-20.95,21H-321a20.94,20.94,0,0,1-20.95-20.95V86.69Zm168-41.95h21a21,21,0,0,1,21,21v147l-20.7,34.57c-6,10-15.65,9.93-21.59,0l-20.7-34.57v-147A21,21,0,0,1-173.93,44.75Zm21,131.25V97.27s-21,0-21,0,0,46.31,0,78.75h21Zm0,21v10.07l-10.5,17.33-10.49-17.46s0-3.78,0-9.94h21Zm-83.93-57.75c0,34.09,0,94.5,0,94.5s-84.05,0-84.05.05l0-147.05h31.52v42a10.49,10.49,0,0,0,10.53,10.5h42Zm0-21c0-1.12,0-1.72,0-1.72L-266.7,86.75h-1.71v31.5h31.58Z"/><g class="cls-5"><rect x="-6410.91" y="-6024.25" width="9324" height="18900"/></g><path d="M273.29,164.08L258,172.58A109.88,109.88,0,1,0,150.5,260.44V236a85.72,85.72,0,1,1,83-64.78L221.4,149.53,200,161.42,230.37,216l54.81-30.5Z"/></svg>