<?xml version="1.0" encoding="utf-8"?>
<!-- Generator: Adobe Illustrator 19.2.1, SVG Export Plug-In . SVG Version: 6.00 Build 0)  -->
<svg version="1.1" id="Layer_1" xmlns="http://www.w3.org/2000/svg" xmlns:xlink="http://www.w3.org/1999/xlink" x="0px" y="0px"
	 viewBox="0 0 300 300" style="enable-background:new 0 0 300 300;" xml:space="preserve">
<style type="text/css">
	.st0{fill-rule:evenodd;clip-rule:evenodd;}
</style>
<path class="st0" d="M249.8,109.7v134.8c0,7.4-6,13.5-13.5,13.5H74.5c-7.4,0-13.5-6-13.5-13.5V109.7H47.5V96.2
	c0-7.4,6-13.5,13.5-13.5h13.5H88h27v-27c0-7.4,6-13.5,13.5-13.5h53.9c7.4,0,13.5,6,13.5,13.5v27h27h13.5h13.5
	c7.4,0,13.5,6,13.5,13.5v13.5H249.8z M142,82.7h27V69.2h-27V82.7z M88,231h134.9V109.7H88V231z M115,204.1h27v-67.4h-27V204.1z
	 M168.9,204.1h27v-67.4h-27V204.1z"/>
<g>
	<defs>
		<rect id="SVGID_1_" x="-8136" y="-3250.4" width="15094.6" height="11550.3"/>
	</defs>
	<clipPath id="SVGID_2_">
		<use xlink:href="#SVGID_1_"  style="overflow:visible;"/>
	</clipPath>
</g>
<g>
	<defs>
		<rect id="SVGID_3_" x="-8136" y="-3250.4" width="15094.6" height="11550.3"/>
	</defs>
	<clipPath id="SVGID_4_">
		<use xlink:href="#SVGID_3_"  style="overflow:visible;"/>
	</clipPath>
</g>
</svg>
