<?xml version="1.0" encoding="utf-8"?>
<!-- Generator: Adobe Illustrator 19.2.1, SVG Export Plug-In . SVG Version: 6.00 Build 0)  -->
<svg version="1.1" id="Layer_1" xmlns="http://www.w3.org/2000/svg" xmlns:xlink="http://www.w3.org/1999/xlink" x="0px" y="0px"
	 viewBox="0 0 300 300" style="enable-background:new 0 0 300 300;" xml:space="preserve">
<style type="text/css">
	.st0{fill-rule:evenodd;clip-rule:evenodd;}
</style>
<path class="st0" d="M242,247.2c0,8.5-6.9,15.3-15.3,15.3H73.3c-8.5,0-15.3-6.9-15.3-15.3v-92c0-8.5,6.9-15.3,15.3-15.3h5.1v-30.7
	c0-39.3,32.3-71.6,71.6-71.6c39.3,0,71.6,32.3,71.6,71.6v30.7h5.1c8.5,0,15.3,6.9,15.3,15.3V247.2z M190.9,139.8v-30.7
	c0-22.5-18.4-40.9-40.9-40.9c-22.5,0-40.9,18.4-40.9,40.9v30.7H190.9z"/>
<g>
	<defs>
		<rect id="SVGID_1_" x="-8549.5" y="-3250.4" width="15094.6" height="11550.3"/>
	</defs>
	<clipPath id="SVGID_2_">
		<use xlink:href="#SVGID_1_"  style="overflow:visible;"/>
	</clipPath>
</g>
<g>
	<defs>
		<rect id="SVGID_3_" x="-8549.5" y="-3250.4" width="15094.6" height="11550.3"/>
	</defs>
	<clipPath id="SVGID_4_">
		<use xlink:href="#SVGID_3_"  style="overflow:visible;"/>
	</clipPath>
</g>
</svg>
