<svg id="Layer_1" data-name="Layer 1" xmlns="http://www.w3.org/2000/svg" viewBox="0 0 800 300"><defs><style>.cls-1{fill-rule:evenodd;}</style></defs><title>FontTristan</title><path class="cls-1" d="M761.3833,127.8517c-6.9907-6.8651-16.16-10.423-27.2578-10.5773l-4.561.01h-1.34l-11.84.0193c-0.0288,0-.0674-0.0193-0.0967-0.0193H711.12V87.1434a7.5968,7.5968,0,1,0-15.186.4628V200.8994c0,3.635,3.3745,6.9615,7.6362,6.9615a7.4983,7.4983,0,0,0,7.55-7.4243l0.0386-68.3906h22.9189c6.3828,0.1351,11.8306,1.8224,16.208,6.2384,4.3584,4.4161,6.6626,9.8348,6.8267,16.9988v45.1533a7.4961,7.4961,0,0,0,7.54,7.4243h0.0962a7.5128,7.5128,0,0,0,7.56-7.4243V155.3314C772.0859,143.6646,768.4023,134.7361,761.3833,127.8517Z"/><path class="cls-1" d="M616.5327,120.0639a7.6036,7.6036,0,0,0-7.54,7.8872v72.9415c0,3.6447,3.3843,6.9712,7.6367,6.9712a7.5064,7.5064,0,0,0,7.5591-7.4243V127.4883A7.5351,7.5351,0,0,0,616.5327,120.0639Z"/><path class="cls-1" d="M677.0767,131.7567c4.1558,0,7.54-3.9532,7.54-7.781,0-3.8376-3.3843-6.9615-7.54-6.9615H657.6V86.8156a7.72,7.72,0,0,0-15.437,0v88.1373c0,12.38,6.2192,22.7454,17.5,28.55a43.3523,43.3523,0,0,0,16.623,4.551,7.5958,7.5958,0,1,0,.646-15.1765,27.9525,27.9525,0,0,1-10.5-3.0276,15.9656,15.9656,0,0,1-8.832-14.8969V131.7567h19.4766Z"/><path class="cls-1" d="M583.4019,119.9647a7.48,7.48,0,0,0-7.5493,7.3953V177.074c-0.0869,5.9009-1.63,10.6255-4.6572,14.0387-3.0371,3.4615-7.2314,5.2356-12.7661,5.3031-5.5439,0-9.9985-1.7162-13.248-5.13-3.3071-3.4422-5.0234-9.1021-5.0811-16.8156V127.36a7.4738,7.4738,0,0,0-7.4243-7.376v-0.0193c-0.0293,0-.0581.01-0.0869,0.01s-0.0576-.01-0.0771-0.01v0.0193a7.4735,7.4735,0,0,0-7.4243,7.376v47.1107c-0.0576,7.7136-1.7739,13.3734-5.0815,16.8156-3.2393,3.4133-7.7036,5.13-13.2573,5.13-5.5249-.0675-9.7192-1.8416-12.7563-5.3031-3.0278-3.4132-4.58-8.1378-4.6572-14.0387V127.36a7.5906,7.5906,0,0,0-15.1763,0v53.4069a28.874,28.874,0,0,0,9.1113,21.01c5.8818,5.5923,13.5376,8.5428,22.7842,8.7549a35.8567,35.8567,0,0,0,14.5688-3.0372c4.2139-1.88,9.0059-4.6956,11.9082-8.3692a0.5512,0.5512,0,0,1,.0576-0.0386,0.2008,0.2008,0,0,1,.0576.0386c2.9121,3.6736,7.7041,6.489,11.9175,8.3692a35.8928,35.8928,0,0,0,14.5693,3.0372c9.2368-.2121,16.9023-3.1625,22.7837-8.7549a28.9012,28.9012,0,0,0,9.1021-21.01V127.36A7.49,7.49,0,0,0,583.4019,119.9647Z"/><path class="cls-1" d="M379.34,116.2139c-21.5786,0-43.4272,15.6392-43.4272,45.52,0,22.8708,14.01,47.3132,53.3682,47.3132,7.627,0,13.7207-1.2342,22.09-4.3389,11.0205-4.0786,4.1265-15.1187-2.7383-13.1035-7.7041,2.2755-12.7852,3.5771-20.21,3.5771-20.4409,0-33.1973-8.051-36.0513-22.6876h61.7856c6.4023,0,9.353-3.6447,9.353-8.6488C423.51,131.13,400.5044,116.2139,379.34,116.2139Zm29.1,42.29-57.4761-.0482c0.5205-19.7564,14.9932-28.762,28.4438-28.762,13.74,0,28.5112,9.0249,29.0513,28.7813A0.05,0.05,0,0,1,408.44,158.5036Z"/><path class="cls-1" d="M212.8042,123.1012a36.0686,36.0686,0,0,0-15.07-3.0373l-24.4907.0193a7.0914,7.0914,0,1,0,.0193,14.1544h25.85c5.467,0.0386,9.8638,1.7741,13.1035,5.1488a16.457,16.457,0,0,1,2.97,4.7631H183.647c-18.4355.1736-33.4385,15.09-33.4385,33.2552,0,18.1751,15.1379,33.072,33.7566,33.2069h40.94a7.5051,7.5051,0,0,0,7.5691-7.405V158.9114c0-11.0208-4.262-21.4341-8.2053-26.4286C219.8525,126.8422,217.2683,125.1067,212.8042,123.1012Zm3.3843,73.3272H183.936a19.1953,19.1953,0,0,1-19.4285-19.0236c0-10.693,8.7356-19.014,19.8818-19.0815h31.8376Z"/><path class="cls-1" d="M104.5093,119.9675A35.8575,35.8575,0,0,0,89.94,123.0048c-4.2136,1.88-9.0056,4.6957-11.9077,8.3692a0.6062,0.6062,0,0,1-.0581.0386,0.2011,0.2011,0,0,1-.0576-0.0386C75.0049,127.7,70.2129,124.8849,66,123.0048A35.8925,35.8925,0,0,0,51.43,119.9675c-9.2371.2122-16.9023,3.1625-22.7839,8.7549a28.9022,28.9022,0,0,0-9.1021,21.01v53.4069a7.5858,7.5858,0,0,0,15.1667,0v-49.714c0.0867-5.9009,1.63-10.6254,4.657-14.0387,3.0374-3.4615,7.2314-5.2356,12.7661-5.303,5.5439,0,9.9985,1.7162,13.248,5.1295,3.3071,3.4422,5.0234,9.1021,5.0813,16.8156v47.1107a7.4737,7.4737,0,0,0,7.4243,7.3762v0.0192c0.0291,0,.0579-0.01.0867-0.01s0.0581,0.01.0771,0.01v-0.0192a7.4736,7.4736,0,0,0,7.4243-7.3762V156.0285c0.0579-7.7136,1.7742-13.3734,5.0815-16.8156,3.24-3.4133,7.7039-5.1295,13.2576-5.1295,5.5249,0.0674,9.719,1.8416,12.7563,5.303,3.0276,3.4133,4.58,8.1378,4.657,14.0387v49.714a7.5908,7.5908,0,0,0,15.1765,0V149.7323a28.8752,28.8752,0,0,0-9.1116-21.01C121.4119,123.13,113.7561,120.18,104.5093,119.9675Z"/><path class="cls-1" d="M315.8335,79.7151a7.6036,7.6036,0,0,0-7.54,7.8872v32.5031H286.6472a39.4132,39.4132,0,0,0-29.7744,13.547,47.23,47.23,0,0,0-11.7537,31.6064c0,25.0112,18.561,45.3558,41.3833,45.3558H315.93a7.5085,7.5085,0,0,0,7.5593-7.434V87.14A7.5353,7.5353,0,0,0,315.8335,79.7151Zm-7.54,116.1086-21.791.0289c-14.5786,0-26.4189-13.73-26.4189-30.5939,0-16.5553,11.58-30.2758,25.8213-30.6133l22.3887,0.0193v61.159Z"/></svg>