<?xml version="1.0" encoding="utf-8"?>
<!-- Generator: Adobe Illustrator 19.2.1, SVG Export Plug-In . SVG Version: 6.00 Build 0)  -->
<svg version="1.1" id="Layer_1" xmlns="http://www.w3.org/2000/svg" xmlns:xlink="http://www.w3.org/1999/xlink" x="0px" y="0px"
	 viewBox="0 0 800 300" style="enable-background:new 0 0 800 300;" xml:space="preserve">
<style type="text/css">
	.st0{fill-rule:evenodd;clip-rule:evenodd;}
</style>
<g>
	<path class="st0" d="M761.4,127.9c-7-6.9-16.2-10.4-27.3-10.6l-4.6,0h-1.3l-11.8,0c0,0-0.1,0-0.1,0h-5.2v-5.2V95.7v-8.6
		c0-4.1-3.4-7.4-7.6-7.4c-4.2,0-7.5,3.3-7.5,7.9v113.3c0,3.6,3.4,7,7.6,7c4.2,0,7.5-3.3,7.5-7.4l0-68.4h22.9
		c6.4,0.1,11.8,1.8,16.2,6.2c4.4,4.4,6.7,9.8,6.8,17v45.2c0,4.1,3.4,7.4,7.5,7.4h0.1c4.1,0,7.6-3.3,7.6-7.4v-45.1
		C772.1,143.7,768.4,134.7,761.4,127.9z"/>
	<path class="st0" d="M616.5,120.1c-4.2,0-7.5,3.3-7.5,7.9v72.9c0,3.6,3.4,7,7.6,7c4.2,0,7.6-3.3,7.6-7.4v-73
		C624.2,123.4,620.8,120.1,616.5,120.1z"/>
	<path class="st0" d="M677.1,131.8c4.2,0,7.5-4,7.5-7.8c0-3.8-3.4-7-7.5-7h-6.2h-8.2h-5.1V86.8c0-4.2-3.5-7.6-7.7-7.6
		c-4.3,0-7.7,3.4-7.7,7.6V175c0,12.4,6.2,22.7,17.5,28.5c8,4.1,15.8,4.5,16.6,4.6c4.2,0.2,7.8-3.1,8-7.3c0.2-4.2-3.1-7.7-7.4-7.9
		c-0.2,0-5.5-0.3-10.5-3c-5.9-3.2-8.8-8.4-8.8-14.9v-43.2H677.1z"/>
	<path class="st0" d="M583.4,120c-4.2,0-7.5,3.3-7.5,7.4v49.7c-0.1,5.9-1.6,10.6-4.7,14c-3,3.5-7.2,5.2-12.8,5.3
		c-5.5,0-10-1.7-13.2-5.1c-3.3-3.4-5-9.1-5.1-16.8v-47.1c0-4-3.3-7.3-7.4-7.4v0c0,0-0.1,0-0.1,0s-0.1,0-0.1,0v0
		c-4.2,0.1-7.4,3.4-7.4,7.4v47.1c-0.1,7.7-1.8,13.4-5.1,16.8c-3.2,3.4-7.7,5.1-13.3,5.1c-5.5-0.1-9.7-1.8-12.8-5.3
		c-3-3.4-4.6-8.1-4.7-14v-49.7c0-4.1-3.4-7.4-7.5-7.4c-4.2,0-7.6,3.3-7.6,7.4v53.4c0.2,8.3,3.2,15.4,9.1,21
		c5.9,5.6,13.5,8.5,22.8,8.8c5.1,0,10-1,14.6-3c4.2-1.9,9-4.7,11.9-8.4c0,0,0,0,0.1,0c0,0,0,0,0.1,0c2.9,3.7,7.7,6.5,11.9,8.4
		c4.6,2,9.4,3,14.6,3c9.2-0.2,16.9-3.2,22.8-8.8c5.9-5.6,8.9-12.7,9.1-21v-53.4C591,123.3,587.6,120,583.4,120z"/>
	<path class="st0" d="M379.3,116.2c-21.6,0-43.4,15.6-43.4,45.5c0,22.9,14,47.3,53.4,47.3c7.6,0,13.7-1.2,22.1-4.3
		c11-4.1,4.1-15.1-2.7-13.1c-7.7,2.3-12.8,3.6-20.2,3.6c-20.4,0-33.2-8.1-36.1-22.7h61.8c6.4,0,9.4-3.6,9.4-8.6
		C423.5,131.1,400.5,116.2,379.3,116.2z M408.4,158.5l-57.5,0c0.5-19.8,15-28.8,28.4-28.8C393.1,129.7,407.9,138.7,408.4,158.5
		C408.5,158.5,408.4,158.5,408.4,158.5z"/>
	<path class="st0" d="M212.8,123.1c-4.6-2-9.5-3-15.1-3l-24.5,0c-4.2,0-7.5,3.2-7.5,7.1c0,3.9,3.4,7.1,7.5,7.1h25.9
		c5.5,0,9.9,1.8,13.1,5.1c1,1,1.8,2.3,3,4.8h-31.5c-18.4,0.2-33.4,15.1-33.4,33.3c0,18.2,15.1,33.1,33.8,33.2h40.9
		c4.2,0,7.6-3.3,7.6-7.4v-44.3c0-11-4.3-21.4-8.2-26.4C219.9,126.8,217.3,125.1,212.8,123.1z M216.2,196.4h-32.3
		c-10.7,0-19.4-8.5-19.4-19c0-10.7,8.7-19,19.9-19.1h31.8L216.2,196.4z"/>
	<path class="st0" d="M104.5,120c-5.1,0-10,1-14.6,3c-4.2,1.9-9,4.7-11.9,8.4c0,0,0,0-0.1,0c0,0,0,0-0.1,0
		c-2.9-3.7-7.7-6.5-11.9-8.4c-4.6-2-9.4-3-14.6-3c-9.2,0.2-16.9,3.2-22.8,8.8c-5.9,5.6-8.9,12.7-9.1,21v53.4c0,4.1,3.4,7.4,7.6,7.4
		c4.2,0,7.5-3.3,7.5-7.4v-49.7c0.1-5.9,1.6-10.6,4.7-14c3-3.5,7.2-5.2,12.8-5.3c5.5,0,10,1.7,13.2,5.1c3.3,3.4,5,9.1,5.1,16.8v47.1
		c0,4,3.3,7.3,7.4,7.4v0c0,0,0.1,0,0.1,0c0,0,0.1,0,0.1,0v0c4.2-0.1,7.4-3.4,7.4-7.4V156c0.1-7.7,1.8-13.4,5.1-16.8
		c3.2-3.4,7.7-5.1,13.3-5.1c5.5,0.1,9.7,1.8,12.8,5.3c3,3.4,4.6,8.1,4.7,14v49.7c0,4.1,3.4,7.4,7.5,7.4c4.2,0,7.6-3.3,7.6-7.4v-53.4
		c-0.2-8.3-3.2-15.4-9.1-21C121.4,123.1,113.8,120.2,104.5,120z"/>
	<path class="st0" d="M315.8,79.7c-4.2,0-7.5,3.3-7.5,7.9v32.5h-21.6c-11.5,0-22,4.8-29.8,13.5c-7.6,8.5-11.8,19.7-11.8,31.6
		c0,25,18.6,45.4,41.4,45.4h29.4c4.2,0,7.6-3.3,7.6-7.4v-2.7v-70.9V87.1C323.5,83.1,320.1,79.7,315.8,79.7z M308.3,195.8l-21.8,0
		c-14.6,0-26.4-13.7-26.4-30.6c0-16.6,11.6-30.3,25.8-30.6l22.4,0V195.8z"/>
</g>
<g>
	<defs>
		<rect id="SVGID_1_" x="-5784.5" y="-2713.9" width="15094.6" height="11550.3"/>
	</defs>
	<clipPath id="SVGID_2_">
		<use xlink:href="#SVGID_1_"  style="overflow:visible;"/>
	</clipPath>
</g>
<g>
	<defs>
		<rect id="SVGID_3_" x="-5784.5" y="-2713.9" width="15094.6" height="11550.3"/>
	</defs>
	<clipPath id="SVGID_4_">
		<use xlink:href="#SVGID_3_"  style="overflow:visible;"/>
	</clipPath>
</g>
</svg>
