<?xml version="1.0" encoding="utf-8"?>
<!-- Generator: Adobe Illustrator 19.2.1, SVG Export Plug-In . SVG Version: 6.00 Build 0)  -->
<svg version="1.1" id="Layer_1" xmlns="http://www.w3.org/2000/svg" xmlns:xlink="http://www.w3.org/1999/xlink" x="0px" y="0px"
	 viewBox="0 0 300 300" style="enable-background:new 0 0 300 300;" xml:space="preserve">
<style type="text/css">
	.st0{fill-rule:evenodd;clip-rule:evenodd;}
</style>
<g>
	<path d="M245.3,80.9v11.7c0,0.3-0.3,0.8-1,1.5c-1.3,0.7-2.1,1.1-2.4,1.5l-91.8,53.7c0,0.3-0.3,0.5-1,0.5l-0.5-0.5L53.9,95.5
		c-0.7-0.6-1-1.1-1-1.5V80.9c0-4.2,2.1-6.3,6.3-6.3h179.7C243.2,74.5,245.3,76.6,245.3,80.9z M55.3,198.5c0,0.3-0.3,0.5-1,0.5h-0.5
		c-0.7-0.6-1-1.1-1-1.5V116c0-0.6,0.2-1.1,0.5-1.5h2l54.2,31.2c0.6,0,1,0.3,1,1c0,0.7-0.2,1.1-0.5,1.5L55.3,198.5z M238.4,221
		c0.3,0.3,0.3,1,0,2c0,0.7-0.5,1-1.5,1H59.2c-0.3,0-1.5-0.3-3.4-1c0-0.3-0.2-0.6-0.5-1v-0.5c0-0.6,0.2-1.1,0.5-1.5l69.3-64
		c1-0.6,1.6-0.8,2-0.5l18.1,10.7c2.9,1.3,5.7,1.1,8.3-0.5l20.5-12.2c1,0,1.6,0.2,2,0.5L238.4,221z M245.3,114.6V201
		c0,1-0.3,1.5-1,1.5l-0.5,0.5c-0.7-0.3-1.1-0.5-1.5-0.5l-51.8-56.2l-0.5-1v-0.5l1-1l51.8-30.3c0.6-0.3,1.1-0.3,1.5,0
		C245,113.6,245.3,113.9,245.3,114.6z"/>
</g>
<g>
	<defs>
		<rect id="SVGID_1_" x="-6580.5" y="-3917.1" width="15094.6" height="11550.3"/>
	</defs>
	<clipPath id="SVGID_2_">
		<use xlink:href="#SVGID_1_"  style="overflow:visible;"/>
	</clipPath>
</g>
<g>
	<defs>
		<rect id="SVGID_3_" x="-6580.5" y="-3917.1" width="15094.6" height="11550.3"/>
	</defs>
	<clipPath id="SVGID_4_">
		<use xlink:href="#SVGID_3_"  style="overflow:visible;"/>
	</clipPath>
</g>
</svg>
