<?xml version="1.0" encoding="utf-8"?>
<!-- Generator: Adobe Illustrator 19.2.1, SVG Export Plug-In . SVG Version: 6.00 Build 0)  -->
<svg version="1.1" id="Layer_1" xmlns="http://www.w3.org/2000/svg" xmlns:xlink="http://www.w3.org/1999/xlink" x="0px" y="0px"
	 viewBox="0 0 1200 300" style="enable-background:new 0 0 1200 300;" xml:space="preserve">
<style type="text/css">
	.st0{fill-rule:evenodd;clip-rule:evenodd;}
</style>
<g>
	<path class="st0" d="M950.2,117c-11.1,0.1-20.3,3.7-27.3,10.5c-7,6.8-10.6,16.2-10.9,27.9v45c0,4.1,3.4,7.4,7.6,7.4
		c4.2,0,7.5-3.3,7.5-7.4v-45c0.2-7.2,2.5-13.1,6.8-17.5c4.4-4.4,9.8-6.7,16.1-6.8c6.4,0.1,11.8,2.4,16.2,6.8
		c4.4,4.4,6.7,10.3,6.9,17.4v45.1c0,4.1,3.4,7.4,7.5,7.4h0.1c4.2,0,7.6-3.3,7.6-7.4v-45c-0.2-11.6-3.9-21-10.9-27.9
		C970.5,120.7,961.3,117.2,950.2,117z"/>
	<path class="st0" d="M830.2,117c-4.2,0-7.6,3.3-7.6,7.4v45.1c-0.2,7.2-2.5,13.1-6.8,17.5c-4.4,4.4-9.8,6.7-16.1,6.8
		c-6.4-0.1-11.8-2.4-16.2-6.8c-4.4-4.4-6.7-10.3-6.8-17.5v-45.1c0-4.1-3.4-7.4-7.5-7.4H769c-4.1,0-7.5,3.3-7.5,7.4v45.1
		c0.2,11.7,3.9,21.1,10.9,27.9c7,6.9,16.2,10.4,27.3,10.6c11.1-0.1,20.3-3.7,27.3-10.6c7-6.9,10.6-16.3,10.9-28v-45.1
		C837.8,120.3,834.5,117,830.2,117z"/>
	<path class="st0" d="M642.8,193.3H616c-14.2-0.3-25.8-14.1-25.8-30.6c0-16.9,11.8-30.6,26.4-30.6h26c4.2,0,7.5-3.3,7.5-7.4
		c0-4.1-3.4-7.4-7.5-7.4h-26c-22.8,0-41.4,20.3-41.4,45.4c0,11.9,4.2,23.1,11.8,31.7c7.8,8.8,18.3,13.6,29.7,13.6h0.1h26
		c4.2,0,7.6-3.3,7.6-7.3C650.3,196.6,646.9,193.3,642.8,193.3z"/>
	<path class="st0" d="M706.6,117.3l-4.6,0h-1.3l-11.8,0c0,0-0.1,0-0.1,0h-5.2v-5.2V95.7v-8.6c0-4.1-3.4-7.4-7.6-7.4
		c-4.2,0-7.5,3.3-7.5,7.9v113.3c0,3.6,3.4,7,7.6,7c4.2,0,7.5-3.3,7.5-7.4l0-68.4h22.9c6.4,0.1,11.8,1.8,16.2,6.2
		c4.4,4.4,6.7,9.8,6.8,17v45.2c0,4.1,3.4,7.4,7.5,7.4h0.1c4.1,0,7.6-3.3,7.6-7.4v-45.1c-0.2-11.7-3.9-20.6-10.9-27.5
		C726.9,121,717.7,117.4,706.6,117.3z"/>
	<path class="st0" d="M889.9,131.8c4.2,0,7.5-4,7.5-7.8c0-3.8-3.4-7-7.5-7h-6.2h-8.2h-5.1V86.8c0-4.2-3.5-7.6-7.7-7.6
		s-7.7,3.4-7.7,7.6V175c0,12.4,6.2,22.7,17.5,28.5c8,4.1,15.8,4.5,16.6,4.6c4.2,0.2,7.8-3.1,8-7.3c0.2-4.2-3.1-7.7-7.4-7.9
		c-0.2,0-5.5-0.3-10.5-3c-5.9-3.2-8.8-8.4-8.8-14.9v-43.2H889.9z"/>
	<path class="st0" d="M1182,124.5c0-4.1-3.4-7.4-7.6-7.4c-4.2,0-7.5,3.3-7.5,7.4v44.5c-0.2,7.2-2.5,13.1-6.9,17.5
		c-4.4,4.4-9.8,6.7-16.1,6.8c-6.4-0.1-11.8-2.4-16.2-6.8c-4.4-4.4-6.7-10.3-6.8-17.5v-44.5c0-4.1-3.4-7.4-7.6-7.4
		c-4.2,0-7.5,3.3-7.5,7.4v44.5c0.2,11.7,3.9,21.1,10.9,27.9c7,6.9,16.2,10.4,27.3,10.6c8.7-0.1,16.1-2.3,23.5-7
		c-0.1,8-1.9,13.9-5.5,17.6c-3,3.2-5.4,5.1-12,5.1l-24.2,0c-4.2,0-7.6,3.2-7.6,7.1c0,3.9,3.4,7.1,7.6,7.1h23.8
		c12.2,0,20-6.7,24.5-12.4c4-5,8.2-15.4,8.2-26.4L1182,124.5z"/>
	<path class="st0" d="M1047.1,116.2c-21.6,0-43.4,15.6-43.4,45.5c0,22.9,14,47.3,53.4,47.3c7.6,0,13.7-1.2,22.1-4.3
		c11-4.1,4.1-15.1-2.7-13.1c-7.7,2.3-12.8,3.6-20.2,3.6c-20.4,0-33.2-8.1-36.1-22.7h61.8c6.4,0,9.4-3.6,9.4-8.6
		C1091.3,131.1,1068.3,116.2,1047.1,116.2z M1076.2,158.5l-57.5,0c0.5-19.8,15-28.8,28.4-28.8
		C1060.9,129.7,1075.7,138.7,1076.2,158.5C1076.2,158.5,1076.2,158.5,1076.2,158.5z"/>
	<path class="st0" d="M219.7,123.1c-4.6-2-9.5-3-15.1-3l-24.5,0c-4.2,0-7.5,3.2-7.5,7.1c0,3.9,3.4,7.1,7.5,7.1H206
		c5.5,0,9.9,1.8,13.1,5.1c1,1,1.8,2.3,3,4.8h-31.5c-18.4,0.2-33.4,15.1-33.4,33.3c0,18.2,15.1,33.1,33.8,33.2h40.9
		c4.2,0,7.6-3.3,7.6-7.4v-44.3c0-11-4.3-21.4-8.2-26.4C226.7,126.8,224.1,125.1,219.7,123.1z M222.1,196.4h-31.3
		c-10.7,0-19.4-8.5-19.4-19c0-10.7,8.7-19,19.9-19.1h30.9L222.1,196.4z"/>
	<path class="st0" d="M419.4,119.9h-29.4c-22.8,0-41.4,20.3-41.4,45.4c0,11.9,4.2,23.1,11.8,31.6c7.8,8.7,18.3,13.5,29.8,13.5h21.8
		c-1.1,4.5-3.4,8.1-5.3,10.1c-3,3.2-7.1,4.9-11.9,5.1l-24.3,0c-4.2,0-7.5,3.2-7.5,7.1c0,3.9,3.4,7.1,7.5,7.1h24.7h0
		c4.1-0.3,8.1-1.2,12-3c4.4-2,7-3.7,11.5-9.4c3.9-5,8.2-15.4,8.2-26.4v-73.6C426.9,123.2,423.5,119.9,419.4,119.9z M412.9,195.9
		l-23.6,0c-14.2-0.3-25.8-14.1-25.8-30.6c0-16.9,11.8-30.6,26.4-30.6l23,0V195.9z"/>
	<path class="st0" d="M295.4,120c-11.1,0.1-20.3,3.7-27.3,10.5c-7,6.8-10.7,16.2-10.9,27.8v44.9c0,4.1,3.4,7.4,7.6,7.4
		c4.2,0,7.5-3.3,7.5-7.4v-44.9c0.2-7.2,2.5-13,6.8-17.4c4.4-4.4,9.8-6.7,16.1-6.8c6.4,0.1,11.8,2.4,16.2,6.8
		c4.3,4.4,6.7,10.2,6.8,17.4v44.9c0,4.1,3.4,7.4,7.5,7.4h0.1c4.2,0,7.5-3.3,7.5-7.4v-44.9c-0.2-11.6-3.9-20.9-10.9-27.8
		C315.6,123.7,306.5,120.1,295.4,120z"/>
	<path class="st0" d="M487.6,118.6c-24.9,0-45.2,20.9-45.2,46.5c0,25.6,20.3,46.5,45.2,46.5c24.9,0,45.2-20.9,45.2-46.5
		C532.8,139.4,512.5,118.6,487.6,118.6z M487.6,195.9c-16.2,0-29.4-13.8-29.4-30.9s13.2-30.9,29.4-30.9c16.2,0,29.4,13.8,29.4,30.9
		S503.8,195.9,487.6,195.9z"/>
	<path class="st0" d="M112.1,120c-5.1,0-10,1-14.6,3c-4.2,1.9-9,4.7-11.9,8.4c0,0,0,0-0.1,0c0,0,0,0-0.1,0
		c-2.9-3.7-7.7-6.5-11.9-8.4c-4.6-2-9.4-3-14.6-3c-9.2,0.2-16.9,3.2-22.8,8.8c-5.9,5.6-8.9,12.7-9.1,21v53.4c0,4.1,3.4,7.4,7.6,7.4
		c4.2,0,7.5-3.3,7.5-7.4v-49.7c0.1-5.9,1.6-10.6,4.7-14c3-3.5,7.2-5.2,12.8-5.3c5.5,0,10,1.7,13.2,5.1c3.3,3.4,5,9.1,5.1,16.8v47.1
		c0,4,3.3,7.3,7.4,7.4v0c0,0,0.1,0,0.1,0c0,0,0.1,0,0.1,0v0c4.2-0.1,7.4-3.4,7.4-7.4V156c0.1-7.7,1.8-13.4,5.1-16.8
		c3.2-3.4,7.7-5.1,13.3-5.1c5.5,0.1,9.7,1.8,12.8,5.3c3,3.4,4.6,8.1,4.7,14v49.7c0,4.1,3.4,7.4,7.5,7.4c4.2,0,7.6-3.3,7.6-7.4v-53.4
		c-0.2-8.3-3.2-15.4-9.1-21C129,123.1,121.3,120.2,112.1,120z"/>
</g>
<g>
	<defs>
		<rect id="SVGID_1_" x="-6601.5" y="-2713.9" width="15094.6" height="11550.3"/>
	</defs>
	<clipPath id="SVGID_2_">
		<use xlink:href="#SVGID_1_"  style="overflow:visible;"/>
	</clipPath>
</g>
<g>
	<defs>
		<rect id="SVGID_3_" x="-6601.5" y="-2713.9" width="15094.6" height="11550.3"/>
	</defs>
	<clipPath id="SVGID_4_">
		<use xlink:href="#SVGID_3_"  style="overflow:visible;"/>
	</clipPath>
</g>
</svg>
