<?xml version="1.0" encoding="utf-8"?>
<!-- Generator: Adobe Illustrator 19.2.1, SVG Export Plug-In . SVG Version: 6.00 Build 0)  -->
<svg version="1.1" id="Layer_1" xmlns="http://www.w3.org/2000/svg" xmlns:xlink="http://www.w3.org/1999/xlink" x="0px" y="0px"
	 viewBox="0 0 300 300" style="enable-background:new 0 0 300 300;" xml:space="preserve">
<style type="text/css">
	.st0{fill-rule:evenodd;clip-rule:evenodd;}
</style>
<path class="st0" d="M258.4,110.2l-42.3,42.7c-5.5,5.5-14.3,5.5-19.7,0c-5.5-5.5-5.5-14.4,0-19.9l17.5-17.7
	c-14.4-0.6-71.6,1.1-92.8,61c-2.1,5.8-7.5,9.3-13.3,9.3c-1.6,0-3.1-0.3-4.7-0.8c-7.3-2.6-11.1-10.6-8.5-18
	c23.9-67.4,86.2-82.6,120.8-79.8l-18.9-18.6c-5.5-5.5-5.5-14.4,0-19.9c5.5-5.5,14.3-5.5,19.7,0l42.2,41.7c2.6,2.6,4.1,6.2,4.1,10
	C262.5,104,261,107.5,258.4,110.2 M65.6,86.9v126.5c0,7.8,6.3,14.1,14.1,14.1h140.6c7.8,0,14.1-6.3,14.1-14.1v-42.2h28.1v56.2
	c0,15.5-12.6,28.1-28.1,28.1H65.6c-15.5,0-28.1-12.6-28.1-28.1V72.8c0-15.5,12.6-28.1,28.1-28.1h70.3v28.1H79.7
	C71.9,72.8,65.6,79.1,65.6,86.9"/>
<g>
	<defs>
		<rect id="SVGID_1_" x="-7345.5" y="-3250.4" width="15094.6" height="11550.3"/>
	</defs>
	<clipPath id="SVGID_2_">
		<use xlink:href="#SVGID_1_"  style="overflow:visible;"/>
	</clipPath>
</g>
<g>
	<defs>
		<rect id="SVGID_3_" x="-7345.5" y="-3250.4" width="15094.6" height="11550.3"/>
	</defs>
	<clipPath id="SVGID_4_">
		<use xlink:href="#SVGID_3_"  style="overflow:visible;"/>
	</clipPath>
</g>
</svg>
