<svg id="Layer_1" data-name="Layer 1" xmlns="http://www.w3.org/2000/svg" viewBox="0 0 300 300"><defs><style>.cls-1{fill-rule:evenodd;}</style></defs><title>FontTristan</title><path class="cls-1" d="M258.4088,110.18l-42.2894,42.6971a13.8577,13.8577,0,0,1-19.7248,0,14.1714,14.1714,0,0,1,0-19.9216l17.5176-17.6862c-14.3825-.6467-71.5884,1.1247-92.8456,61.0019a14.0627,14.0627,0,0,1-26.5012-9.42c23.9425-67.3707,86.2238-82.5543,120.8369-79.8268l-18.8952-18.558a14.1713,14.1713,0,0,1,0-19.9215,13.8575,13.8575,0,0,1,19.7247,0l42.177,41.7131a14.1713,14.1713,0,0,1,0,19.9215M65.618,86.87V213.4008A14.0641,14.0641,0,0,0,79.677,227.46h140.59a14.0641,14.0641,0,0,0,14.059-14.059v-42.177h28.1179V227.46a28.11,28.11,0,0,1-28.1179,28.118H65.618A28.11,28.11,0,0,1,37.5,227.46V72.8109A28.1192,28.1192,0,0,1,65.618,44.6929h70.2949V72.8109H79.677A14.0641,14.0641,0,0,0,65.618,86.87"/></svg>