<?xml version="1.0" encoding="utf-8"?>
<!-- Generator: Adobe Illustrator 19.2.1, SVG Export Plug-In . SVG Version: 6.00 Build 0)  -->
<svg version="1.1" id="Layer_1" xmlns="http://www.w3.org/2000/svg" xmlns:xlink="http://www.w3.org/1999/xlink" x="0px" y="0px"
	 viewBox="0 0 300 300" style="enable-background:new 0 0 300 300;" xml:space="preserve">
<style type="text/css">
	.st0{fill-rule:evenodd;clip-rule:evenodd;}
</style>
<path class="st0" d="M235.2,42.5c-5.3-5.3-14-5.3-19.3,0l-20.1,20.1c-2.4,2.4-2.4,6.2,0,8.6l34,34c2.4,2.4,6.2,2.4,8.6,0l20.1-20.1
	c5.3-5.3,5.3-14,0-19.3L235.2,42.5z M188.5,78.5c-2.4-2.4-6.2-2.4-8.6,0L68.6,189.8c-2.4,2.4-2.4,6.2,0,8.6l34,34
	c2.4,2.4,6.2,2.4,8.6,0l111.3-111.3c2.4-2.4,2.4-6.2,0-8.6L188.5,78.5z M62.1,206.5c-1.8-1.8-4.6-1.8-6.4,0
	c-1.3,1.3-17.5,49.6-18.1,51.4c-0.8,3.3,2.2,6.1,5.5,5.4c1.7-0.6,50.1-16.8,51.4-18c1.8-1.8,1.8-4.7,0-6.4L62.1,206.5z"/>
<g>
	<defs>
		<rect id="SVGID_1_" x="-5789.5" y="-3250.4" width="15094.6" height="11550.3"/>
	</defs>
	<clipPath id="SVGID_2_">
		<use xlink:href="#SVGID_1_"  style="overflow:visible;"/>
	</clipPath>
</g>
<g>
	<defs>
		<rect id="SVGID_3_" x="-5789.5" y="-3250.4" width="15094.6" height="11550.3"/>
	</defs>
	<clipPath id="SVGID_4_">
		<use xlink:href="#SVGID_3_"  style="overflow:visible;"/>
	</clipPath>
</g>
</svg>
