<?xml version="1.0" encoding="utf-8"?>
<!-- Generator: Adobe Illustrator 19.2.1, SVG Export Plug-In . SVG Version: 6.00 Build 0)  -->
<svg version="1.1" id="Layer_1" xmlns="http://www.w3.org/2000/svg" xmlns:xlink="http://www.w3.org/1999/xlink" x="0px" y="0px"
	 viewBox="0 0 300 300" style="enable-background:new 0 0 300 300;" xml:space="preserve">
<style type="text/css">
	.st0{fill-rule:evenodd;clip-rule:evenodd;}
</style>
<g>
	<path d="M252,222.3l-29.6,29.6c-3.2,3.2-7.1,5.1-11.8,5.9h-4.1c-32.7,0-68-19.1-105.8-57.4c-38.2-37.8-57.4-74.5-57.4-110
		c0.8-4.7,2.8-8.7,5.9-11.8L78.7,49c2.8-2,5.3-3,7.7-3c3.9,0,6.9,2,8.9,5.9l24.2,44.9c2.4,6.7,1.4,11.8-3,15.4l-10.6,11.2
		c-1.2,1.2-1.8,2.2-1.8,3l1.2,4.1c0.8,3.2,3.5,8.3,8.3,15.4c4.7,7.1,11,14.6,18.9,22.5c18.1,18.1,32.1,27.6,42,28.4
		c0.4,0,1-0.2,1.8-0.6c0.8-0.4,1.2-0.8,1.2-1.2l13-12.4c2.8-2.8,5.9-4.1,9.5-4.1c2.4,0,4.3,0.6,5.9,1.8l43.8,25.4
		c3.2,2,4.9,4.5,5.3,7.7C255.3,216.2,254.3,219.1,252,222.3z"/>
</g>
<g>
	<defs>
		<rect id="SVGID_1_" x="-7739.5" y="-3250.4" width="15094.6" height="11550.3"/>
	</defs>
	<clipPath id="SVGID_2_">
		<use xlink:href="#SVGID_1_"  style="overflow:visible;"/>
	</clipPath>
</g>
<g>
	<defs>
		<rect id="SVGID_3_" x="-7739.5" y="-3250.4" width="15094.6" height="11550.3"/>
	</defs>
	<clipPath id="SVGID_4_">
		<use xlink:href="#SVGID_3_"  style="overflow:visible;"/>
	</clipPath>
</g>
</svg>
