<svg xmlns="http://www.w3.org/2000/svg" viewBox="0 0 300 300"><defs><style>.a{fill-rule:evenodd;}</style></defs><title>plane</title><path class="a" d="M237.49,60.8a6.43,6.43,0,0,0-3.63-1.11,6.25,6.25,0,0,0-3.22.91L62.93,157.36a6.51,6.51,0,0,0-3.22,5.95,6.39,6.39,0,0,0,4,5.54l39.81,16.33L211.29,91.95,124.21,198.68v35.17a6.43,6.43,0,0,0,4.23,6,5.74,5.74,0,0,0,2.22.4A6.26,6.26,0,0,0,135.6,238L160,208.25l45.66,18.65a6.93,6.93,0,0,0,2.42.5,6.55,6.55,0,0,0,3.13-.81,6.48,6.48,0,0,0,3.22-4.54l25.8-154.81A6.53,6.53,0,0,0,237.49,60.8Z"/></svg>