<svg xmlns="http://www.w3.org/2000/svg" viewBox="0 0 300 300"><defs><style>.a{fill-rule:evenodd;}</style></defs><title>FontTristan-01</title><path class="a" d="M78.06358,161.8209q-12.48372,5.20769-12.47372,19.39081v33.1005H39.212a6.467,6.467,0,0,1-4.55636-2.12549A7.32216,7.32216,0,0,1,32.5,206.74722V175.53551q0-5.2003,4.31629-7.09156L77.1033,150q-16.30987-9.45376-16.30987-30.26486,0-14.18806,8.63257-24.11521,8.63507-9.93464,21.1063-9.93217,6.707,0,14.86443,4.72937a54.52323,54.52323,0,0,0-4.79643,22.22645,55.54506,55.54506,0,0,0,10.073,32.15363,55.77566,55.77566,0,0,1-5.75671,4.72935Zm143.39773,19.39081v38.7767a9.41824,9.41824,0,0,1-2.64079,6.61812,8.00878,8.00878,0,0,1-5.99181,2.84057H86.211q-8.15493,0-8.14742-9.45869v-38.7767c0-4.09318,1.59047-6.92881,4.79643-8.51184l35.96572-16.55025L132.73487,150a37.69207,37.69207,0,0,1-14.86443-16.55025A43.41544,43.41544,0,0,1,113.074,112.6436a49.93931,49.93931,0,0,1,1.43543-12.29921,43.70728,43.70728,0,0,1,13.429-21.51138,32.55664,32.55664,0,0,1,43.643.23178q9.58786,8.51418,12.94883,22.22634a42.05941,42.05941,0,0,1,1.92064,11.35247,50.823,50.823,0,0,1-4.31636,19.38588q-5.2815,11.82829-15.34949,17.4971l14.86936,7.09648,34.53038,16.07682A9.145,9.145,0,0,1,221.46131,181.21172ZM267.5,175.53551v31.21171a7.322,7.322,0,0,1-2.15558,5.4395,6.47586,6.47586,0,0,1-4.55637,2.12549H233.44986v-33.1005q0-13.23378-11.98856-19.39081L196.0387,150a17.89009,17.89009,0,0,1-7.19208-5.67621q9.58786-13.70721,9.59286-31.6802a54.00851,54.00851,0,0,0-4.31637-21.753,24.38869,24.38869,0,0,1,15.34467-5.2028q12.46865,0,21.10625,9.93217,8.62752,9.92707,8.63258,24.11521,0,20.34259-15.82973,29.79143L263.18377,168.444Q267.49755,170.33767,267.5,175.53551Z"/></svg>