<?xml version="1.0" encoding="utf-8"?>
<!-- Generator: Adobe Illustrator 19.2.1, SVG Export Plug-In . SVG Version: 6.00 Build 0)  -->
<svg version="1.1" id="Layer_1" xmlns="http://www.w3.org/2000/svg" xmlns:xlink="http://www.w3.org/1999/xlink" x="0px" y="0px"
	 viewBox="0 0 300 300" style="enable-background:new 0 0 300 300;" xml:space="preserve">
<style type="text/css">
	.st0{fill-rule:evenodd;clip-rule:evenodd;}
</style>
<g>
	<path d="M225.8,110.2v4.9c0,28.6-10.2,54.5-30.5,77.6c-20.3,23.1-47.6,34.7-81.8,34.7c-22.1,0-42.3-5.9-60.5-17.6
		c2,0.3,5,0.5,9.3,0.5c18.2,0,34.7-5.7,49.3-17.1c-8.8,0-16.5-2.6-23.2-7.8c-6.7-5.2-11.3-11.7-13.9-19.5c3.2,0.7,5.7,1,7.3,1
		c3.9,0,7.5-0.5,10.7-1.5c-9.1-2-16.7-6.5-22.7-13.7c-6-7.2-9-15.5-9-24.9v-1c4.9,2.9,10.7,4.7,17.6,5.4
		c-11.7-8.5-17.6-19.5-17.6-33.2c0-6.8,1.8-13.3,5.4-19.5c21.2,25.7,48.3,39.4,81.5,41c-0.7-3.9-1-6.8-1-8.8
		c0-11.1,3.8-20.4,11.5-28.1c7.6-7.6,17-11.5,28.1-11.5c11.1,0,20.7,4.1,28.8,12.2c8.8-1.3,17.1-4.4,24.9-9.3
		c-2.9,9.1-8.6,16.3-17.1,21.5c6.8-0.3,14.3-2.3,22.5-5.9C239.7,97.8,233.2,104.6,225.8,110.2z"/>
</g>
<g>
	<defs>
		<rect id="SVGID_1_" x="-6184.5" y="-3917.1" width="15094.6" height="11550.3"/>
	</defs>
	<clipPath id="SVGID_2_">
		<use xlink:href="#SVGID_1_"  style="overflow:visible;"/>
	</clipPath>
</g>
<g>
	<defs>
		<rect id="SVGID_3_" x="-6184.5" y="-3917.1" width="15094.6" height="11550.3"/>
	</defs>
	<clipPath id="SVGID_4_">
		<use xlink:href="#SVGID_3_"  style="overflow:visible;"/>
	</clipPath>
</g>
</svg>
