<svg xmlns="http://www.w3.org/2000/svg" viewBox="0 0 300 300"><title>user-outline</title><path d="M199,131.12h0v0Z"/><path d="M234.36,194.13c-9-9.87-20.74-15.57-33.06-19.46A73.6,73.6,0,0,1,182.89,166a54,54,0,0,1-4.62-3.4l-.77-.65A80.93,80.93,0,0,0,195,134.27l1.24-.78,1.16-.75.61-.47a4,4,0,0,0,1-1.15c4.14-7.34,5.76-12.91,5.77-17.44a14.18,14.18,0,0,0-1.38-6.35,11.71,11.71,0,0,0-4.87-5.08l-.2-.1c0-.2,0-.41,0-.63a84.89,84.89,0,0,0-2.46-20.78h0a41.06,41.06,0,0,0-8.75-15.16c-6.63-7.5-18.19-15-36.26-14.92s-29.64,7.42-36.26,14.92a41.05,41.05,0,0,0-8.75,15.16h0a85.1,85.1,0,0,0-2.46,20.8c0,.22,0,.42,0,.61a12.41,12.41,0,0,0-1.88,1.22,11.64,11.64,0,0,0-3.19,4,14.18,14.18,0,0,0-1.38,6.35c0,4.53,1.64,10.11,5.78,17.46a4.17,4.17,0,0,0,1.1,1.25,14.23,14.23,0,0,0,1.24.85c.57.36,1.18.73,1.62,1a63.37,63.37,0,0,0,4.05,9.07,79.38,79.38,0,0,0,15.06,20.2l.31.29A70.78,70.78,0,0,1,106,174.21a3.46,3.46,0,0,0-3.81,1.26c-11.43,3.87-22.25,9.44-30.62,18.66-9,9.86-14.86,23.79-15.76,43.21a3.48,3.48,0,0,0,2.75,3.57c.17,0,39.25,8.44,94.43,8.44s94.26-8.41,94.43-8.44a3.48,3.48,0,0,0,2.75-3.57C249.22,217.92,243.34,204,234.36,194.13Zm-113.91-48A66,66,0,0,1,113,131.33a3.76,3.76,0,0,0-.67-1.3,5.2,5.2,0,0,0-.87-.86,26.76,26.76,0,0,0-2.39-1.59l-.64-.42c-3.54-6.4-4.59-10.78-4.57-13.48a7.22,7.22,0,0,1,.66-3.26,4.72,4.72,0,0,1,2-2.07l.85-.37.2-.06h0a3.48,3.48,0,0,0,2.79-3.6s0-.22,0-.7,0-1.18,0-2.07a78.46,78.46,0,0,1,2.23-19A34.8,34.8,0,0,1,120,69.9c5.67-6.15,14.88-12.25,30.8-12.29,16.16,0,25.42,6.33,31.06,12.59a37,37,0,0,1,5.75,8.64c.56,1.17.94,2.14,1.17,2.79l.25.73,0,.16h0a78.23,78.23,0,0,1,2.23,19c0,.9,0,1.61,0,2.09s0,.7,0,.7a3.48,3.48,0,0,0,2.85,3.62h0a5.06,5.06,0,0,1,2.07,1.2c.77.8,1.56,1.89,1.59,4.55s-1,7.08-4.58,13.48l-.31.21c-.52.33-1.2.74-1.84,1.16l-1,.72-.6.57a3.8,3.8,0,0,0-.85,1.52,51.74,51.74,0,0,1-3.83,8.73,72.59,72.59,0,0,1-13.67,18.39c-5.9,5.52-12.76,9.32-20.31,9.31a26.13,26.13,0,0,1-14.1-4.44c-.93-.59-1.84-1.23-2.73-1.91l0,0a3.46,3.46,0,0,0-.71-.54A62.64,62.64,0,0,1,120.45,146.18Zm30.38,28.55a33.08,33.08,0,0,0,17.84-5.52c1.25-.8,2.45-1.68,3.61-2.59,1.58,1.47,9,8,22,13a51.27,51.27,0,0,1-83.55.36,75,75,0,0,0,20.94-11.62A33.69,33.69,0,0,0,150.83,174.73ZM86,238.24c-8.23-1-14.75-2.08-19.2-2.85-1.55-.27-2.82-.5-3.86-.7,1.3-16.58,6.43-27.77,13.76-35.87,7.14-7.87,16.58-12.91,27.13-16.55a58.36,58.36,0,0,0,97.25-.3l0,0c10.94,3.66,20.76,8.77,28.12,16.88s12.47,19.3,13.77,35.87c-10,1.88-44.45,7.71-90,7.71A540.41,540.41,0,0,1,86,238.24Z"/></svg>