<svg id="Layer_1" data-name="Layer 1" xmlns="http://www.w3.org/2000/svg" viewBox="0 0 300 300"><defs><style>.cls-1{fill-rule:evenodd;}</style></defs><title>FontTristan</title><path class="cls-1" d="M244.7247,192.2252v51.9282a13.2883,13.2883,0,0,1-3.1361,8.8432,9.711,9.711,0,0,1-7.7065,3.7134H66.112a9.6745,9.6745,0,0,1-7.7006-3.7134,13.2275,13.2275,0,0,1-3.1362-8.8432V192.2252A13.0157,13.0157,0,0,1,62.1189,180.24l47.3638-21.6854L127.74,149.997q-12.5506-7.409-19.9715-22.2507a66.4211,66.4211,0,0,1-6.2723-27.9636,80.056,80.056,0,0,1,2.2792-16.55q4.5614-17.6834,17.4066-28.8207Q134.0186,43.29,149.997,43.29q16.55,0,29.1062,11.6937a59.6839,59.6839,0,0,1,17.1151,29.3918,48.6834,48.6834,0,0,1,2.2851,15.4072,65.477,65.477,0,0,1-5.707,26.25q-7.4268,15.9784-19.9715,23.3933l19.4,9.1288,45.65,21.6854q6.8556,3.4278,6.85,11.9853"/></svg>