<svg id="Layer_1" data-name="Layer 1" xmlns="http://www.w3.org/2000/svg" viewBox="0 0 300 300"><defs><style>.cls-1{fill-rule:evenodd;}</style></defs><title>world</title><path class="cls-1" d="M150,265A110,110,0,1,1,260,155,110,110,0,0,1,150,265M71.62,153.19c7.72-.86,23.7-2,31.24,1.81,13.06,6.65,27.25,22.75,27.25,22.75L98.77,214.13a77.87,77.87,0,0,0,126.52-80.43c-6.4,7.46-19.36,17-19.36,17-11-1.23-5.66,12.38-5.66,12.38,4.64,30.11-11.33,33.82-11.33,33.82C167.18,219.3,150,170.71,150,170.71c-4-27-6.35-35.7-6.35-35.7-27.86-17.41-.41-23.76,5.5-24.77.06,0,.09,0,.17,0,1.41-.2,1.07-.22-.17,0-7.89,1.08-6.38-3.71-11.16-12.38s-10.72,1.48-11.33,0-3.38,16-11.31,18.57-5.66-18.57-5.66-18.57c-15.32,23.46-20.33,17.47-21.94,9.76a78.1,78.1,0,0,0-16.14,45.57"/></svg>