<svg xmlns="http://www.w3.org/2000/svg" viewBox="0 0 300 300"><defs><style>.a{fill-rule:evenodd;}</style></defs><title>youtube</title><path class="a" d="M265.84812,91.87494c-2.94646-13.12481-13.3927-22.76754-25.982-24.24085C210.1339,64.28573,180,64.28573,149.99992,64.28573s-60.13383,0-89.86615,3.34837C47.54458,69.10741,37.232,78.75014,34.28559,91.87494,30,110.49123,30,130.84825,30,150s0,39.50908,4.15172,58.12506c2.94646,13.12512,13.39286,22.76785,25.982,24.24116,29.73233,3.34806,59.8661,3.34806,89.86615,3.34806s60.134,0,89.86615-3.34806c12.58935-1.47331,23.03559-11.116,25.84818-24.24116C270,189.50908,270,169.15175,270,150S270,110.49123,265.84812,91.87494Zm-68.43743,65.35726-68.57161,42.85714a7.88409,7.88409,0,0,1-4.55348,1.33929,9.11692,9.11692,0,0,1-4.15172-1.07124,8.67328,8.67328,0,0,1-4.41961-7.50025V107.14286a8.67277,8.67277,0,0,1,4.41961-7.49994,8.47162,8.47162,0,0,1,8.7052.26773l68.57161,42.85714a8.518,8.518,0,0,1,0,14.46441Z"/></svg>