<?xml version="1.0" standalone="no"?>
<!DOCTYPE svg PUBLIC "-//W3C//DTD SVG 1.1//EN" "http://www.w3.org/Graphics/SVG/1.1/DTD/svg11.dtd" >
<!--
2016-10-20: Created with FontForge (http://fontforge.org)
-->
<svg xmlns="http://www.w3.org/2000/svg" xmlns:xlink="http://www.w3.org/1999/xlink" version="1.1">
<metadata>
Created by FontForge 20161020 at Thu Oct 20 12:13:00 2016
 By Jason Di Benedetto
Copyright (c) 2016, Jason Di Benedetto
</metadata>
<defs>
<font id="tristicons" horiz-adv-x="512" >
  <font-face 
    font-family="tristicons"
    font-weight="400"
    font-stretch="normal"
    units-per-em="512"
    panose-1="2 0 5 3 0 0 0 0 0 0"
    ascent="448"
    descent="-64"
    bbox="33.1094 -8.19238 2017.79 384"
    underline-thickness="25.6"
    underline-position="-51.2"
    unicode-range="U+0020-F113"
  />
    <missing-glyph />
    <glyph glyph-name="space" unicode=" " horiz-adv-x="200" 
 />
    <glyph glyph-name="uniF101" unicode="&#xf101;" 
d="M256 373.077c103.253 0 186.88 -83.627 186.88 -186.88s-83.627 -186.88 -186.88 -186.88s-186.88 83.627 -186.88 186.88s83.627 186.88 186.88 186.88zM342.698 211.968c7.85156 7.85059 7.85156 20.4805 0.170898 28.3311
c-7.85059 7.85059 -20.4795 7.85059 -28.3301 0l-84.9922 -84.9922l-40.1064 40.1064c-6.65625 6.65625 -17.2373 6.48535 -23.7227 0l-4.6084 -4.60742c-6.48535 -6.48535 -6.48535 -17.2373 0 -23.7227l56.4902 -56.4912c6.65625 -6.65625 17.2373 -6.48535 23.7227 0
l3.41406 3.41309z" />
    <glyph glyph-name="uniF104" unicode="&#xf104;" 
d="M378.88 180.395l-176.64 -176.64c-2.73047 -2.73047 -6.14453 -4.09668 -10.0693 -4.09668c-4.4375 0 -8.02148 1.36621 -10.752 4.09668l-39.9365 39.9355c-2.73047 2.73047 -4.0957 6.31445 -4.0957 10.752c0 3.41406 1.36523 6.99805 4.0957 10.752l126.635 125.781
l-126.635 126.977c-2.73047 3.9248 -4.0957 7.50879 -4.0957 10.752c0 3.24219 1.36523 6.99707 4.0957 10.752l39.9365 39.083c2.73047 3.41309 6.31445 4.94922 10.752 4.94922c3.9248 0 7.16797 -1.70703 10.0693 -4.94922l176.64 -176.47
c3.41309 -2.73047 4.94922 -6.31445 4.94922 -10.752c0.170898 -3.92578 -1.53613 -7.50977 -4.94922 -10.9229z" />
    <glyph glyph-name="uniF10F" unicode="&#xf10f;" 
d="M441.003 259.926l-72.1924 -72.875c-9.38672 -9.38672 -24.4053 -9.38672 -33.6211 0c-9.38672 9.38672 -9.38672 24.5762 0 33.9629l29.8662 30.208c-24.5752 1.02344 -122.197 -1.87793 -158.378 -104.107c-3.58398 -9.89844 -12.8008 -15.8721 -22.6992 -15.8721
c-2.73047 0 -5.29004 0.512695 -8.02148 1.36621c-12.458 4.43652 -18.9434 18.0898 -14.5068 30.7197c40.79 115.029 147.115 140.971 206.166 136.191l-32.2559 31.7441c-9.38672 9.38672 -9.38672 24.5762 0 33.9629s24.4053 9.38672 33.6211 0l72.0215 -71.168
c4.4375 -4.4375 6.99707 -10.5811 6.99707 -17.0664s-2.55957 -12.459 -6.99707 -17.0664zM111.957 299.69v-215.894c0 -13.3115 10.752 -24.0635 24.0645 -24.0635h239.957c13.3125 0 24.0645 10.752 24.0645 24.0635v72.0215h47.957v-95.9141
c0 -26.4541 -21.5039 -47.958 -47.957 -47.958h-288.086c-26.4531 0 -47.957 21.5039 -47.957 47.958v263.851c0 26.4531 21.5039 47.957 47.957 47.957h119.979v-47.957h-95.9141c-13.3125 0 -24.0645 -10.752 -24.0645 -24.0645z" />
    <glyph glyph-name="uniF103" unicode="&#xf103;" 
d="M365.738 317.952l-126.635 -126.635l126.635 -125.781c2.73145 -3.92578 4.09668 -7.50977 4.09668 -10.752c0 -4.4375 -1.36523 -8.02148 -4.09668 -10.752l-39.9355 -39.9365c-2.73047 -2.73047 -6.31445 -4.0957 -10.752 -4.0957
c-3.92578 0 -7.16797 1.36523 -10.0693 4.0957l-176.811 176.299c-3.41309 3.41309 -4.94922 6.99707 -4.94922 10.752c0 4.4375 1.70605 8.02148 4.94922 10.752l176.811 176.811c2.73047 3.41406 6.14355 4.94922 10.0693 4.94922
c4.94922 0 8.5332 -1.70605 10.752 -4.94922l39.9355 -39.082c2.73145 -3.92578 4.09668 -7.50977 4.09668 -10.752c0 -3.24316 -1.36523 -6.99805 -4.09668 -10.9229z" />
    <glyph glyph-name="uniF10B" unicode="&#xf10b;" 
d="M413.014 26.1123c0 -14.5068 -11.7764 -26.1123 -26.1123 -26.1123h-261.803c-14.5068 0 -26.1123 11.7764 -26.1123 26.1123v157.013c0 14.5068 11.7764 26.1123 26.1123 26.1123h8.7041v52.3945c0 67.0723 55.125 122.197 122.197 122.197
s122.197 -55.125 122.197 -122.197v-52.3945h8.7041c14.5068 0 26.1123 -11.7764 26.1123 -26.1123v-157.013zM325.803 209.408v52.3945c0 38.4004 -31.4023 69.8027 -69.8027 69.8027s-69.8027 -31.4023 -69.8027 -69.8027v-52.3945h139.605z" />
    <glyph glyph-name="uniF113" unicode="&#xf113;" 
d="M385.365 259.926v-8.36328c0 -48.8105 -17.4082 -93.0127 -52.0537 -132.438c-34.6445 -39.4238 -81.2373 -59.2207 -139.604 -59.2207c-37.7178 0 -72.1924 10.0693 -103.254 30.0371c3.41309 -0.511719 8.5332 -0.853516 15.8721 -0.853516
c31.0615 0 59.2217 9.72852 84.1387 29.1846c-15.0186 0 -28.1602 4.43652 -39.5947 13.3115s-19.2852 19.9678 -23.7227 33.2803c5.46191 -1.19531 9.72852 -1.70703 12.459 -1.70703c6.65625 0 12.7998 0.853516 18.2607 2.56055
c-15.5303 3.41309 -28.501 11.0928 -38.7412 23.3809c-10.2393 12.2881 -15.3594 26.4531 -15.3594 42.4961v1.70703c8.3623 -4.9502 18.2607 -8.02148 30.0371 -9.2168c-19.9678 14.5068 -30.0371 33.2803 -30.0371 56.6621c0 11.6045 3.07129 22.6982 9.21582 33.2793
c36.1816 -43.8613 82.4316 -67.2422 139.093 -69.9727c-1.19434 6.65527 -1.70605 11.6045 -1.70605 15.0186c0 18.9434 6.48535 34.8154 19.627 47.957c12.9707 12.9707 29.0127 19.627 47.957 19.627s35.3281 -6.99805 49.1514 -20.8213
c15.0195 2.21875 29.1846 7.50879 42.4961 15.8721c-4.94922 -15.5312 -14.6768 -27.8193 -29.1836 -36.6934c11.6055 0.511719 24.4053 3.9248 38.4004 10.0693c-9.72852 -13.9951 -20.8213 -25.6006 -33.4512 -35.1572z" />
    <glyph glyph-name="uniF10D" unicode="&#xf10d;" 
d="M418.646 309.931v-19.9678c0 -0.512695 -0.511719 -1.36523 -1.70703 -2.56055c-2.21875 -1.19434 -3.58398 -1.87695 -4.0957 -2.55957l-156.672 -91.6484c0 -0.511719 -0.512695 -0.852539 -1.70703 -0.852539l-0.853516 0.852539l-161.621 91.8193
c-1.19434 1.02344 -1.70703 1.87695 -1.70703 2.55957v22.3574c0 7.16797 3.58398 10.752 10.752 10.752h306.688c7.33887 0.170898 10.9229 -3.41309 10.9229 -10.752zM94.3789 109.227c0 -0.511719 -0.512695 -0.853516 -1.70703 -0.853516h-0.853516
c-1.19434 1.02441 -1.70605 1.87793 -1.70605 2.56055v139.093c0 1.02441 0.34082 1.87793 0.853516 2.56055h3.41309l92.501 -53.248c1.02441 0 1.70703 -0.511719 1.70703 -1.70703c0 -1.19434 -0.341797 -1.87695 -0.853516 -2.55957zM406.869 70.8271
c0.511719 -0.512695 0.511719 -1.70703 0 -3.41406c0 -1.19434 -0.853516 -1.70605 -2.55957 -1.70605h-303.275c-0.511719 0 -2.55957 0.511719 -5.80176 1.70605c0 0.512695 -0.341797 1.02441 -0.853516 1.70703v0.853516c0 1.02344 0.34082 1.87695 0.853516 2.55957
l118.271 109.227c1.70703 1.02441 2.73047 1.36523 3.41309 0.853516l30.8906 -18.2617c4.9502 -2.21777 9.72852 -1.87695 14.166 0.853516l34.9863 20.8213c1.70703 0 2.73047 -0.34082 3.41309 -0.853516zM418.646 252.416v-147.456
c0 -1.70703 -0.511719 -2.55957 -1.70703 -2.55957l-0.853516 -0.853516c-1.19434 0.511719 -1.87695 0.853516 -2.55957 0.853516l-88.4053 95.9141l-0.853516 1.70703v0.853516l1.70703 1.70605l88.4053 51.7119c1.02344 0.512695 1.87695 0.512695 2.55957 0
c1.19531 -0.169922 1.70703 -0.682617 1.70703 -1.87695z" />
    <glyph glyph-name="uniF107" unicode="&#xf107;" 
d="M256 238.763l137.216 137.045l54.7842 -54.7832l-137.216 -137.217l137.216 -137.045l-54.7842 -54.9551l-137.216 137.217l-137.216 -137.217l-54.7842 54.9551l137.216 137.045l-137.216 137.217l54.7842 54.7832z" />
    <glyph glyph-name="uniF10E" unicode="&#xf10e;" 
d="M1621.67 248.32c18.9443 -0.341797 34.6455 -6.31543 46.4209 -17.9199c11.9473 -11.7764 18.2617 -27.8193 18.6025 -47.6162v-76.7998c0 -6.99805 -5.80176 -12.6299 -12.9707 -12.6299h-0.169922c-6.99805 0 -12.7998 5.63184 -12.7998 12.6299v76.9707
c-0.341797 12.1172 -4.26758 22.1865 -11.7764 29.6953c-7.50977 7.50977 -16.7256 11.4346 -27.6484 11.6055c-10.752 -0.170898 -19.9678 -4.0957 -27.4766 -11.6055c-7.33887 -7.50879 -11.2646 -17.5781 -11.6055 -29.8662v-76.7998
c0 -6.99805 -5.63184 -12.6299 -12.8008 -12.6299c-7.16797 0 -12.9697 5.63184 -12.9697 12.6299v76.7998c0.511719 19.9678 6.65527 36.0107 18.6025 47.6162c11.9463 11.6045 27.6475 17.749 46.5918 17.9199zM1416.88 248.32
c7.33789 0 12.9707 -5.63184 13.1406 -12.459v-76.9707c-0.511719 -19.9678 -6.65527 -36.0107 -18.6025 -47.7871c-11.9463 -11.7754 -27.6475 -17.9199 -46.5918 -18.0898c-18.9443 0.34082 -34.6455 6.31445 -46.5918 18.0898
c-11.9473 11.6055 -18.2617 27.6484 -18.6025 47.6162v76.9707c0 6.99805 5.80273 12.6299 12.7998 12.6299h0.34082c6.99805 0 12.8008 -5.63184 12.8008 -12.6299v-76.9707c0.169922 -12.2881 4.0957 -22.3574 11.6045 -29.8662
c7.50977 -7.50977 16.7256 -11.4346 27.6484 -11.6055c10.752 0.170898 19.9678 4.0957 27.4775 11.6055c7.33887 7.50879 11.2637 17.5781 11.6055 29.8662v76.9707c0 6.99805 5.80273 12.6299 12.9707 12.6299zM1097.04 118.102
c6.99805 0 12.8008 -5.63184 12.9707 -12.6299c0 -6.82617 -5.80273 -12.458 -12.9707 -12.458h-44.373h-0.170898c-19.4561 0 -37.376 8.19141 -50.6875 23.21c-12.9707 14.6777 -20.1387 33.792 -20.1387 54.1016c0 42.8379 31.7441 77.4824 70.6562 77.4824h44.373
c6.99707 0 12.7998 -5.63184 12.7998 -12.6289s-5.63184 -12.6289 -12.7998 -12.6289h-44.373c-24.918 0 -45.0566 -23.3818 -45.0566 -52.2246c0 -28.1602 19.7979 -51.7119 44.0322 -52.2236h45.7383zM1205.93 247.808
c18.9443 -0.169922 34.6455 -6.31445 46.4209 -18.0898c11.9473 -11.7764 18.2617 -26.9658 18.6035 -46.9336v-76.9707c0 -6.99707 -5.97363 -12.6299 -12.9707 -12.6299h-0.170898c-6.99707 0 -12.7998 5.63281 -12.7998 12.6299v77.1416
c-0.170898 12.2871 -4.09668 21.5039 -11.6055 29.0127c-7.50977 7.50977 -16.7256 10.4111 -27.6484 10.582h-39.082v-116.736c0 -6.99707 -5.63281 -12.6299 -12.8008 -12.6299s-12.9707 5.80273 -12.9707 11.9473v193.365c0 7.85059 5.63281 13.4824 12.8008 13.4824
s12.9707 -5.63184 12.9707 -12.6289v-14.6777v-27.9893v-8.875h8.87402h0.170898h20.1387h2.21875h7.85059zM1518.76 223.062h-33.2803v-73.7285c0 -11.0928 4.94922 -19.9678 15.0186 -25.4287c8.5332 -4.6084 17.5791 -5.12012 17.9199 -5.12012
c7.33887 -0.341797 12.9707 -6.31445 12.6299 -13.4824c-0.341797 -7.16797 -6.48535 -12.8008 -13.6533 -12.459c-1.36523 0.170898 -14.6777 0.853516 -28.3311 7.85059c-19.2852 9.89844 -29.8662 27.4775 -29.8662 48.6396v150.528
c0 7.16797 5.97266 12.9707 13.1416 12.9707c7.16797 0 13.1406 -5.80273 13.1406 -12.9707v-51.541h8.7041h13.9951h10.5811c6.99707 0 12.7998 -5.46191 12.7998 -11.9473s-5.63184 -13.3115 -12.7998 -13.3115zM2017.28 235.52l0.511719 -126.464
c0 -18.7734 -7.16797 -36.5225 -13.9951 -45.0557c-7.67969 -9.72754 -20.9912 -21.1631 -41.8125 -21.1631h-40.6191c-7.16797 0 -12.9707 5.46191 -12.9707 12.1182c0 6.65527 5.80273 12.1172 12.9707 12.1172h41.3018c11.2637 0 15.3594 3.24219 20.4795 8.7041
c6.14453 6.31445 9.21582 16.3838 9.38672 30.0371c-12.6289 -8.02148 -25.2588 -11.7764 -40.1064 -11.9473c-18.9443 0.341797 -34.6455 6.31543 -46.5918 18.0908c-11.9473 11.6055 -18.2617 27.6484 -18.6025 47.6162v75.9463
c0 6.99805 5.63184 12.6299 12.7998 12.6299s12.9707 -5.63184 12.9707 -12.6299v-75.9463c0.169922 -12.2881 4.0957 -22.3574 11.6055 -29.8662c7.50879 -7.50977 16.7246 -11.4346 27.6475 -11.6055c10.752 0.170898 19.9678 4.0957 27.4775 11.6055
c7.50879 7.50879 11.4346 17.5781 11.7764 29.8662v75.9463c0 6.99805 5.63184 12.6299 12.7998 12.6299s12.9707 -5.63184 12.9707 -12.6299zM1787.05 249.686c36.1816 0 75.4346 -25.4297 75.6055 -81.4082c0 -8.5332 -5.12012 -14.6777 -16.043 -14.6777h-105.472
c4.94922 -24.917 26.7939 -38.7412 61.6104 -38.7412c12.6289 0 21.333 2.21875 34.4746 6.14453c11.6055 3.41309 23.3818 -15.3604 4.6084 -22.3574c-14.3359 -5.29102 -24.7471 -7.33887 -37.7178 -7.33887c-67.2422 0 -91.1357 41.6426 -91.1357 80.7256
c0 51.0293 37.2051 77.6533 74.0693 77.6533zM1836.71 177.493v0c-0.853516 33.792 -26.1123 49.1523 -49.6641 49.1523c-22.8691 0 -47.6162 -15.3604 -48.4697 -49.1523h98.1338zM374.955 237.909c7.50879 -3.41309 11.9463 -6.31445 19.7969 -16.2129
c6.65625 -8.5332 13.9951 -26.2832 13.9951 -45.0566v-75.6055c0 -6.99707 -5.80273 -12.6289 -12.9707 -12.6289h-69.8027c-31.915 0.170898 -57.6855 25.5996 -57.6855 56.6611s25.5996 56.4912 57.0029 56.832h53.7598
c-2.04785 4.2666 -3.41309 6.48535 -5.12012 8.19238c-5.46094 5.63184 -12.9707 8.7041 -22.3574 8.7041h-44.2021c-6.99805 0 -12.8008 5.46094 -12.8008 12.1172s5.63281 12.1172 12.8008 12.1172h41.8125c9.55762 0 17.9199 -1.70703 25.7715 -5.12012zM379.051 112.811
l0.170898 65.0244h-52.7363c-19.1143 -0.170898 -33.9629 -14.3359 -33.9629 -32.5977c0 -17.9199 14.8486 -32.4268 33.1094 -32.4268h53.4189zM715.776 243.371c6.99707 0 12.7998 -5.63281 12.7998 -12.8008v-125.61c0 -18.7734 -7.33887 -36.5225 -13.9951 -45.0557
c-7.67969 -9.72852 -12.1172 -12.6299 -19.626 -16.043c-6.65625 -3.07227 -13.4834 -4.6084 -20.4805 -5.12012v0h-42.1543c-6.99805 0 -12.8008 5.46191 -12.8008 12.1172c0 6.65625 5.63281 12.1172 12.8008 12.1172h41.4717
c8.19238 0.341797 15.1895 3.24316 20.3096 8.7041c3.24219 3.41406 7.16797 9.55762 9.04492 17.2373h-37.2051c-19.627 0 -37.5469 8.19238 -50.8584 23.04c-12.9707 14.5068 -20.1387 33.6221 -20.1387 53.9307c0 42.8379 31.7441 77.4834 70.6553 77.4834h50.1768z
M704.683 113.664v104.448h-39.2529c-24.918 0 -45.0566 -23.3818 -45.0566 -52.2246c0 -28.1602 19.7979 -51.7119 44.0322 -52.2236h40.2773zM504.149 243.2c18.9443 -0.170898 34.4746 -6.31445 46.0801 -17.9199c11.9463 -11.7764 18.2607 -27.6484 18.6025 -47.4453
v-76.6299c0 -6.99707 -5.63184 -12.6289 -12.7998 -12.6289h-0.170898c-6.99707 0 -12.7998 5.63184 -12.7998 12.6289v76.6299c-0.170898 12.2881 -4.2666 22.1865 -11.6055 29.6953c-7.50977 7.50977 -16.7256 11.4355 -27.6484 11.6055
c-10.752 -0.169922 -19.9678 -4.0957 -27.4766 -11.6055c-7.33887 -7.50879 -11.2646 -17.4072 -11.6055 -29.6953v-76.6299c0 -6.99707 -5.63184 -12.6289 -12.7998 -12.6289s-12.9707 5.63184 -12.9707 12.6289v76.6299c0.34082 19.7969 6.65527 35.8398 18.6025 47.4453
c11.9463 11.6055 27.6475 17.749 46.5918 17.9199zM832.171 245.589c42.4961 0 77.1406 -35.498 77.1406 -79.3594c0 -43.6904 -34.6445 -79.3604 -77.1406 -79.3604s-77.1416 35.6699 -77.1416 79.3604s34.6455 79.3594 77.1416 79.3594zM832.171 113.664
c27.6475 0 50.1758 23.5518 50.1758 52.7363c0 29.1836 -22.5283 52.7354 -50.1758 52.7354c-27.6484 0 -50.1758 -23.5518 -50.1758 -52.7354c0 -29.1846 22.5273 -52.7363 50.1758 -52.7363zM191.317 243.2c15.7012 -0.341797 28.8428 -5.29102 38.7412 -14.8486
c10.0693 -9.55664 15.1895 -21.6738 15.5303 -35.8398v-91.1357c0 -6.99707 -5.80176 -12.6289 -12.9697 -12.6289c-6.99805 0 -12.8008 5.63184 -12.8008 12.6289v84.8213c-0.169922 10.0693 -2.90137 18.0908 -8.02148 23.8936
c-5.29004 5.97363 -12.458 8.875 -21.8447 9.04492c-9.55762 0 -17.2373 -2.90137 -22.6992 -8.7041c-5.63184 -5.80273 -8.5332 -15.5303 -8.70312 -28.6719v-80.5547c0 -6.82617 -5.46191 -12.458 -12.6299 -12.6289v0h-0.170898h-0.169922v0
c-6.99805 0.170898 -12.6299 5.80273 -12.6299 12.6289v80.3838c-0.170898 13.1416 -3.07227 22.8701 -8.7041 28.6729c-5.46094 5.80273 -13.1416 8.7041 -22.5273 8.7041c-9.55762 -0.170898 -16.7256 -3.07227 -21.8457 -9.0459
c-5.29102 -5.80273 -7.85059 -13.8242 -8.02148 -23.8936v-84.8213c0 -6.99707 -5.63184 -12.6289 -12.7998 -12.6289s-12.9707 5.63184 -12.9707 12.6289v91.1367c0.34082 14.165 5.46094 26.2822 15.5303 35.8398c10.0693 9.55664 23.2109 14.6768 38.9121 15.0186
c8.875 0 17.0664 -1.70703 24.918 -5.12012c7.16797 -3.24316 15.3594 -8.02148 20.3086 -14.3359h0.170898h0.170898c4.94922 6.31445 13.1416 11.0928 20.3096 14.3359c7.85059 3.41309 16.2129 5.12012 24.917 5.12012z" />
    <glyph glyph-name="uniF108" unicode="&#xf108;" 
d="M442.709 186.197c0 -51.7119 -18.2607 -95.7441 -54.6133 -132.096c-36.3516 -36.3525 -80.3838 -54.6133 -132.096 -54.6133s-95.7441 18.2607 -132.096 54.6133c-36.3525 36.3516 -54.6133 80.3838 -54.6133 132.096s18.2607 95.7441 54.6133 132.096
c36.3516 36.3525 80.3838 54.6133 132.096 54.6133s95.7441 -18.2607 132.096 -54.6133c36.3525 -36.5225 54.6133 -80.5547 54.6133 -132.096zM283.478 186.197l63.3174 62.4639c3.41309 3.41309 3.41309 6.65625 0 10.0693l-18.2617 17.5791
c-0.511719 1.70605 -2.21875 2.55957 -4.94922 2.55957c-1.70703 0 -3.07227 -0.853516 -4.0957 -2.55957l-63.4883 -61.7812l-63.3174 61.6104c-1.19434 1.70703 -2.55957 2.55957 -4.0957 2.55957s-3.41406 -0.852539 -4.94922 -2.55957l-17.5791 -17.5791
c-3.41309 -3.41309 -3.41309 -6.65527 0 -10.0693l63.3174 -62.4639l-63.3174 -63.3174c-1.19434 -0.511719 -1.70703 -1.87695 -1.70703 -4.0957s0.512695 -3.9248 1.70703 -4.94922l17.5791 -18.2617c2.21875 -1.19434 3.9248 -1.70605 4.94922 -1.70605
c1.02344 0 2.73047 0.511719 4.94922 1.70605l62.4639 63.3174l63.3174 -62.4639c1.02441 -1.70605 2.55957 -2.55957 4.0957 -2.55957s3.41406 0.853516 4.94922 2.55957l17.5791 17.5791c1.70703 1.70605 2.55957 3.41309 2.55957 4.94922
c0 2.21875 -0.852539 3.58398 -2.55957 4.0957z" />
    <glyph glyph-name="uniF110" unicode="&#xf110;" 
d="M401.408 375.467l39.7646 -39.7656c9.0459 -9.04492 9.0459 -23.8936 0 -32.9385l-34.3037 -34.3037c-4.0957 -4.09668 -10.5811 -4.09668 -14.6768 0l-58.0273 58.0264c-4.0957 4.0957 -4.0957 10.5811 0 14.6777l34.3047 34.3037
c9.04492 9.04492 23.8926 9.04492 32.9385 0zM321.707 314.026l58.0264 -58.0264c4.0957 -4.0957 4.0957 -10.5811 0 -14.6777l-189.952 -189.951c-4.0957 -4.09668 -10.5811 -4.09668 -14.6777 0l-58.0264 58.0264c-4.0957 4.0957 -4.0957 10.5811 0 14.6768
l189.952 189.952c4.0957 4.09668 10.5811 4.09668 14.6777 0zM105.984 95.5732l55.2959 -55.2959c3.07129 -2.90137 3.07129 -7.85059 0 -10.9229c-2.21875 -2.04785 -84.8213 -29.6963 -87.7227 -30.7197c-5.63184 -1.19434 -10.752 3.58398 -9.38672 9.21582
c1.02344 3.07227 28.6719 85.5039 30.8906 87.7227c3.07227 3.07227 7.85059 3.07227 10.9229 0z" />
    <glyph glyph-name="uniF109" unicode="&#xf109;" 
d="M402.773 341.675c3.41309 -3.41309 4.94922 -7.16797 4.94922 -11.6055v-273.408c0 -4.4375 -1.70703 -8.3623 -4.94922 -11.6055c-3.24316 -3.24219 -7.16797 -4.94922 -11.6055 -4.94922h-78.3359v118.272h39.9355l5.80273 46.5918h-45.9092v30.0371
c0 15.0186 7.85059 22.5283 23.3818 22.5283h24.2344v40.7891c-8.3623 1.70703 -20.3096 2.56055 -35.8398 2.56055c-17.749 0 -32.0859 -5.46191 -42.8379 -16.2139s-16.2129 -25.9414 -16.2129 -45.3975v-34.1328h-40.1064v-46.5918h39.9355v-118.272h-147.456
c-4.4375 0 -8.3623 1.70703 -11.6055 4.94922c-3.24219 3.24316 -4.94922 7.16797 -4.94922 11.6055v273.237c0 4.4375 1.70703 8.3623 4.94922 11.6055c3.41406 3.41309 7.16797 4.94922 11.6055 4.94922h273.408c4.4375 0 8.3623 -1.70703 11.6055 -4.94922z" />
    <glyph glyph-name="uniF105" unicode="&#xf105;" 
d="M442.026 124.074l-39.9355 -39.082c-2.73047 -3.41309 -6.14453 -4.94922 -10.0693 -4.94922c-4.94922 0 -8.7041 1.70605 -10.752 4.94922l-126.806 125.781l-126.635 -125.781c-2.21875 -3.41309 -5.80273 -4.94922 -10.752 -4.94922
c-3.9248 0 -7.16797 1.70605 -10.0693 4.94922l-39.9355 39.082c-2.73047 2.73145 -4.09668 6.31543 -4.09668 10.7529c0 3.41309 1.36621 6.99707 4.09668 10.752l176.469 176.128c3.41406 3.41309 6.99805 4.94922 10.752 4.94922
c3.92578 0 7.50977 -1.70703 10.752 -4.94922l176.641 -175.787c2.73047 -3.9248 4.0957 -7.50879 4.0957 -10.752c0.341797 -4.6084 -1.02344 -8.19238 -3.75488 -11.0938z" />
    <glyph glyph-name="uniF10A" unicode="&#xf10a;" 
d="M256 384c105.984 0 192 -86.0156 192 -192s-86.0156 -192 -192 -192s-192 86.0156 -192 192s86.0156 192 192 192zM256 336.043c-31.0615 0 -59.7334 -10.0693 -83.2852 -26.7949l34.6455 -34.6455c14.165 8.36328 30.8906 13.3125 48.6396 13.3125
s34.3037 -4.7793 48.6396 -13.3125l34.6455 34.6455c-23.5518 16.7256 -52.2236 26.7949 -83.2852 26.7949zM303.957 192c0 2.55957 -0.34082 4.94922 -0.682617 7.33887c-3.24219 20.6504 -19.4561 36.6934 -39.9355 39.9355
c-2.38965 0.341797 -4.7793 0.682617 -7.33887 0.682617s-4.94922 -0.169922 -7.33887 -0.682617c-20.6504 -3.24219 -36.6934 -19.4561 -39.9355 -39.9355c-0.341797 -2.38965 -0.682617 -4.7793 -0.682617 -7.33887s0.169922 -4.94922 0.682617 -7.33887
c3.24219 -20.6504 19.4561 -36.6934 39.9355 -39.9355c2.38965 -0.341797 4.7793 -0.682617 7.33887 -0.682617s4.94922 0.169922 7.33887 0.682617c20.6504 3.24219 36.6934 19.4561 39.9355 39.9355c0.341797 2.38965 0.682617 4.7793 0.682617 7.33887zM111.957 192
c0 -31.0615 10.0693 -59.7334 26.7949 -83.2852l34.6455 34.6455c-8.36328 14.165 -13.3125 30.8906 -13.3125 48.6396s4.7793 34.3037 13.3125 48.6396l-34.6455 34.6455c-16.8955 -23.5518 -26.7949 -52.2236 -26.7949 -83.2852zM256 47.957
c31.0615 0 59.7334 10.0693 83.2852 26.7949l-34.6455 34.6455c-14.165 -8.36328 -30.8906 -13.3125 -48.6396 -13.3125s-34.3037 4.94922 -48.6396 13.3125l-34.6455 -34.6455c23.5518 -16.8955 52.2236 -26.7949 83.2852 -26.7949zM373.248 108.715l-34.6455 34.6455
c8.36328 14.3359 13.3125 30.8906 13.3125 48.6396s-4.94922 34.4746 -13.3125 48.6396l34.6455 34.6455c16.7256 -23.5518 26.7949 -52.2236 26.7949 -83.2852s-10.0693 -59.7334 -26.7949 -83.2852z" />
    <glyph glyph-name="uniF10C" unicode="&#xf10c;" 
d="M1299.46 229.718c11.9463 -11.6055 18.2617 -26.9658 18.4316 -46.9336v-76.9707c0 -6.99707 -5.97266 -12.6299 -12.9707 -12.6299h-0.169922c-6.99805 0 -12.8008 5.63281 -12.8008 12.6299v77.1416c-0.169922 12.2871 -4.0957 21.5039 -11.6045 29.0127
c-7.50977 7.50977 -16.7256 10.4111 -27.6484 10.582h-39.083v-116.736c0 -6.99707 -5.63184 -12.6299 -12.7998 -12.6299s-12.9707 5.80273 -12.9707 11.9473v193.365c0 7.85059 5.63184 13.4824 12.7998 13.4824s12.9707 -5.63184 12.9707 -12.6289v-14.6777v-27.9893
v-8.875h8.875h0.170898h20.1387h2.21875h7.85059c18.9434 -0.34082 34.6455 -6.31445 46.5918 -18.0898zM1052.16 243.029c7.33887 0 13.1416 -5.63184 13.1416 -12.6289v-124.587c0 -6.99707 -5.80273 -12.6299 -12.9707 -12.6299s-12.9707 5.80273 -12.9707 11.9473
v124.416c0 7.85059 5.63184 13.4824 12.7998 13.4824zM1155.58 223.062h-33.2803v-73.7285c0 -11.0928 4.94922 -19.9678 15.0186 -25.4287c8.53418 -4.6084 17.5791 -5.12012 17.9199 -5.12012c7.33887 -0.341797 12.9707 -6.31445 12.6299 -13.4824
c-0.341797 -7.16797 -6.48535 -12.8008 -13.6533 -12.459c-1.36523 0.170898 -14.6777 0.853516 -28.3311 7.85059c-19.2852 9.89844 -29.8662 27.4775 -29.8662 48.6396v150.528c0 7.16797 5.80273 12.9707 13.1416 12.9707c7.16797 0 13.1406 -5.80273 13.1406 -12.9707
v-51.541h8.7041h13.9951h10.5811c6.99707 0 12.7998 -5.46191 12.7998 -11.9473s-5.63184 -13.3115 -12.7998 -13.3115zM995.669 243.2c7.16797 0 12.9707 -5.63184 13.1416 -12.6299v-91.1357c-0.34082 -14.165 -5.46094 -26.2822 -15.5303 -35.8398
s-23.2109 -14.6777 -38.9121 -15.0186c-8.875 0 -17.0664 1.70605 -24.918 5.12012c-7.16797 3.24219 -15.3594 8.02148 -20.3086 14.3359h-0.170898h-0.170898c-4.94922 -6.31445 -13.1416 -11.0938 -20.3096 -14.3359
c-7.85059 -3.41406 -16.2129 -5.12012 -24.917 -5.12012c-15.8721 0.511719 -28.8428 5.46094 -38.9121 15.0186s-15.1895 21.6748 -15.5303 35.8398v91.1357c0 6.99805 5.80273 12.6299 12.9707 12.6299c6.99707 0 12.7998 -5.63184 12.7998 -12.6299v-84.8213
c0.170898 -10.0693 2.90137 -18.0908 8.02148 -23.8926c5.29004 -5.97363 12.458 -8.875 21.8447 -9.0459c9.55762 0 17.2373 2.90137 22.6992 8.7041c5.63184 5.80273 8.5332 15.5303 8.7041 28.6719v80.3838c0 6.82715 5.46094 12.459 12.6289 12.6299v0h0.170898
h0.170898v0c6.99707 -0.170898 12.6289 -5.80273 12.6289 -12.6299v-80.3838c0.170898 -13.1416 3.07227 -22.8691 8.7041 -28.6719c5.46094 -5.80273 13.1416 -8.7041 22.5283 -8.7041c9.55664 0.170898 16.7246 3.07227 21.8447 9.0459
c5.29102 5.80176 7.85059 13.8232 8.02148 23.8926v84.8213c0 6.99805 5.63184 12.6299 12.7998 12.6299zM647.339 249.686c36.1807 0 75.4346 -25.4297 75.6055 -81.4082c0 -8.5332 -5.12012 -14.6777 -16.043 -14.6777h-105.472
c4.94922 -24.917 26.7939 -38.7412 61.6104 -38.7412c12.6289 0 21.333 2.21875 34.4746 6.14453c11.6055 3.41309 23.3818 -15.3604 4.6084 -22.3574c-14.3359 -5.29102 -24.7471 -7.33887 -37.7178 -7.33887c-67.2422 0 -91.1357 41.6426 -91.1357 80.7256
c0 51.0293 37.2051 77.6533 74.0693 77.6533zM697.003 177.493c0 0 0.169922 0 0 0c-0.853516 33.792 -26.1123 49.1523 -49.6641 49.1523c-22.8691 0 -47.6162 -15.3604 -48.4697 -49.1523h98.1338zM363.179 237.909c7.67969 -3.41309 12.1172 -6.31445 19.7969 -16.2129
c6.65625 -8.5332 13.9951 -26.2832 13.9951 -45.0566v-75.6055c0 -6.99707 -5.80273 -12.6289 -12.9707 -12.6289h-69.8027c-31.915 0.170898 -57.6855 25.5996 -57.6855 56.6611s25.6006 56.4912 57.0029 56.832h53.7598
c-2.04785 4.2666 -3.41309 6.48535 -5.12012 8.19238c-5.46094 5.63184 -12.9707 8.7041 -22.3574 8.7041h-44.2021c-6.99707 0 -12.7998 5.46094 -12.7998 12.1172s5.63184 12.1172 12.7998 12.1172h41.8135c9.55762 0 17.9199 -1.70703 25.7705 -5.12012zM368.981 112.811
v65.0244h-54.2725c-19.1143 -0.170898 -33.9619 -14.3359 -33.9619 -32.5977c0 -17.9199 14.8477 -32.4268 33.1094 -32.4268h55.125zM178.347 243.2c15.8721 -0.341797 28.8428 -5.29102 38.7412 -14.8486c10.0693 -9.55664 15.1895 -21.6738 15.5312 -35.8398v-91.1357
c0 -6.99707 -5.80273 -12.6289 -12.9707 -12.6289c-6.99805 0 -12.8008 5.63184 -12.8008 12.6289v84.8213c-0.169922 10.0693 -2.90137 18.0908 -8.02051 23.8936c-5.29102 5.97363 -12.459 8.875 -21.8457 9.04492c-9.55762 0 -17.2373 -2.90137 -22.6992 -8.7041
c-5.63184 -5.80273 -8.5332 -15.5303 -8.70312 -28.6719v-80.5547c0 -6.82617 -5.46191 -12.458 -12.6299 -12.6289v0h-0.170898h-0.169922v0c-6.99805 0.170898 -12.6299 5.80273 -12.6299 12.6289v80.3838c-0.170898 13.1416 -3.07227 22.8701 -8.7041 28.6729
c-5.46094 5.80273 -13.1406 8.7041 -22.5273 8.7041c-9.55762 -0.170898 -16.7256 -3.07227 -21.8457 -9.0459c-5.29102 -5.80273 -7.85059 -13.8242 -8.02148 -23.8936v-84.8213c0 -6.99707 -5.63184 -12.6289 -12.7998 -12.6289s-12.9707 5.63184 -12.9707 12.6289
v91.1367c0.34082 14.165 5.46094 26.2822 15.5303 35.8398c10.0693 9.55664 23.2109 14.6768 38.9121 15.0186c8.875 0 17.0674 -1.70703 24.918 -5.12012c7.16797 -3.24316 15.3594 -8.02148 20.3086 -14.3359h0.170898h0.170898
c4.94922 6.31445 13.1416 11.0928 20.3096 14.3359c7.85059 3.41309 16.2129 5.12012 24.917 5.12012zM538.966 311.979c7.33789 0 13.1406 -5.80273 13.1406 -12.6289v-72.5332v-121.003v-4.6084c0 -6.99707 -5.80273 -12.6289 -12.9707 -12.6289h-50.1758
c-38.9121 0 -70.6562 34.8154 -70.6562 77.4824c0 20.3096 7.16797 39.4238 20.1387 53.9307c13.3125 14.8477 31.2324 23.04 50.8594 23.04h36.8633v55.4668c0 7.85059 5.63184 13.4824 12.8008 13.4824zM526.165 113.835v104.447h-38.2295
c-24.2344 -0.511719 -44.0312 -23.8926 -44.0312 -52.2236c0 -28.8428 20.1387 -52.2236 45.0557 -52.2236h37.2051z" />
    <glyph glyph-name="uniF102" unicode="&#xf102;" 
d="M442.026 248.32l-176.811 -176.641c-3.9248 -2.73047 -7.50879 -4.0957 -10.752 -4.0957c-3.24219 0 -6.99707 1.36523 -10.752 4.0957l-176.811 176.641c-2.73047 3.9248 -4.0957 7.50879 -4.0957 10.752c0 4.4375 1.36523 8.02148 4.0957 10.752l39.9355 39.082
c2.73145 3.41406 6.14453 4.9502 10.0693 4.9502c4.9502 0 8.53418 -1.70703 10.752 -4.9502l126.635 -125.781l126.635 125.781c2.21875 3.41406 5.80273 4.9502 10.752 4.9502c3.92578 0 7.16797 -1.70703 10.0693 -4.9502l39.9365 -39.082
c2.73047 -2.73047 4.0957 -6.31445 4.0957 -10.752c0.341797 -3.24316 -1.02344 -6.82715 -3.75488 -10.752z" />
    <glyph glyph-name="uniF112" unicode="&#xf112;" 
d="M426.325 260.778v-230.059c0 -12.6289 -10.2402 -23.04 -23.04 -23.04h-276.139c-12.6289 0 -23.04 10.2402 -23.04 23.04v230.059h-23.04v23.04c0 12.6299 10.2402 23.04 23.04 23.04h23.04h23.04h46.0801v46.0801c0 12.6299 10.2402 23.04 23.04 23.04h91.9893
c12.6299 0 23.04 -10.2402 23.04 -23.04v-46.0801h46.0801h23.04h23.04c12.6289 0 23.04 -10.2393 23.04 -23.04v-23.04h-23.2109zM242.347 306.858h46.0801v23.04h-46.0801v-23.04zM150.187 53.7598h230.229v207.019h-230.229v-207.019zM196.267 99.6689v115.029h46.0801
v-115.029h-46.0801zM288.256 99.6689v115.029h46.0801v-115.029h-46.0801z" />
    <glyph glyph-name="uniF100" unicode="&#xf100;" 
d="M396.8 102.4h-76.7998l-153.6 -102.4l-17.0674 102.4h-34.1328c-28.3311 0 -51.2002 22.8691 -51.2002 51.1992v179.2c0 28.3311 22.8691 51.2002 51.2002 51.2002h281.6c28.3311 0 51.2002 -22.8691 51.2002 -51.2002v-179.2
c0 -28.3301 -22.8691 -51.1992 -51.2002 -51.1992zM396.8 332.459h-281.6v-179.2h77.4824l11.0938 -67.0723l100.693 67.0723h92.3301v179.2z" />
    <glyph glyph-name="uniF106" unicode="&#xf106;" 
d="M256 324.267c-72.875 0 -132.267 -59.3916 -132.267 -132.267s59.3916 -132.267 132.267 -132.267s132.267 59.3916 132.267 132.267s-59.3916 132.267 -132.267 132.267zM256 384v0c105.984 0 192 -86.0156 192 -192s-86.0156 -192 -192 -192s-192 86.0156 -192 192
s86.0156 192 192 192z" />
    <glyph glyph-name="uniF111" unicode="&#xf111;" 
d="M430.08 68.6084l-50.5176 -50.5176c-5.46094 -5.46191 -12.1172 -8.7041 -20.1387 -10.0693h-6.99707c-55.8076 0 -116.054 32.5977 -180.565 97.9629c-65.1943 64.5117 -97.9629 127.146 -97.9629 187.733c1.36523 8.02051 4.7793 14.8477 10.0693 20.1387
l50.3467 50.5166c4.7793 3.41406 9.0459 5.12012 13.1416 5.12012c6.65625 0 11.7764 -3.41309 15.1895 -10.0693l41.3008 -76.6289c4.09668 -11.4346 2.38965 -20.1387 -5.11914 -26.2832l-18.0908 -19.1143c-2.04785 -2.04785 -3.07227 -3.75488 -3.07227 -5.12012
l2.04785 -6.99707c1.36523 -5.46191 5.97363 -14.166 14.165 -26.2832c8.02148 -12.1172 18.7734 -24.917 32.2568 -38.3994c30.8906 -30.8906 54.7832 -47.1045 71.6797 -48.4697c0.682617 0 1.70605 0.341797 3.07227 1.02441
c1.36523 0.682617 2.04785 1.36523 2.04785 2.04785l22.1865 21.1621c4.77832 4.7793 10.0693 6.99805 16.2129 6.99805c4.09668 0 7.33887 -1.02441 10.0693 -3.07227l74.752 -43.3496c5.46191 -3.41309 8.36328 -7.67969 9.0459 -13.1416
c0.511719 -4.77832 -1.19531 -9.72754 -5.12012 -15.1885z" />
  </font>
</defs>
</svg>
