<?xml version="1.0" standalone="no"?>
<!DOCTYPE svg PUBLIC "-//W3C//DTD SVG 1.1//EN" "http://www.w3.org/Graphics/SVG/1.1/DTD/svg11.dtd" >
<!--
2018-1-10: Created with FontForge (http://fontforge.org)
-->
<svg xmlns="http://www.w3.org/2000/svg" xmlns:xlink="http://www.w3.org/1999/xlink" version="1.1">
<metadata>
Created by FontForge 20170925 at Wed Jan 10 14:51:47 2018
 By Francisco Martinez

</metadata>
<defs>
<font id="tristicons" horiz-adv-x="512" >
  <font-face 
    font-family="tristicons"
    font-weight="400"
    font-stretch="normal"
    units-per-em="512"
    panose-1="2 0 5 3 0 0 0 0 0 0"
    ascent="448"
    descent="-64"
    bbox="33.3555 -38.8779 2017.46 422.878"
    underline-thickness="25.6"
    underline-position="-51.2"
    unicode-range="U+0020-F13B"
  />
    <missing-glyph />
    <glyph glyph-name="space" unicode=" " horiz-adv-x="200" 
 />
    <glyph glyph-name="check-circle" unicode="&#xf101;" 
d="M256 373.048c103.164 0 186.892 -83.7285 186.892 -186.893s-83.7275 -186.892 -186.892 -186.892s-186.892 83.7275 -186.892 186.892c0 103.165 83.7275 186.893 186.892 186.893zM342.748 211.94c3.22363 3.23535 5.83984 9.56738 5.83984 14.1338
c0 11.0537 -8.9707 20.0244 -20.0234 20.0244c-4.56738 0 -10.8994 -2.61621 -14.1348 -5.83984l-84.9893 -84.9902l-40.0781 40.0781c-2.7041 2.71387 -8.00879 4.91602 -11.8389 4.91602c-3.83398 0 -9.14062 -2.20508 -11.8457 -4.92188l-4.62793 -4.62793
c-2.7041 -2.70996 -4.89941 -8.0166 -4.89941 -11.8457c0 -3.8252 2.19238 -9.12988 4.89355 -11.8389l56.5566 -56.5576c2.70508 -2.71289 8.00879 -4.91504 11.8398 -4.91504c3.83301 0 9.14062 2.20508 11.8447 4.92188l3.45312 3.45312z" />
    <glyph glyph-name="apple" unicode="&#xf121;" 
d="M362.383 205.176c-1.90527 -6.19434 -3.45215 -16.4805 -3.45215 -22.9609c0 -10.2041 3.71289 -25.8887 8.28809 -35.0098c7.49219 -15.8652 26.9668 -33.5713 43.4717 -39.5234c-9.37044 -19.9128 -17.2754 -34.2565 -23.7148 -43.0312
c-21.6712 -34.5586 -42.457 -52.1266 -62.3574 -52.7041c-7.02539 0 -16.249 2.63509 -27.6709 7.90527c-9.08984 4.30566 -24.6299 7.84766 -34.6875 7.9043c-9.75293 -0.601562 -24.9033 -4.33984 -33.8164 -8.34375
c-11.4219 -4.98307 -20.6455 -7.47168 -27.6709 -7.46582c-19.9128 0 -40.6989 16.3958 -62.3584 49.1875c-20.4987 31.6185 -32.5039 64.849 -36.0156 99.6914c-3.50781 34.8249 1.47201 61.9036 14.9395 81.2363c20.4902 30.446 45.96 45.6722 76.4092 45.6787
c9.95638 0 22.1081 -2.63509 36.4551 -7.90527c14.3438 -5.27539 25.0296 -7.91016 32.0576 -7.9043c7.02539 0 17.2718 2.63477 30.7393 7.9043c10.0117 4.14941 26.9307 7.69043 37.7646 7.90527c26.929 0 50.057 -12.2982 69.3838 -36.8945
c-19.3177 -10.543 -31.9059 -25.7663 -37.7646 -45.6699zM250.838 285.102c-3.51693 19.8945 2.63216 38.9251 18.4473 57.0918c15.2142 18.1452 33.3656 28.0986 54.4541 29.8604c2.92122 -19.9128 -2.9349 -39.5296 -17.5684 -58.8506
c-14.6465 -18.7402 -33.0908 -28.1074 -55.333 -28.1016z" />
    <glyph glyph-name="heart" unicode="&#xf125;" 
d="M256 23.7715h-0.0654297c-3.09082 0 -7.37891 1.7666 -9.57227 3.94238l-136.687 131.867c-1.75195 1.5332 -49.9424 45.5615 -49.9424 98.1328c0 64.1816 39.209 102.515 104.705 102.515c38.333 0 74.2568 -30.2285 91.5615 -47.3145
c17.3047 17.0859 53.2285 47.3145 91.5615 47.3145c65.4951 0 104.705 -38.333 104.705 -102.515c0 -52.5713 -48.1904 -96.5996 -50.1621 -98.5713l-136.467 -131.429c-2.19336 -2.17578 -6.48145 -3.94238 -9.57227 -3.94238h-0.0654297z" />
    <glyph glyph-name="coupon" unicode="&#xf12f;" 
d="M415.966 202.035l-180.036 -180.241c-4.14062 -4.02441 -12.1885 -7.29199 -17.9629 -7.29199s-13.8223 3.26758 -17.9629 7.29199l-25.002 25.0029c6.17285 6.17285 11.1836 18.2686 11.1836 26.999c0 21.0771 -17.1064 38.1836 -38.1836 38.1836
c-8.73047 0 -20.8262 -5.01074 -26.999 -11.1836l-24.8154 25.0195c-4.1084 4.10645 -7.44336 12.1533 -7.44336 17.9629c0 5.80859 3.33496 13.8564 7.44336 17.9629l180.036 179.831c4.10645 4.1084 12.1543 7.44336 17.9629 7.44336
c5.80957 0 13.8564 -3.33496 17.9629 -7.44336l24.8145 -24.8145c-6.46387 -6.21875 -11.7109 -18.5459 -11.7109 -27.5156c0 -21.0742 17.1045 -38.1777 38.1787 -38.1777c8.96973 0 21.2959 5.24609 27.5146 11.7109l25.0029 -24.8145
c4.0293 -4.1416 7.2998 -12.1934 7.2998 -17.9717c0 -5.77051 -3.2627 -13.8145 -7.2832 -17.9541zM239.496 75.5879l122.676 122.676c2.05566 2.03711 3.72461 6.04004 3.72461 8.93457s-1.66895 6.89648 -3.72461 8.93359l-71.8506 71.8516
c-2.07129 1.97266 -6.07422 3.57422 -8.93457 3.57422s-6.86328 -1.60156 -8.93457 -3.57422l-122.675 -122.676c-2.05664 -2.03711 -3.72461 -6.04004 -3.72461 -8.93457s1.66797 -6.89648 3.72461 -8.93457l71.8506 -71.8506
c2.07129 -1.97266 6.07324 -3.57422 8.93457 -3.57422c2.86035 0 6.8623 1.60156 8.93359 3.57422zM281.378 269.909l62.7197 -62.7197l-113.527 -113.527l-62.7197 62.7197z" />
    <glyph glyph-name="lock" unicode="&#xf10b;" 
d="M413.091 26.1816c-0.00390625 -14.4482 -11.7334 -26.1777 -26.1807 -26.1816h-261.818c-14.4492 0.00390625 -26.1787 11.7324 -26.1826 26.1816v157.092c0.00390625 14.4482 11.7334 26.1777 26.1826 26.1807h8.72754v52.3643
c0 67.4443 54.7373 122.182 122.182 122.182s122.182 -54.7373 122.182 -122.182v-52.3643h8.72754c14.4482 -0.00390625 26.1777 -11.7324 26.1816 -26.1807v-157.092h-0.000976562zM325.818 209.454v52.3643c0 38.54 -31.2783 69.8184 -69.8184 69.8184
s-69.8184 -31.2783 -69.8184 -69.8184v-52.3643h139.637z" />
    <glyph glyph-name="file-solid" unicode="&#xf13b;" 
d="M288.99 282.709c0.00878906 -13.6406 11.0879 -24.7197 24.7295 -24.7295h140.254v-272.128c-0.00976562 -13.6416 -11.0889 -24.7197 -24.7295 -24.7295h-346.402h-0.0683594c-13.6514 0 -24.7373 11.0791 -24.7471 24.7295v412.297
c0.00976562 13.6504 11.0957 24.7295 24.7471 24.7295h0.0683594h206.148v-140.169zM321.963 290.986v121.583c2.77637 -1.72168 6.93652 -4.96387 9.28418 -7.23633l105.131 -105.13c2.26367 -2.33105 5.49805 -6.45996 7.21875 -9.2168h-121.634z" />
    <glyph glyph-name="linkedin" unicode="&#xf129;" 
d="M352 345.6c31.7871 -0.0078125 57.5918 -25.8125 57.5996 -57.5996v-192c-0.0078125 -31.7871 -25.8125 -57.5918 -57.5996 -57.5996h-192c-31.7871 0.0078125 -57.5918 25.8125 -57.5996 57.5996v192c0.0078125 31.7871 25.8125 57.5918 57.5996 57.5996h192z
M196 88.4004v138.8h-46.2002v-138.8h46.2002zM172.8 246c16.2002 0 26.2002 10.7998 26.2002 24c-0.200195 13.5996 -10 24 -25.7998 24s-26.2002 -10.4004 -26.2002 -24c0 -13.2002 10 -24 25.5996 -24h0.200195zM362.2 88.4004v79.5996
c0 42.5996 -22.7998 62.4004 -53.2002 62.4004c-24.2588 0 -35.3135 -13.2041 -41.4004 -22.7666v19.5664h-46.1992s0.599609 -13 0 -138.8h46.1992v77.5996c-0.0224609 0.451172 -0.0410156 1.18457 -0.0410156 1.63672c0 2.69922 0.645508 6.9834 1.44141 9.56348
c3.40039 8.2002 11 16.7998 23.7998 16.7998c16.6006 0 23.2002 -12.5996 23.2002 -31.4004v-74.1992h46.2002z" />
    <glyph glyph-name="team-alt" unicode="&#xf132;" 
d="M313.515 270.165c-0.301758 0.735352 -0.545898 1.97754 -0.545898 2.77148c0 1.22266 0.549805 3.03906 1.22852 4.05566c5.88184 8.79492 10.6543 24.5205 10.6543 35.1006c0 6.70898 -2.02051 17.209 -4.50977 23.4375
c-0.257812 0.758789 -0.466797 2.02344 -0.466797 2.82422c0 1.2832 0.514648 3.22852 1.14941 4.34375c1.1377 1.86133 3.81348 3.62012 5.97266 3.92578v0c1.95508 0.338867 5.15137 0.614258 7.13477 0.614258c13.6143 0 29.9912 -9.67969 36.5566 -21.6064
c2.96094 -5.36719 5.36523 -14.6982 5.36523 -20.8291c0 -8.77246 -4.62109 -21.3076 -10.3154 -27.9814c-6.86133 -8.0625 -21.0215 -14.6064 -31.6084 -14.6064c-4.4375 0 -11.3789 1.34473 -15.4951 3.00098c-2.07227 0.68457 -4.36621 2.90137 -5.12012 4.94922z
M190.976 342.869c0.661133 -0.999023 1.19727 -2.78223 1.19727 -3.98047c0 -0.765625 -0.230469 -1.96387 -0.514648 -2.67578c-2.45312 -6.21777 -4.44531 -16.6895 -4.44531 -23.375c0 -10.585 4.74414 -26.3379 10.5898 -35.1631
c0.633789 -1.11523 1.14844 -3.06152 1.14844 -4.34473c0 -0.799805 -0.208984 -2.06543 -0.46582 -2.82324c-0.711914 -2.09082 -3.00586 -4.30859 -5.12012 -4.94922c-3.9248 -1.46191 -10.5088 -2.64844 -14.6973 -2.64844c-7.93555 0 -19.4717 3.93848 -25.751 8.79199
c-9.29492 7.27344 -16.8389 22.7549 -16.8389 34.5576c0 0.873047 0.0507812 2.28906 0.114258 3.16016c1.26562 9.97461 8.75879 23.0488 16.7246 29.1836c6.3252 4.79004 17.8975 8.67773 25.8311 8.67773c1.7832 0 4.66211 -0.217773 6.4248 -0.485352
c2.14941 -0.274414 4.74902 -2.0332 5.80273 -3.92578zM321.365 102.57c11.8682 3.52734 22.6484 16.373 24.0645 28.6719l8.3623 93.0137v-0.170898v0.131836c0 3.63379 -0.916992 9.38574 -2.04785 12.8389c-0.222656 0.634766 -0.404297 1.69629 -0.404297 2.36914
c0 1.31445 0.639648 3.23535 1.42773 4.28711c1.20703 1.60254 3.81543 2.90332 5.82129 2.90332c0.0419922 0 0.110352 -0.000976562 0.152344 -0.00195312h23.04c0.0849609 0.000976562 0.223633 0.00292969 0.308594 0.00292969
c10.6475 0 19.3779 -8.6416 19.4893 -19.2881l-7.33887 -80.043c-0.579102 -5.89648 -5.85547 -10.8672 -11.7764 -11.0928l-5.46094 -0.170898c-4.19629 -0.0566406 -7.86621 -3.49707 -8.19238 -7.67969l-6.48535 -83.9688
c-0.527344 -6.21875 -6.02051 -11.2656 -12.2607 -11.2656c-0.0546875 0 -0.143555 0.000976562 -0.198242 0.00195312h-28.6719c-2.49121 0.0136719 -5.93262 1.46582 -7.67969 3.24219c-1.61426 1.64844 -2.92383 4.8584 -2.92383 7.16504
c0 0.189453 0.00976562 0.49707 0.0224609 0.686523l4.6084 51.0293c0.442383 3.07422 3.19531 6.36133 6.14355 7.33789zM214.528 255.488h83.1143c15.1172 -2.67871 31.5557 -16.5947 36.6934 -31.0615l-8.3623 -91.3066
c-0.652344 -6.7627 -6.69238 -12.4199 -13.4834 -12.6299l-6.14355 -0.169922c-4.73633 -0.172852 -8.86523 -4.14844 -9.21582 -8.875l-7.50977 -95.7441c-0.604492 -7.06641 -6.85156 -12.8018 -13.9434 -12.8018c-0.0615234 0 -0.160156 0.000976562 -0.22168 0.00195312
h-38.4004c-0.0605469 -0.000976562 -0.160156 -0.00195312 -0.22168 -0.00195312c-7.0918 0 -13.3389 5.73535 -13.9434 12.8018l-7.50977 95.5732c-0.299805 4.7793 -4.42871 8.75488 -9.21582 8.875l-6.14355 0.170898c-6.83105 0.265625 -12.9482 6 -13.6533 12.7998
l-8.36328 91.1357c5.00781 14.5518 21.3701 28.5439 36.5234 31.2324zM214.698 318.806c0.0947266 22.7041 18.5977 41.1309 41.3018 41.1309c22.7988 0 41.3018 -18.5029 41.3018 -41.3018v-0.170898v0c-0.0947266 -22.7041 -18.5977 -41.1309 -41.3018 -41.1309
c-22.7988 0 -41.3018 18.5029 -41.3018 41.3018v0.170898zM116.565 241.322c2.96289 2.93359 8.75 5.31348 12.9189 5.31348c0.25 0 0.655273 -0.00976562 0.905273 -0.0224609h23.04c0.104492 0.00585938 0.275391 0.0107422 0.379883 0.0107422
c1.96289 0 4.46777 -1.30469 5.59277 -2.91211c0.757812 -1.08887 1.37207 -3.04883 1.37207 -4.375c0 -0.643555 -0.15625 -1.66602 -0.347656 -2.28125v0c-1.13086 -3.48828 -2.04785 -9.2959 -2.04785 -12.9629v-0.0078125l8.3623 -93.0127
c1.34961 -12.2637 12.0537 -25.0322 23.8936 -28.502c2.94824 -0.976562 5.70117 -4.26367 6.14355 -7.33789l4.7793 -50.8594c0.0126953 -0.188477 0.0224609 -0.496094 0.0224609 -0.685547c0 -2.30664 -1.30957 -5.5166 -2.92383 -7.16504
c-1.74805 -1.77637 -5.18848 -3.22949 -7.68066 -3.24219h-28.6719c-0.0546875 -0.000976562 -0.142578 -0.00195312 -0.197266 -0.00195312c-6.24121 0 -11.7344 5.04688 -12.2607 11.2656l-6.48535 83.9678c-0.327148 4.18359 -3.99707 7.62402 -8.19238 7.68066
l-5.46094 0.169922c-5.92188 0.226562 -11.1973 5.19629 -11.7764 11.0938l-7.33887 80.043c0.0800781 4.49316 2.75586 10.6865 5.97363 13.8232z" />
    <glyph glyph-name="cross-circle" unicode="&#xf108;" 
d="M442.667 186.155c0 -51.666 -18.1947 -95.6937 -54.584 -132.083c-36.3932 -36.3932 -80.4209 -54.5879 -132.083 -54.584c-51.6667 0 -95.6943 18.1943 -132.083 54.583c-36.3932 36.3809 -54.5879 80.4089 -54.584 132.084c0 51.6667 18.1947 95.6947 54.584 132.084
c36.3796 36.3796 80.4072 54.5736 132.083 54.582c51.6667 0 95.6943 -18.1943 132.083 -54.583c36.3802 -36.3932 54.5749 -80.4209 54.584 -132.083zM283.5 186.155l63.333 62.5c3.33398 3.33398 3.33398 6.66732 0 10l-18.334 17.5
c-0.559896 1.66667 -2.22656 2.5 -5 2.5c-1.86623 -0.0377492 -3.25522 -0.871083 -4.16699 -2.5l-63.332 -61.667l-63.333 61.667c-0.914128 1.62538 -2.30313 2.45871 -4.16699 2.5c-2.01761 -0.130891 -3.6846 -0.964224 -5.00098 -2.5l-17.499 -17.5
c-3.33398 -3.33333 -3.33398 -6.66667 0 -10l63.333 -62.5l-63.333 -63.333c-1.11133 -0.556149 -1.66699 -1.94515 -1.66699 -4.16699l-0.0214844 -0.538086c0 -1.70029 0.562826 -3.18759 1.68848 -4.46191l17.501 -18.333c1.54553 -0.912946 3.2122 -1.46861 5 -1.66699
c1.78469 0.201573 3.45168 0.757237 5.00098 1.66699l62.498 63.333l63.333 -62.5c0.912963 -1.62776 2.30196 -2.4611 4.16699 -2.5c2.01868 0.13214 3.68567 0.965473 5.00098 2.5l17.5 17.5c1.53516 1.31686 2.36816 2.98385 2.49902 5.00098l0.0380859 0.540039
c0 1.80162 -0.845703 3.01028 -2.53711 3.62598z" />
    <glyph glyph-name="shoe" unicode="&#xf12d;" 
d="M248.781 277.586c12.2188 -2.67383 32.8457 -4.2998 61.5967 3.18652c-7.49707 18.8145 -13.1729 33.1982 -14.8477 37.3232c-5.03906 12.377 -43.9404 10.3311 -51.1611 -34.2236c-0.0322266 -0.220703 -0.0585938 -0.583008 -0.0585938 -0.806641
c0 -2.51855 2.00293 -4.97363 4.4707 -5.47949zM338.418 161.837l16.5605 9.91602c2.81641 -6.4707 5.37109 -12.1562 7.55078 -16.7656l-23.3291 3.41992c-0.726562 0.0986328 -1.45117 0.757812 -1.61816 1.47168
c-0.0253906 0.110352 -0.046875 0.292969 -0.046875 0.407227c0 0.566406 0.395508 1.26074 0.882812 1.55078zM74.5371 279.188c52.3369 -49.8584 211.138 -187.607 251.222 -204.267c56.5371 -23.543 95.4307 -26.9922 120.869 -10.5381
c1.56738 1.00684 2.83984 3.33594 2.83984 5.19922c0 0.873047 -0.34082 2.20312 -0.759766 2.96875c-3.41016 6.33691 -9.06348 13.2598 -18.0859 20.7637c-22.3438 18.5801 -36.9014 25.4395 -47.9863 34.3389l-31.5547 -22.5029
c-7.80664 -5.56152 -17.0205 6.09863 -8.98926 11.8301l26.8477 19.1426c0.420898 0.299805 0.762695 0.961914 0.762695 1.47852c0 0.130859 -0.0273438 0.339844 -0.0605469 0.466797c-0.191406 0.674805 -0.910156 1.30566 -1.60449 1.40723l-56.4854 8.26367
c-3.56543 0.417969 -6.45996 3.6709 -6.45996 7.26172c0 2.22656 1.5293 4.99805 3.41406 6.18555l31.4629 18.8418c0.490234 0.287109 0.887695 0.981445 0.887695 1.5498c0 0.0996094 -0.0166016 0.259766 -0.0361328 0.357422
c-0.139648 0.698242 -0.821289 1.37207 -1.52051 1.50488l-56.8945 11.6104c-8.34473 1.7168 -7.28809 12.4873 -1.10742 15.1094l42.8154 18.209c1.58301 0.654297 2.86719 2.5752 2.86719 4.28809c0 0.506836 -0.15625 1.29883 -0.349609 1.76758
c-3.27734 8.08691 -7.67285 21.5176 -9.81152 29.9775c-44.3643 -11.8438 -97.3105 -8.74609 -123.149 29.3555c-19.7188 29.0762 8.29297 43.5742 -1.71191 64.6602c-9.65332 20.3291 -60.5996 2.2959 -93.7559 -35.501
c-8.11426 -9.17676 -19.3096 -25.4336 -24.9883 -36.2881c-0.375 -0.740234 -0.679688 -2.01367 -0.679688 -2.84277c0 -1.50977 0.897461 -3.57031 2.00293 -4.59863zM452.267 48.3916c-37.3809 -22.124 -89.126 -7.42871 -132.989 10.8145
c-43.8018 18.2148 -201.674 156.315 -254.91 206.474c-4.95801 -14.6104 -5.69141 -26.0547 -3.36621 -31.2969c4.8623 -10.9609 189.789 -175.857 255.819 -198.593c66.0195 -22.7324 122.618 -25.502 130.05 -3.9209c1.42285 4.13379 4.2959 9.66895 5.39648 16.5234z
M334.485 216.756l-22.3281 -9.49512c-0.616211 -0.25293 -1.11621 -0.999023 -1.11621 -1.66504c0 -0.0625 0.00585938 -0.164062 0.0136719 -0.225586c0.102539 -0.753906 0.790039 -1.48828 1.53613 -1.63965l31.5312 -6.42871
c-0.725586 1.74805 -7.31445 14.6836 -9.63672 19.4541z" />
    <glyph glyph-name="home" unicode="&#xf131;" 
d="M281.6 365.056l154.112 -127.658c-3.75488 0 0 -7.50977 0 -25.6006v-178.858c0 -14.1309 -11.4688 -25.5996 -25.5996 -25.5996h-76.9707c-11.6328 2.49902 -23.1016 13.9678 -25.6006 25.5996v76.6299c4.09668 24.917 -7.50879 36.5225 -25.5996 25.5996h-51.541
c-18.6035 10.9229 -30.208 -0.511719 -25.6006 -25.5996v-76.6299c-2.68164 -11.4482 -14.1514 -22.918 -25.5996 -25.5996h-77.3125c-14.1309 0 -25.5996 11.4688 -25.5996 25.5996v178.688c0 18.0908 3.75488 25.5996 0 25.5996l154.112 127.829
c7.04004 0.848633 18.5088 1.53613 25.5996 1.53613s18.5596 -0.6875 25.5996 -1.53613z" />
    <glyph glyph-name="calendar" unicode="&#xf115;" 
d="M348.313 351.983v18.7754c0 10.3633 8.41016 18.7734 18.7734 18.7734s18.7734 -8.41016 18.7734 -18.7734v-18.7754h0.0917969c31.0381 -0.0302734 56.2275 -25.2441 56.2275 -56.2822v-0.0410156v-244.049v-0.0537109c0 -31.0381 -25.1895 -56.2461 -56.2275 -56.2676
h-263.011c-31.0381 0.0292969 -56.2275 25.2432 -56.2275 56.2812v0.0400391v244.049v0.0556641c0 31.0371 25.1895 56.2451 56.2275 56.2676h0.0917969v18.7754c0 10.3633 8.41113 18.7734 18.7734 18.7734c10.3633 0 18.7734 -8.41016 18.7734 -18.7734v-18.7754h37.5469
v18.7754c0 10.3633 8.41016 18.7734 18.7734 18.7734c10.3623 0 18.7734 -8.41016 18.7734 -18.7734v-18.7754h37.5469v18.7754c0 10.3633 8.41016 18.7734 18.7725 18.7734c10.3633 0 18.7734 -8.41016 18.7734 -18.7734v-18.7754h37.5469zM404.634 220.569h-300.373
v-168.958c-0.000976562 -0.0117188 -0.000976562 -0.0292969 -0.000976562 -0.0400391c0 -10.3125 8.36914 -18.7051 18.6816 -18.7354h263.011c10.3125 0.0224609 18.6816 8.40918 18.6816 18.7217v0.0537109v168.958zM404.634 258.116v37.5439v0.0410156
c0 10.3125 -8.36914 18.7061 -18.6816 18.7354h-0.0917969v-0.00195312c0 -10.3633 -8.41016 -18.7734 -18.7734 -18.7734c-10.3623 0 -18.7725 8.40918 -18.7734 18.7715l-37.5469 0.00390625v-0.00195312c0 -10.3633 -8.41016 -18.7734 -18.7734 -18.7734
c-10.3613 0 -18.7715 8.40918 -18.7725 18.7715l-37.5469 0.00390625v-0.00195312c0 -10.3633 -8.41113 -18.7734 -18.7734 -18.7734s-18.7725 8.40918 -18.7734 18.7715l-37.5469 0.00390625v-0.00195312c0 -10.3633 -8.41016 -18.7734 -18.7734 -18.7734
c-10.3613 0 -18.7725 8.40918 -18.7734 18.7715l-0.0917969 0.00390625c-10.3125 -0.0224609 -18.6816 -8.40918 -18.6816 -18.7217c0 -0.0146484 0 -0.0390625 0.000976562 -0.0546875v-37.5439h300.373z" />
    <glyph glyph-name="dollar-dollar" unicode="&#xf134;" 
d="M452.267 135.51c0 -39.8848 -28.5352 -71.3564 -69.9736 -78.2002v-34.1328c0.000976562 -0.0244141 0.000976562 -0.0625 0.000976562 -0.0859375c0 -3.36426 -2.72949 -6.13184 -6.09375 -6.17773h-26.5723c-3.35742 0.0263672 -6.15527 2.77051 -6.24707 6.12695
v34.1328c-45.7383 6.45215 -70.7578 33.8262 -71.6797 34.9873c-0.879883 1.01074 -1.59473 2.91895 -1.59473 4.25977c0 1.14355 0.539062 2.8291 1.20215 3.76172l20.1387 26.3848c0.967773 1.16309 2.97852 2.1875 4.48828 2.28711
c0.203125 0.0283203 0.535156 0.0517578 0.740234 0.0517578c1.30664 0 3.07812 -0.788086 3.95312 -1.75879c0.392578 -0.1875 27.751 -26.3848 62.3623 -26.3848c19.166 0 39.8848 10.2402 39.8848 32.2559c0 18.7734 -23.0742 27.9551 -49.4932 38.502
c-35.1914 13.876 -78.9854 31.4717 -78.9854 80.5381c0 35.9766 28.1436 65.6895 69.001 73.5059v35.3965c0.0185547 3.43848 2.82422 6.24512 6.26367 6.26367h26.3848h0.0683594c3.37305 0 6.14062 -2.7373 6.17773 -6.11035c0.0371094 -3.37207 0 -0.102539 0 -0.15332
v-34.458c39.6807 -4.48828 60.792 -25.9922 61.5771 -26.7773c0.977539 -1.00586 1.77051 -2.96094 1.77051 -4.36426c0 -0.902344 -0.357422 -2.27246 -0.797852 -3.05957l-15.8379 -28.6211c-0.776367 -1.52637 -2.78711 -2.9248 -4.48828 -3.12305
c-0.321289 -0.0585938 -0.845703 -0.107422 -1.17188 -0.107422c-1.27734 0 -3.11523 0.660156 -4.10254 1.47266c-0.1875 0.188477 -23.8926 21.1113 -53.1797 21.1113c-24.832 0 -42.0352 -12.3213 -42.0352 -30.1055c0 -20.7188 23.8936 -29.918 51.6104 -40.6699
c35.959 -13.8066 76.6289 -29.6445 76.6289 -76.748zM241.954 135.51c0 -39.8848 -28.5352 -71.3564 -69.9736 -78.2002v-34.1328c0.000976562 -0.0244141 0.000976562 -0.0625 0.000976562 -0.0859375c0 -3.36426 -2.72949 -6.13184 -6.09375 -6.17773h-26.5557
c-3.33887 0.0439453 -6.12207 2.78906 -6.21191 6.12695v34.1328c-45.7393 6.45215 -70.7588 33.8262 -71.6797 34.9873c-0.880859 1.01074 -1.5957 2.91895 -1.5957 4.25977c0 1.14355 0.539062 2.8291 1.20312 3.76172l20.1387 26.3848
c0.967773 1.16309 2.97852 2.1875 4.48828 2.28711c0.223633 0.0341797 0.588867 0.0625 0.814453 0.0625c1.3125 0 3.08789 -0.792969 3.96387 -1.76953c0.392578 -0.1875 27.7676 -26.3848 62.3613 -26.3848c19.166 0 39.8857 10.2402 39.8857 32.2559
c0 18.7734 -23.0742 27.9551 -49.4941 38.502c-35.1914 13.876 -78.9844 31.4717 -78.9844 80.5381c-0.15332 36.1299 27.9385 65.8428 68.8984 73.6602v35.2422c0.0185547 3.43848 2.82422 6.24512 6.26367 6.26367h26.334h0.0859375
c3.36328 0 6.13086 -2.72949 6.17676 -6.09277c0.046875 -3.36328 0 -0.120117 0 -0.170898v-34.458c39.6807 -4.48828 60.792 -25.9922 61.5771 -26.7773c0.977539 -1.00586 1.77051 -2.96094 1.77051 -4.36426c0 -0.902344 -0.357422 -2.27246 -0.797852 -3.05957
l-15.8379 -28.6211c-0.775391 -1.52832 -2.78613 -2.92773 -4.48828 -3.12305c-0.321289 -0.0585938 -0.845703 -0.107422 -1.17188 -0.107422c-1.27734 0 -3.11523 0.660156 -4.10254 1.47266c-0.1875 0.188477 -23.8926 21.1113 -53.1797 21.1113
c-24.832 0 -42.0352 -12.3213 -42.0352 -30.1055c0 -20.7188 23.8936 -29.918 51.6104 -40.6699c35.9766 -13.8066 76.6289 -29.6445 76.6289 -76.7998v0.0517578z" />
    <glyph glyph-name="cloud" unicode="&#xf123;" 
d="M452.267 126.578c-0.0107422 -43.3252 -35.1826 -78.4961 -78.5068 -78.5068h-222.436h-0.0888672c-50.5088 0 -91.502 40.9922 -91.502 91.502c0 32.1416 23.6309 69.2754 52.7471 82.8887c-0.205078 3.06738 -0.40918 5.92969 -0.40918 8.79102
c0.0117188 57.7812 46.916 104.676 104.697 104.676c38.7812 0 82.1855 -29.126 96.8848 -65.0127c8.05469 6.99609 23.252 12.6748 33.9219 12.6748h0.015625c28.835 -0.0556641 52.2822 -23.5029 52.3379 -52.3379v-0.129883
c0 -8.44141 -3.75488 -21.0225 -8.38184 -28.083c33.457 -7.84277 60.6602 -42.0977 60.7197 -76.4619zM321.422 172.373c0.000976562 0.0234375 0.000976562 0.0615234 0.000976562 0.0849609c0 3.56445 -2.89355 6.45801 -6.45898 6.45801h-0.0839844h-45.7949v71.9639
c-0.0957031 3.5166 -3.02637 6.44727 -6.54297 6.54199h-39.2529c-3.5166 -0.0947266 -6.44727 -3.02539 -6.54199 -6.54199v-71.9639h-45.7959c-3.58691 -0.0253906 -6.51758 -2.95605 -6.54199 -6.54297v-0.0410156c0 -1.4873 0.824219 -3.5752 1.83984 -4.66113
l71.9639 -71.9639c1.04199 -1.01758 3.06934 -1.84277 4.52539 -1.84277c0.0488281 0 0.12793 0.000976562 0.176758 0.00195312h0.0419922c1.48633 0 3.5752 0.824219 4.66113 1.84082l71.7598 71.7598c1.07422 1.1416 1.99023 3.33984 2.04395 4.90625z" />
    <glyph glyph-name="briefcase" unicode="&#xf12e;" 
d="M79.0186 258.39c0.333984 11.9131 10.2734 21.8525 22.1865 22.1865h22.1865v-243.371h-22.1865c-11.9131 0.333984 -21.8525 10.2734 -22.1865 22.1865v198.998zM410.795 280.405c11.9131 -0.333984 21.8525 -10.2734 22.1865 -22.1865v-198.997
c-0.333984 -11.9141 -10.2734 -21.8535 -22.1865 -22.1875h-22.1865v243.371h22.1865zM344.405 302.592v-22.1865h22.0156v-243.2h-221.013v243.2h22.1865v22.1865c3.0625 21.3379 22.8652 41.1406 44.2021 44.2031h88.4062
c21.2402 -3.15918 41.043 -22.9619 44.2021 -44.2031zM211.797 324.778v-22.1865h88.4062l0.169922 22.1865c0 -4.2666 -5.63184 0 -17.749 0h-53.0771c-12.1172 0 -17.75 -4.2666 -17.75 0z" />
    <glyph glyph-name="chevron-left" unicode="&#xf103;" 
d="M365.752 317.925l-126.667 -126.667l126.667 -125.832c2.10449 -2.62305 3.9707 -7.47656 4.16699 -10.834c0.00585938 -0.162109 0.0117188 -0.424805 0.0117188 -0.586914c0 -3.29785 -1.87207 -7.88867 -4.17871 -10.2461l-40 -40.001
c-2.35645 -2.30664 -6.94531 -4.17871 -10.2422 -4.17871c-0.164062 0 -0.428711 0.00585938 -0.591797 0.0117188c-0.0566406 0 -0.149414 -0.000976562 -0.206055 -0.000976562c-3.19336 0 -7.58008 1.86719 -9.79395 4.16797l-176.666 176.667
c-2.66406 2.39746 -4.9043 7.25098 -5.00098 10.833c-0.00292969 0.100586 -0.00488281 0.262695 -0.00488281 0.362305c0 3.55078 2.24219 8.24219 5.00586 10.4717l176.666 176.666c2.07715 2.74609 6.55762 4.98633 10 5.00098c5 0 8.61133 -1.66699 10.834 -5.00098
l40 -39.166c2.10449 -2.62305 3.9707 -7.47656 4.16699 -10.834c-0.194336 -3.35742 -2.06055 -8.21094 -4.16699 -10.833z" />
    <glyph glyph-name="loading" unicode="&#xf114;" 
d="M466.422 167.962l20.2891 -36.4619l-93.541 -52.0586l-51.7803 93.0742l36.4629 20.2871l20.5859 -37.0039c2.44531 9.70996 4.43066 25.7168 4.43066 35.7305c0 80.751 -65.5371 146.289 -146.289 146.289c-80.751 0 -146.289 -65.5381 -146.289 -146.289
c0 -80.752 65.5381 -146.289 146.289 -146.289h0.273438v-41.7178h-0.199219c-103.519 0 -187.534 84.0146 -187.534 187.534c0 103.519 84.0156 187.534 187.534 187.534c103.52 0 187.534 -84.0156 187.534 -187.534c0 -10.4805 -1.7041 -27.3203 -3.80469 -37.5879z" />
    <glyph glyph-name="shirt" unicode="&#xf11e;" 
d="M424.111 255.044l-56.0342 7.00293l14.0059 -252.165h-252.156l14.0059 252.165l-56.0352 -7.00293l-28.0225 77.0449l140.094 42.0293c12.263 -23.3568 30.9417 -35.029 56.0361 -35.0166c25.0911 0 43.7695 11.6722 56.0352 35.0166l140.085 -42.0293z" />
    <glyph glyph-name="open" unicode="&#xf10f;" 
d="M441.018 259.959l-72.1738 -72.8691c-3.83398 -3.88379 -11.374 -7.03613 -16.832 -7.03613c-5.45703 0 -12.998 3.15234 -16.832 7.03613c-3.85352 3.90039 -6.98145 11.5166 -6.98145 17s3.12793 13.0986 6.98145 16.999l29.8975 30.1846
c-24.5469 1.10352 -122.178 -1.91895 -158.457 -104.109c-3.13184 -8.81152 -13.2627 -15.9619 -22.6143 -15.9619c-13.248 0 -24 10.752 -24 24c0 2.28418 0.620117 5.88574 1.38574 8.03809c40.8623 114.979 147.155 140.893 206.229 136.238l-32.248 31.6719
c-3.85449 3.90039 -6.98242 11.5166 -6.98242 17s3.12793 13.0996 6.98242 17c3.83398 3.88379 11.374 7.03613 16.832 7.03613c5.45703 0 12.998 -3.15234 16.8311 -7.03613l71.9824 -71.1904c3.85449 -3.90039 6.98242 -11.5166 6.98242 -17
s-3.12793 -13.0996 -6.98242 -17zM111.988 299.742v-215.946c0.00390625 -13.2402 10.7539 -23.9893 23.9941 -23.9941h239.939c13.2402 0.00488281 23.9893 10.7539 23.9941 23.9941v71.9814h47.9883v-95.9756v-0.0136719c0 -26.4824 -21.4922 -47.9746 -47.9746 -47.9746
h-0.0136719h-287.928h-0.0136719c-26.4824 0 -47.9746 21.4922 -47.9746 47.9746v0.0136719v263.935c0.000976562 26.4883 21.5 47.9863 47.9883 47.9873h119.97v-47.9873h-95.9756c-13.2402 -0.00488281 -23.9893 -10.7549 -23.9941 -23.9941z" />
    <glyph glyph-name="graph" unicode="&#xf130;" 
d="M320.854 42.6836v191.983c0.266602 11.5088 9.82422 21.0664 21.333 21.333h42.667c11.5088 -0.266602 21.0664 -9.82422 21.333 -21.333v-192c-0.257812 -11.5176 -9.81543 -21.0752 -21.333 -21.334h-42.667c-11.5264 0.258789 -21.084 9.82422 -21.333 21.3506z
M214.187 42.6836v298.667c0.181641 11.5938 9.73926 21.1436 21.333 21.3164h42.667c11.6035 -0.172852 21.1611 -9.73047 21.333 -21.334v-298.666c-0.171875 -11.6035 -9.72949 -21.1611 -21.333 -21.334h-42.667c-11.6123 0.172852 -21.1689 9.73828 -21.333 21.3506z
M113.356 27.1875c-3.24512 3.24219 -5.87891 9.59766 -5.87891 14.1855c0 0.362305 0.0185547 0.949219 0.0419922 1.31055v42.667c-0.0234375 0.360352 -0.0419922 0.945312 -0.0419922 1.30664c0 11.0693 8.9834 20.0527 20.0527 20.0527
c0.366211 0 0.958008 -0.0195312 1.32324 -0.0429688h42.666c0.370117 0.0244141 0.97168 0.0449219 1.34277 0.0449219c11.0596 0 20.0361 -8.97656 20.0361 -20.0361c0 -0.371094 -0.0205078 -0.972656 -0.0449219 -1.34277v-42.666
c0.0244141 -0.370117 0.0449219 -0.97168 0.0449219 -1.34277c0 -11.0596 -8.97656 -20.0361 -20.0361 -20.0361c-0.371094 0 -0.972656 0.0205078 -1.34277 0.0449219h-42.666c-0.357422 -0.0224609 -0.9375 -0.0410156 -1.29492 -0.0410156
c-4.59473 0 -10.958 2.64062 -14.2021 5.89551z" />
    <glyph glyph-name="coins" unicode="&#xf12c;" 
d="M256 208.121c-103.668 0 -187.733 32.6064 -187.733 72.8057v-45.7637c0 -40.2305 84.0654 -72.8047 187.733 -72.8047s187.733 32.5742 187.733 72.8047v45.7637c0 -40.1992 -84.0654 -72.8057 -187.733 -72.8057zM256 129.075
c-103.668 0 -187.733 32.6064 -187.733 72.8057v-45.7637c0 -40.2295 84.0654 -72.8047 187.733 -72.8047s187.733 32.5752 187.733 72.8047v45.7637c0 -40.1992 -84.0654 -72.8057 -187.733 -72.8057zM256 50.0303c-103.668 0 -187.733 32.6064 -187.733 72.8047v-45.7627
c0 -40.2305 84.0654 -72.8057 187.733 -72.8057s187.733 32.5752 187.733 72.8057v45.7627c0 -40.1982 -84.0654 -72.8047 -187.733 -72.8047zM443.733 310.568c0 -38.209 -84.0654 -69.165 -187.733 -69.165s-187.733 30.9561 -187.733 69.165
s84.0654 69.165 187.733 69.165s187.733 -30.9561 187.733 -69.165z" />
    <glyph glyph-name="cross" unicode="&#xf107;" 
d="M256 238.732l137.143 137.144l54.8574 -54.8574l-137.143 -137.144l137.143 -137.143l-54.8574 -54.8574l-137.143 137.144l-137.143 -137.144l-54.8574 54.8574l137.143 137.143l-137.143 137.144l54.8574 54.8574z" />
    <glyph glyph-name="mango-chutney" unicode="&#xf10e;" 
d="M1621.7 248.304c18.9561 -0.24707 34.5898 -6.31836 46.5371 -17.9854c11.9961 -11.7334 18.2822 -27.7285 18.6455 -47.5898v-76.832c-0.0761719 -6.98535 -5.80859 -12.6543 -12.7939 -12.6543h-0.0927734h-0.130859h-0.113281
c-6.98633 0 -12.708 5.66895 -12.7725 12.6543v76.8975c-0.34375 12.2266 -4.26172 22.2646 -11.6992 29.752c-6.25488 6.42285 -18.6064 11.6348 -27.5713 11.6348s-21.3174 -5.21191 -27.5713 -11.6348c-7.43848 -7.53711 -11.3877 -17.542 -11.6689 -29.8174v-76.832
c-0.167969 -6.98242 -5.97363 -12.6504 -12.958 -12.6504c-6.98535 0 -12.791 5.66797 -12.959 12.6504v76.7988c0.412109 19.9443 6.66406 35.9395 18.5781 47.623c11.9814 11.667 27.6465 17.7383 46.5703 17.9854zM1416.89 248.329
c0.0517578 0 0.134766 0.000976562 0.186523 0.000976562c7.00391 0 12.752 -5.68457 12.8301 -12.6885v-76.9629c-0.412109 -19.9609 -6.66406 -35.9883 -18.5801 -47.7051c-11.9795 -11.7002 -27.6455 -17.7881 -46.5674 -18.0352
c-18.9414 0.246094 -34.5918 6.33496 -46.5391 18.0352c-11.9951 11.749 -18.2646 27.7773 -18.626 47.6885v76.9795c0.0654297 7.00293 5.80273 12.6875 12.8066 12.6875h0.0615234h0.148438h0.0839844c7.00391 0 12.7383 -5.68457 12.7998 -12.6875v-77.0449
c0.313477 -12.2598 4.24805 -22.3145 11.6855 -29.8174c6.25098 -6.43164 18.6025 -11.6514 27.5713 -11.6514s21.3203 5.21973 27.5713 11.6514c7.45508 7.53613 11.3867 17.5742 11.667 29.8662v76.9961c0.0751953 7.00293 5.82031 12.6875 12.8242 12.6875h0.0761719z
M1096.98 118.17c0.0966797 0.00195312 0.25293 0.00488281 0.349609 0.00488281c6.92383 0 12.5439 -5.62012 12.5439 -12.5439c0 -6.9248 -5.62012 -12.5439 -12.5439 -12.5439c-0.0966797 0 -0.25293 0.00195312 -0.349609 0.00488281h-44.5635
c-16.9131 0.0253906 -39.5967 10.4492 -50.6318 23.2676c-11.0752 12.6533 -20.0635 36.5703 -20.0635 53.3857c0 0.180664 0.000976562 0.474609 0.00195312 0.655273c0 42.6855 31.6621 77.4072 70.6289 77.4072h44.4463
c0.0761719 0.000976562 0.199219 0.00292969 0.274414 0.00292969c6.95117 0 12.5918 -5.6416 12.5918 -12.5918c0 -6.95117 -5.64062 -12.5918 -12.5918 -12.5918c-0.0751953 0 -0.198242 0.000976562 -0.274414 0.00292969h-44.4463
c-24.8652 0 -45.0732 -23.4492 -45.0732 -52.2305c0 -28.2041 19.7314 -51.6543 44.0195 -52.2295h45.6816zM1205.92 247.852c18.9404 -0.263672 34.5908 -6.33594 46.5234 -18.0518c11.9795 -11.749 18.2646 -26.9873 18.6436 -46.8984v-76.9795
c-0.0830078 -6.99414 -5.82617 -12.6709 -12.8213 -12.6709h-0.0810547h-0.165039h-0.0751953c-6.99512 0 -12.7266 5.67676 -12.793 12.6709v77.0615c-0.279297 12.2266 -4.21289 21.4746 -11.6514 29.0107c-7.46973 7.53711 -16.7686 10.417 -27.6621 10.6475h-39.1143
l-0.0664062 -116.72c-0.0683594 -6.99512 -5.80176 -12.6719 -12.7959 -12.6719c-0.0244141 0 -0.0634766 0.000976562 -0.0878906 0.000976562c-7.27344 0 -13.0322 5.67676 -13.0322 11.8809v193.354c-0.00585938 0.136719 -0.00976562 0.358398 -0.00976562 0.495117
c0 7.15625 5.80762 12.9639 12.9648 12.9639c6.99512 0 12.8018 -5.67578 12.9609 -12.6689v-51.4414h8.82031c0.0498047 0 0.116211 -0.0322266 0.164062 -0.0322266l20.207 0.0322266h2.28809zM1518.82 223.135h-33.2412v-73.7207
c-0.0117188 -0.287109 -0.0205078 -0.751953 -0.0205078 -1.03809c0 -9.30957 6.76172 -20.2344 15.0938 -24.3867c4.66113 -2.41113 12.6895 -4.72656 17.9199 -5.16699c6.94043 -0.208008 12.5732 -6.01367 12.5732 -12.957
c0 -7.15625 -5.80762 -12.9639 -12.9629 -12.9639c-0.197266 0 -0.515625 0.00878906 -0.711914 0.0195312c-8.26562 0.555664 -20.9756 4.03516 -28.3711 7.76758c-19.251 9.90625 -29.8672 27.5967 -29.8672 48.7256v150.421
c0.128906 7.1416 6.03027 12.9385 13.1738 12.9385s13.0449 -5.79688 13.1729 -12.9385v-51.5391h33.2412c7.09277 0 12.8682 -5.33203 12.8682 -11.8809c0 -6.5332 -5.77637 -13.2803 -12.8682 -13.2803zM2017.25 235.569l0.214844 -126.512
c0 -18.793 -7.24121 -36.5811 -13.9883 -45.1055c-7.58594 -9.67676 -20.998 -21.1455 -41.7959 -21.1455h-40.5811c-0.217773 -0.0136719 -0.570312 -0.0253906 -0.789062 -0.0253906c-6.68555 0 -12.1123 5.42676 -12.1123 12.1123
c0 6.68652 5.42676 12.1123 12.1123 12.1123c0.21875 0 0.571289 -0.0117188 0.789062 -0.0253906l41.3691 0.0166016c11.2725 0 15.2549 3.29199 20.4219 8.73828c6.02148 6.31934 9.13281 16.4883 9.31445 30.1143c-10.1006 -6.54785 -28.0674 -11.8779 -40.1045 -11.8975
c-18.9561 0.279297 -34.6045 6.35156 -46.5684 18.0684c-11.9785 11.7158 -18.2666 27.7441 -18.5938 47.6553v75.8936c0.138672 7.00293 5.93652 12.6865 12.9414 12.6865s12.8027 -5.68359 12.9414 -12.6865v-75.9258c0.3125 -12.2598 4.21289 -22.2979 11.6689 -29.835
c6.25391 -6.42188 18.6064 -11.6348 27.5713 -11.6348c8.96387 0 21.3164 5.21289 27.5703 11.6348c7.47266 7.53711 11.3877 17.5752 11.7178 29.8838v75.877c0.143555 7.00293 5.94531 12.6865 12.9502 12.6865s12.8057 -5.68359 12.9502 -12.6865zM1787.09 249.661
c36.1191 0 75.3838 -25.4561 75.3838 -81.291c0 -8.54004 -5.03613 -14.7598 -15.9619 -14.7598h-105.448c4.87012 -24.9805 26.6426 -38.7207 61.5264 -38.7207c12.6719 0 21.3447 2.22168 34.4922 6.10547c11.7168 3.43848 23.4824 -15.4033 4.67383 -22.3643
c-14.2832 -5.29785 -24.6836 -7.4043 -37.6992 -7.4043c-67.1729 0 -91.083 41.7148 -91.083 80.748c0 50.9961 37.2891 77.6865 74.1162 77.6865zM1836.75 177.486l0.000976562 0.000976562c0.0126953 0.00976562 0.0273438 0.0322266 0.0302734 0.0488281
c-0.918945 33.7178 -26.1299 49.1201 -49.5781 49.1201c-22.957 0 -47.6582 -15.3701 -48.5449 -49.0869zM374.896 237.907c7.60156 -3.42285 12.0127 -6.38477 19.5498 -16.0107c6.72949 -8.52441 14.0029 -26.2969 14.0029 -45.1055v-75.5967
c-0.0849609 -6.97656 -5.81641 -12.6387 -12.793 -12.6387c-0.0292969 0 -0.078125 0 -0.108398 0.000976562h-69.8701c-31.793 0.229492 -57.6279 25.6543 -57.6279 56.6729c0 31.002 25.6221 56.459 57.084 56.7549h53.8262
c-1.01855 2.48438 -3.29688 6.12598 -5.08496 8.12988c-5.5127 5.75879 -13.0322 8.7207 -22.3633 8.78711h-44.0996c-0.21582 -0.0136719 -0.566406 -0.0253906 -0.782227 -0.0253906c-6.68066 0 -12.1025 5.42188 -12.1025 12.1025s5.42188 12.1025 12.1025 12.1025
c0.207031 0 0.542969 -0.00976562 0.749023 -0.0234375l41.7812 0.0332031c0.269531 0.00488281 0.708008 0.0078125 0.977539 0.0078125c7.13379 0 18.2256 -2.32617 24.7588 -5.19141zM379.06 112.762l0.0654297 65.0332h-52.7236
c-19.0225 -0.115234 -33.9316 -14.3164 -33.9316 -32.5654c0.154297 -17.9238 14.8252 -32.4697 32.749 -32.4697c0.113281 0 0.296875 0.000976562 0.40918 0.00195312h53.4316zM715.707 243.343h0.0849609c7.00391 0 12.7383 -5.68359 12.8008 -12.6865v-125.689
c0 -18.8408 -7.25879 -36.5801 -13.9717 -45.1211c-7.60254 -9.62695 -11.9795 -12.5723 -19.5654 -15.9785c-5.41309 -2.45605 -14.6211 -4.75684 -20.5537 -5.13379h-42.2744c-0.217773 -0.0146484 -0.571289 -0.0253906 -0.789062 -0.0253906
c-6.67773 0 -12.0967 5.41895 -12.0967 12.0957s5.41895 12.0957 12.0967 12.0957c0.217773 0 0.571289 -0.0117188 0.789062 -0.0253906l41.4033 0.0488281c6.62793 0.078125 15.7617 3.99219 20.3887 8.73828c3.6748 4.12598 7.69238 11.8369 8.9668 17.2129h-37.2725
h-0.0615234c-16.915 0 -39.6514 10.3574 -50.752 23.1201c-11.0742 12.6094 -20.0625 36.4639 -20.0625 53.2461c0 0.192383 0.000976562 0.50293 0.00292969 0.695312c0 42.6855 31.6768 77.4072 70.6289 77.4072h50.2373zM704.748 113.722v104.361l-39.2793 0.0654297
c-24.8818 0 -45.0889 -23.4326 -45.0889 -52.2129c0 -28.2549 19.7627 -51.6709 44.0674 -52.2471zM504.07 243.26c18.9561 -0.246094 34.6045 -6.30176 46.5527 -17.9355c11.9795 -11.7002 18.2656 -27.6299 18.627 -47.4424v-76.584
c-0.0859375 -6.95801 -5.80273 -12.6055 -12.7617 -12.6055h-0.12207h-0.131836h-0.143555c-6.95898 0 -12.666 5.64648 -12.7402 12.6055v76.6504c-0.330078 12.1934 -4.26172 22.1982 -11.6846 29.6689c-6.26855 6.39551 -18.625 11.585 -27.5801 11.585
s-21.3105 -5.18945 -27.5791 -11.585c-7.43848 -7.50391 -11.3711 -17.5088 -11.668 -29.7188v-76.6016c-0.192383 -6.95801 -5.99707 -12.6055 -12.958 -12.6055s-12.7666 5.64746 -12.959 12.6055v76.5518c0.411133 19.8779 6.66504 35.8242 18.5947 47.4746
c11.9805 11.6348 27.6289 17.6904 46.5537 17.9365zM832.169 245.668c42.5381 0 77.1768 -35.6104 77.1768 -79.3652c0 -43.7393 -34.6387 -79.3496 -77.1768 -79.3496c-42.5723 0 -77.1777 35.6104 -77.1777 79.3496c0 43.7549 34.6055 79.3652 77.1777 79.3652z
M832.169 113.645c27.6465 0 50.1406 23.6133 50.1406 52.6582c0 29.0439 -22.4951 52.6738 -50.1406 52.6738c-27.6787 0 -50.1895 -23.6299 -50.1895 -52.6738c0 -29.0449 22.5117 -52.6582 50.1895 -52.6582zM191.279 243.256
c15.7803 -0.363281 28.8467 -5.39746 38.8848 -14.9424c8.56641 -8.04199 15.5332 -24.1064 15.5508 -35.8564v-91.1475c-0.179688 -6.96777 -5.98145 -12.623 -12.9512 -12.623s-12.7725 5.65527 -12.9512 12.623v84.8447
c-0.130859 10.0713 -2.78027 18.1338 -7.94727 23.96c-5.18359 5.90723 -12.3428 8.93457 -21.7705 9.0498c-9.47949 0 -17.0977 -2.92871 -22.627 -8.75391c-5.64355 -5.875 -8.57324 -15.5342 -8.67188 -28.6992v-80.4023
c-0.0898438 -6.9043 -5.7666 -12.5439 -12.6709 -12.5889v-0.0322266c-0.0332031 0 -0.0830078 0.0166016 -0.131836 0.0166016s-0.0986328 -0.0166016 -0.148438 -0.0166016v0.0322266c-6.9043 0.0458984 -12.5801 5.68555 -12.6699 12.5889v80.4023
c-0.0996094 13.1641 -3.02832 22.8242 -8.67285 28.6982c-5.54492 5.82617 -13.1475 8.75488 -22.6094 8.75488c-9.44629 -0.115234 -16.6045 -3.14258 -21.7881 -9.05078c-5.16602 -5.8252 -7.7998 -13.8887 -7.94824 -23.959v-84.8457
c-0.172852 -6.96777 -5.9707 -12.623 -12.9414 -12.623s-12.7686 5.65527 -12.9424 12.623v91.1484c0.0185547 11.7461 6.97754 27.8096 15.5342 35.8564c10.0381 9.54492 23.1201 14.5801 38.8848 14.9424h0.202148c7.10742 0 18.1562 -2.32227 24.6621 -5.18359
c7.19141 -3.20898 15.3691 -8.01465 20.3398 -14.2842c0.0234375 -0.0224609 0.0673828 -0.0517578 0.0976562 -0.0654297c0.0283203 0.0166016 0.0732422 0.0458984 0.0996094 0.0654297c4.95215 6.26953 13.1318 11.0752 20.3223 14.2842
c6.50293 2.86133 17.5459 5.18359 24.6494 5.18359h0.214844z" />
    <glyph glyph-name="megaphone-solid" unicode="&#xf11d;" 
d="M417.663 258.791c17.4219 -43.0052 27.2975 -81.3509 29.627 -115.037c2.31771 -35.444 -3.49251 -56.3587 -17.4307 -62.7441c-3.75149 -1.5013 -7.64765 -2.25195 -11.6885 -2.25195c-5.45675 0 -10.5668 1.3291 -15.3301 3.9873
c-10.6038 4.57247 -20.4798 10.383 -29.6279 17.4316c-9.88802 8.13346 -24.4137 14.2344 -43.5771 18.3027c-14.7361 3.09961 -29.6326 4.64941 -44.6895 4.64941c-7.48702 0 -14.9564 -0.386393 -22.4082 -1.15918c-8.14323 -1.17188 -14.2445 -4.07715 -18.3037 -8.71582
c-4.06185 -4.07096 -4.93132 -9.59049 -2.6084 -16.5586c4.05339 -11.0417 10.7331 -27.0186 20.0391 -47.9307c3.00879 -4.10568 6.78646 -7.30165 11.333 -9.58789c5.78442 -3.47241 9.26814 -6.37735 10.4512 -8.71484
c4.06185 -10.4512 0.868815 -17.4219 -9.5791 -20.9121c-17.4303 -6.9707 -32.8255 -12.7809 -46.1855 -17.4307c-8.71549 -3.48112 -16.5586 2.62012 -23.5293 18.3037c-10.4694 25.5553 -19.1849 45.3096 -26.1465 59.2627
c-1.75391 3.48112 -6.69173 5.80469 -14.8135 6.9707c-8.93538 1.7045 -15.909 6.35164 -20.9209 13.9414c-5.6695 -1.62104 -11.189 -3.65684 -16.5586 -6.10742c-10.4512 -3.48047 -21.4902 -1.73535 -33.1172 5.23535
c-11.4625 5.99365 -19.5933 14.9969 -24.3926 27.0098c-4.66211 9.87826 -5.24674 21.4987 -1.75391 34.8613c2.9082 13.9414 9.30013 23.2386 19.1758 27.8916c33.2512 12.8261 64.9142 28.8001 94.9893 47.9219c26.7188 17.4303 45.0192 32.8255 54.9014 46.1855
c10.3928 12.5803 19.1083 26.2336 26.1465 40.96c5.99204 10.9013 9.76938 22.5217 11.332 34.8613c0.674515 9.1543 2.99808 17.8698 6.9707 26.1465c3.1182 7.33791 8.34672 12.5668 15.6855 15.6865c14.5137 5.79818 33.9775 -4.36849 58.3916 -30.5
c23.8105 -26.1465 45.016 -60.1328 63.6182 -101.959zM408.946 142.009c0.563151 8.71549 -0.888021 23.2412 -4.35352 43.5771c-4.5425 19.3834 -10.6437 38.2656 -18.3037 56.6465c-9.30599 22.0749 -19.4756 40.375 -30.5088 54.9004
c-11.0326 17.4225 -20.9085 29.9128 -29.6279 37.4707c-7.55208 8.125 -12.7806 11.6117 -15.6855 10.46c-2.9082 -1.17188 -4.35938 -7.27279 -4.35352 -18.3027c-0.590495 -10.4603 0.860677 -26.1465 4.35352 -47.0586
c3.82037 -20.3415 9.63059 -40.0961 17.4307 -59.2637c8.11481 -18.9004 18.2825 -36.6188 30.5029 -53.1553c13.3594 -16.8587 23.5257 -28.1855 30.499 -33.9805c8.125 -6.97917 13.3568 -9.88411 15.6953 -8.71484c2.89909 1.73568 4.35026 7.54297 4.35352 17.4219z" />
    <glyph glyph-name="pen" unicode="&#xf110;" 
d="M401.374 375.462l39.7939 -39.7939c3.77051 -3.7666 6.83203 -11.1504 6.83203 -16.4805s-3.06152 -12.7139 -6.83203 -16.4805l-34.3047 -34.3047c-1.67285 -1.67676 -4.9541 -3.03809 -7.32324 -3.03809s-5.65039 1.36133 -7.32324 3.03809l-58.085 58.085
c-1.67676 1.67285 -3.03809 4.9541 -3.03809 7.32324s1.36133 5.65039 3.03809 7.32324l34.3047 34.3281c3.7666 3.76172 11.1445 6.81445 16.4688 6.81445c5.32324 0 12.7012 -3.05273 16.4688 -6.81445zM321.667 314.046l58.1084 -58.085
c1.67676 -1.67285 3.03809 -4.9541 3.03809 -7.32324s-1.36133 -5.65039 -3.03809 -7.32324l-190.027 -190.027c-1.67383 -1.66699 -4.94922 -3.02051 -7.31152 -3.02051s-5.6377 1.35352 -7.31152 3.02051l-58.1084 58.1084
c-1.67188 1.67578 -3.0293 4.95605 -3.0293 7.32324s1.35742 5.64844 3.0293 7.32324l190.027 190.004c1.66699 1.68164 4.94238 3.04688 7.31152 3.04688c2.36816 0 5.64355 -1.36523 7.31152 -3.04688zM106.014 95.5156l55.2314 -55.2324
c1.25098 -1.25684 2.26562 -3.71582 2.26562 -5.48926s-1.01465 -4.23242 -2.26562 -5.48926c-2.20508 -2.18164 -84.7656 -29.8213 -87.7139 -30.8047c-0.484375 -0.114258 -1.28125 -0.207031 -1.77832 -0.207031c-4.27051 0 -7.73633 3.46582 -7.73633 7.73633
c0 0.474609 0.0849609 1.23633 0.189453 1.7002c1.03027 3.14062 28.623 85.5811 30.8281 87.7861c1.25684 1.25 3.7168 2.26562 5.48926 2.26562c1.77344 0 4.23242 -1.01562 5.49023 -2.26562z" />
    <glyph glyph-name="camera" unicode="&#xf116;" 
d="M168.728 174.954v0c0 48.1748 39.0977 87.2734 87.2725 87.2734s87.2725 -39.0986 87.2725 -87.2734c0 -48.1738 -39.0977 -87.2725 -87.2725 -87.2725v0c-48.1748 0 -87.2725 39.0986 -87.2725 87.2725zM98.9248 270.954l-0.015625 -209.417
c0 -0.0419922 314.166 -0.0371094 314.166 -0.0371094l0.015625 209.417c0 0.0419922 -63.7607 0.0371094 -63.7607 0.0371094c-4.66406 0.213867 -10.0352 3.82715 -11.9902 8.06738l-17.8135 44.2959l-127.163 0.00390625l-17.6738 -44.1855
c-1.93945 -4.28125 -7.32324 -7.94727 -12.0176 -8.18262h-63.7471v0.000976562zM147.782 305.863l14.4609 36.1523c3.58105 8.95312 14.3232 16.2109 23.8594 16.2109h139.797c9.5957 0 20.29 -7.29004 23.8594 -16.2109l14.4609 -36.1523h48.8564h0.00878906
c19.2734 0 34.915 -15.6416 34.915 -34.915v-0.03125v-209.38v-0.00292969c0 -19.2783 -15.6465 -34.9336 -34.9248 -34.9434h-314.15h-0.00976562c-19.2734 0 -34.915 15.6416 -34.915 34.9141v0.0322266v209.38v0.00292969c0 19.2783 15.6465 34.9336 34.9248 34.9434
h48.8574zM306.057 190.373v0.000976562c-3.83887 -8.51172 -14.5332 -15.4199 -23.8711 -15.4199c-14.4541 0 -26.1855 11.7314 -26.1855 26.1855c0 9.33789 6.9082 20.0312 15.4199 23.8701c-4.14551 1.27441 -11.0283 2.30762 -15.3643 2.30762
c-28.874 0 -52.3086 -23.4336 -52.3086 -52.3076c0 -28.875 23.4346 -52.3086 52.3086 -52.3086s52.3076 23.4336 52.3076 52.3086c0 4.33594 -1.0332 11.2188 -2.30664 15.3633z" />
    <glyph glyph-name="time" unicode="&#xf139;" 
d="M450.56 191.522c0 -107.397 -87.1621 -194.561 -194.56 -194.561s-194.56 87.1631 -194.56 194.561c0 107.396 87.1621 194.56 194.56 194.56s194.56 -87.1631 194.56 -194.56zM393.813 191.522v0.0507812c0 76.0732 -61.7402 137.813 -137.813 137.813
s-137.813 -61.7402 -137.813 -137.813s61.7402 -137.813 137.813 -137.813c75.9697 0.0751953 137.71 61.793 137.813 137.763zM288.427 280.747v-113.494c0 -0.0283203 0.000976562 -0.0742188 0.000976562 -0.102539c0 -4.41895 -3.58594 -8.00391 -8.00488 -8.00391
h-0.102539h-81.0674h-0.102539c-4.41895 0 -8.00391 3.58496 -8.00391 8.00391v0.102539v16.2139v0.102539c0 4.41895 3.58496 8.00488 8.00391 8.00488c0.0283203 0 0.0742188 -0.000976562 0.102539 -0.000976562h56.7471v89.1738
c0 0.0283203 -0.000976562 0.0742188 -0.000976562 0.102539c0 4.41895 3.58594 8.00391 8.00488 8.00391h0.102539h16.2139h0.102539c4.41895 0 8.00488 -3.58496 8.00488 -8.00391c0 -0.0283203 -0.000976562 -0.0742188 -0.000976562 -0.102539z" />
    <glyph glyph-name="mail" unicode="&#xf10d;" 
d="M418.613 309.991v-20c-0.224609 -0.84668 -0.97168 -1.9668 -1.66699 -2.5c-1.23535 -0.546875 -3.10254 -1.66699 -4.16602 -2.5l-156.667 -91.666c0 -0.560547 -0.55957 -0.833984 -1.66699 -0.833984l-0.833008 0.833984l-161.667 91.666
c-0.699219 0.530273 -1.44629 1.65039 -1.66602 2.5v22.5c0 7.21354 3.611 10.8245 10.833 10.833h306.667c7.21289 0 10.8239 -3.611 10.833 -10.833zM94.4473 109.158c0 -0.55957 -0.560547 -0.833008 -1.66699 -0.833008h-0.833984
c-0.699219 0.530273 -1.44629 1.65039 -1.66602 2.5v139.166c-0.00585938 0.0722656 -0.0107422 0.19043 -0.0107422 0.262695c0 0.705078 0.37793 1.70801 0.84375 2.2373h3.33398l92.5 -53.333c0.0556641 0.0078125 0.147461 0.0146484 0.204102 0.0146484
c0.814453 0 1.47656 -0.662109 1.47656 -1.47754c0 -0.0566406 -0.00683594 -0.147461 -0.0146484 -0.204102c0.00585938 -0.0703125 0.00976562 -0.185547 0.00976562 -0.256836c0 -0.706055 -0.376953 -1.71094 -0.842773 -2.24316zM406.947 70.8252
c0.545898 -0.55957 0.545898 -1.66699 0 -3.33301c0 -1.12012 -0.833984 -1.66699 -2.5 -1.66699h-303.334c-1.65137 0.314453 -4.26465 1.06152 -5.83301 1.66699c-0.0419922 0.553711 -0.416016 1.30078 -0.833984 1.66602v0.833984
c-0.00488281 0.0722656 -0.00976562 0.189453 -0.00976562 0.261719c0 0.705078 0.37793 1.70801 0.84375 2.23828l118.333 109.165c1.66699 1.10742 2.77344 1.38086 3.33301 0.833984l30.834 -18.334c1.65723 -0.824219 4.50488 -1.49316 6.35645 -1.49316
c2.34668 0 5.8457 1.04199 7.80957 2.32715l35 20.833c0.154297 0.0175781 0.404297 0.0322266 0.558594 0.0322266c0.84082 0 2.08398 -0.387695 2.77539 -0.865234zM418.613 252.492v-147.5c0 -1.66699 -0.55957 -2.5 -1.66602 -2.5l-0.833984 -0.833984
c-0.643555 0.370117 -1.76367 0.743164 -2.5 0.833984l-88.333 95.833l-0.833008 1.66699v0.833008l1.66602 1.66699l88.334 51.666c0.305664 0.231445 0.865234 0.419922 1.25 0.419922c0.383789 0 0.943359 -0.188477 1.25 -0.419922
c0.0556641 0.0078125 0.147461 0.0136719 0.203125 0.0136719c0.81543 0 1.47754 -0.661133 1.47754 -1.47656c0 -0.0566406 -0.00683594 -0.148438 -0.0146484 -0.204102v0.000976562z" />
    <glyph glyph-name="circle" unicode="&#xf106;" 
d="M256 324.267c-72.9287 -0.0820312 -132.185 -59.3379 -132.267 -132.267c0 -73.0107 59.2559 -132.267 132.267 -132.267s132.267 59.2559 132.267 132.267s-59.2559 132.267 -132.267 132.267zM256 384v0c105.984 0 192 -86.0156 192 -192s-86.0156 -192 -192 -192
s-192 86.0156 -192 192s86.0156 192 192 192z" />
    <glyph glyph-name="trash" unicode="&#xf112;" 
d="M426.404 260.809v-230.133c-0.00585938 -12.7002 -10.3174 -23.0098 -23.0176 -23.0137h-276.214c-12.6992 0.00390625 -23.0117 10.3135 -23.0176 23.0137v230.133h-23.0176v23.0137c0.00585938 12.7002 10.3184 23.0098 23.0176 23.0137h92.0713v46.0264
c0.00585938 12.7002 10.3174 23.0107 23.0176 23.0137h92.0713c12.7002 -0.00292969 23.0117 -10.3125 23.0176 -23.0127v-46.0273h92.0713c12.7002 -0.00390625 23.0117 -10.3135 23.0176 -23.0137v-23.0137h-23.0176zM242.262 306.836h46.0361v23.0127h-46.0361v-23.0127z
M150.191 53.6895h230.178v207.119h-230.178v-207.119zM196.227 99.7158v115.066h46.0361v-115.066h-46.0361zM288.298 99.7158v115.066h46.0352v-115.066h-46.0352z" />
    <glyph glyph-name="bubble" unicode="&#xf100;" 
d="M396.8 102.4h-76.7998l-153.6 -102.4l-17.0752 102.4h-34.125h-0.0146484c-28.2539 0 -51.1855 22.9307 -51.1855 51.1855v0.0136719v179.2v0.0146484c0 28.2539 22.9316 51.1855 51.1855 51.1855h0.0146484h281.6h0.0146484
c28.2539 0 51.1855 -22.9316 51.1855 -51.1855v-0.0146484v-179.2v-0.0136719c0 -28.2549 -22.9316 -51.1855 -51.1855 -51.1855h-0.0146484zM396.8 332.519h-281.6v-179.2h77.5166l11.1611 -67.0723l100.634 67.0723h92.2881v179.2z" />
    <glyph glyph-name="twitter" unicode="&#xf113;" 
d="M385.28 259.991v-8.33301c0 -48.8932 -17.3613 -93.0599 -52.084 -132.5c-34.7266 -39.4531 -81.2542 -59.1755 -139.583 -59.167c-0.626302 -0.00520833 -1.19303 -0.0078125 -1.7002 -0.0078125c-15.2481 0 -32.7982 2.93075 -52.6504 8.79225
c-19.8522 5.8615 -36.1797 12.9334 -48.9824 21.2156c4.4737 -0.572917 8.96784 -0.859375 13.4824 -0.859375c0.788932 0 1.57246 0.00878906 2.35059 0.0263672c0.232422 -0.00195312 0.513021 -0.00292969 0.841797 -0.00292969
c12.9081 0 27.5001 2.84894 43.7762 8.54681c16.2761 5.69787 29.4591 12.5722 39.549 20.6231c-0.29375 -0.00520833 -0.626432 -0.0078125 -0.998047 -0.0078125c-14.3993 0 -27.2613 4.44694 -38.5859 13.3408c-11.3544 8.66387 -19.2711 19.7749 -23.75 33.333
c4.1208 -0.937511 8.28746 -1.49285 12.5 -1.66602c0.24349 -0.00260417 0.463867 -0.00390625 0.661133 -0.00390625c6.00954 0 11.9005 0.83431 17.6729 2.50293c-15.6668 3.21285 -28.5837 10.9908 -38.751 23.334c-10.2812 11.9844 -15.4219 25.8717 -15.4219 41.6621
c0 0.25 0.00195312 0.529297 0.00585938 0.837891v1.66699c9.3025 -5.33644 19.3025 -8.3921 30 -9.16699c-20 14.4401 -30 33.3288 -30 56.666c0.0141539 11.9483 3.06982 23.0596 9.16699 33.334c36.1068 -43.8932 82.4954 -67.2266 139.166 -70
c-0.937503 4.96262 -1.49284 9.96262 -1.66602 15c-0.00195312 0.173828 -0.00292969 0.384115 -0.00292969 0.630859c0 18.4566 6.53106 34.2161 19.5932 47.2785c13.0621 13.0624 28.8214 19.5936 47.2779 19.5936c0.246419 0 0.457031 -0.000976562 0.631836 -0.00292969
c18.8796 0 35.2682 -6.94434 49.166 -20.833c15.2804 2.28434 29.4471 7.56201 42.5 15.833c-5.04303 -15.9429 -14.7654 -28.1652 -29.167 -36.667c11.6667 0.546224 24.4443 3.87956 38.333 10c-9.11464 -13.5699 -20.2253 -25.2366 -33.332 -35z" />
    <glyph glyph-name="shopping-cart" unicode="&#xf11a;" 
d="M182.772 -3.89355c-20.6494 0 -37.4082 16.7588 -37.4082 37.4092c0 20.6494 16.7588 37.4082 37.4082 37.4082c20.6504 0 37.4092 -16.7588 37.4092 -37.4082c0 -20.6504 -16.7588 -37.4092 -37.4092 -37.4092zM351.112 -3.89355
c-20.6494 0 -37.4082 16.7588 -37.4082 37.4092c0 20.6494 16.7588 37.4082 37.4082 37.4082s37.4092 -16.7588 37.4092 -37.4082c0 -20.6504 -16.7598 -37.4092 -37.4092 -37.4092v0zM166.017 183.15l219.495 0.00878906l17.7129 94.8242l-262.813 16.0752z
M131.635 332.074l297.502 -18.2432c8.60059 -0.232422 15.5801 -7.40332 15.5801 -16.0068c0 -0.945312 -0.162109 -2.46387 -0.362305 -3.3877l-24.3477 -130.34c-2.15039 -9.83008 -12.0586 -18.0527 -22.1162 -18.3545h-223.238l4.31836 -18.7051h209.551
c10.2363 -0.0878906 18.5449 -8.4668 18.5449 -18.7041c0 -10.2383 -8.30859 -18.6172 -18.5449 -18.7051h-224.453c-8.21289 0.000976562 -16.3779 6.49609 -18.2256 14.499l-54.1025 234.445l-29.2471 14.6934c-5.6377 2.87207 -10.2129 10.3389 -10.2129 16.666
c0 10.3252 8.37988 18.7051 18.7051 18.7051c2.38574 0 6.0625 -0.849609 8.20605 -1.89648l37.1133 -18.5127c4.35645 -2.17285 8.78125 -7.78711 9.87598 -12.5312z" />
    <glyph glyph-name="star" unicode="&#xf126;" 
d="M452.267 234.107c0 -4.24609 -3.06641 -8.25586 -6.13379 -11.3232l-85.6299 -83.5068l20.2871 -117.949c0.135742 -1.08105 0.245117 -2.84375 0.245117 -3.93359c0 -0.21582 -0.00390625 -0.567383 -0.00976562 -0.78418
c0 -6.13379 -2.83008 -11.7949 -9.67188 -11.7949c-2.81152 0.0888672 -7.03906 1.35645 -9.43555 2.83105l-105.918 55.6719l-105.918 -55.6719c-2.40527 -1.44629 -6.63184 -2.71484 -9.43555 -2.83105c-6.8418 0 -9.9082 5.66113 -9.9082 11.7949
c0.0332031 1.31152 0.245117 3.42578 0.47168 4.71777l20.2871 117.949l-85.8662 83.5068c-2.83105 3.06738 -5.89746 7.07715 -5.89746 11.3232c0 7.07715 7.3125 9.9082 13.21 10.8516l118.421 17.2207l53.0771 107.333c2.12305 4.48242 6.13281 9.67188 11.5586 9.67188
s9.43555 -5.18945 11.5586 -9.67188l53.0771 -107.333l118.42 -17.2207c5.66211 -0.943359 13.2109 -3.77441 13.2109 -10.8516z" />
    <glyph glyph-name="chevron-right" unicode="&#xf104;" 
d="M378.932 180.425l-176.666 -176.667c-2.21973 -2.30078 -6.61523 -4.16797 -9.81152 -4.16797c-0.0517578 0 -0.136719 0.000976562 -0.188477 0.000976562c-0.167969 -0.00683594 -0.44043 -0.0126953 -0.608398 -0.0126953
c-3.29297 0 -7.87402 1.87305 -10.2256 4.17969l-40 40c-2.30762 2.35059 -4.17969 6.93164 -4.17969 10.2256c0 0.167969 0.00585938 0.44043 0.0126953 0.608398c0.19043 3.3584 2.05664 8.21191 4.16699 10.833l126.667 125.832l-126.667 126.668
c-2.11133 2.62012 -3.97852 7.47363 -4.16699 10.833c0.19043 3.35938 2.05762 8.21289 4.16699 10.834l40 39.166c2.22363 2.76367 6.90723 5.00586 10.4541 5.00586c0.104492 0 0.274414 -0.00195312 0.378906 -0.00488281
c3.44043 -0.0195312 7.9209 -2.25977 10 -5.00098l176.667 -176.666c2.7627 -2.23047 5.00488 -6.9209 5.00488 -10.4717c0 -0.0996094 -0.00195312 -0.262695 -0.00488281 -0.362305c-0.0966797 -3.58203 -2.33691 -8.43555 -5 -10.833z" />
    <glyph glyph-name="file-outline" unicode="&#xf13a;" 
d="M121.173 334.595c0.0146484 19.7354 16.042 35.752 35.7773 35.752h0.0292969h153.199c4.84668 -0.271484 11.7139 -3.12109 15.3291 -6.36133l58.958 -58.958c3.25684 -3.59473 6.10645 -10.4453 6.36133 -15.29v-240.272v-0.0419922
c0 -19.7344 -16.0166 -35.7598 -35.751 -35.7695h-198.152h-0.00585938c-19.7314 0 -35.7451 16.0137 -35.7451 35.7441v0.0078125v285.189zM355.104 244.906h-71.7441h-0.0703125c-9.88184 0 -17.9023 8.02051 -17.9023 17.9023v0.0185547v71.6797h-108.407
l0.0341797 -285.102c0 0.0429688 198.062 0.0878906 198.062 0.0878906c-0.0390625 0 0.00195312 137.241 0.0273438 195.413zM355.12 280.747c0.000976562 1.91016 0.00195312 2.93945 0.00195312 2.93945l-50.9795 50.8203h-2.91602v-53.7598h53.8936z" />
    <glyph glyph-name="team" unicode="&#xf122;" 
d="M133.229 171.825c-14.2038 -5.92513 -21.2998 -16.9561 -21.2881 -33.0928v-56.4922h-45.0186c-3.10294 0.115623 -5.69506 1.32493 -7.77637 3.62793c-2.45703 2.44288 -3.68555 5.39698 -3.68555 8.8623l0.00683594 0.420898v53.2676
c0 5.91732 2.4554 9.95182 7.36621 12.1035l68.7568 31.4775c-18.5573 10.7565 -27.8359 27.974 -27.8359 51.6523c0 16.1426 4.91113 29.8613 14.7334 41.1562c9.82487 11.3034 21.832 16.9538 36.0215 16.9512c7.63086 0 16.0869 -2.69043 25.3682 -8.07129
c-5.42401 -12.0628 -8.15252 -24.7073 -8.18555 -37.9336l-0.000976562 -0.432617c0 -19.9576 5.73079 -38.1051 17.1924 -54.4424c-3.08616 -2.90269 -6.36123 -5.59344 -9.8252 -8.07227zM377.961 138.732v-66.1797v-0.132812
c0 -4.32596 -1.50228 -8.04667 -4.50684 -11.1621c-2.67387 -3.16571 -6.08273 -4.7816 -10.2266 -4.84766h-216.094c-9.27865 0 -13.9137 5.38086 -13.9053 16.1426v66.1797c0 6.98982 2.72852 11.8319 8.18555 14.5264l61.3818 28.2461l23.7383 10.4951
c-11.365 6.80482 -19.821 16.2202 -25.3682 28.2461c-5.4694 10.6322 -8.2041 21.9281 -8.2041 33.8877c0 0.54401 0.00585938 1.08437 0.0175781 1.62109c-0.00195312 0.380859 -0.00292969 0.611328 -0.00292969 0.691406c0 6.86708 0.817708 13.6334 2.45312 20.2988
c3.92983 14.5541 11.5695 26.7917 22.9189 36.7129c10.5429 9.42122 22.8837 14.1318 37.0225 14.1318c14.3656 0 26.8526 -4.84245 37.4609 -14.5273c10.9089 -9.68685 18.2754 -22.3311 22.0996 -37.9326c1.98507 -6.30786 3.07784 -12.7662 3.27832 -19.375
c-0.258281 -11.5165 -2.71401 -22.5448 -7.36719 -33.085c-6.00911 -13.4583 -14.7412 -23.4124 -26.1963 -29.8623l25.377 -12.1113l58.9316 -27.4375c6.00651 -2.80099 9.00977 -7.51584 9.00977 -14.1445zM456.533 148.419v-53.2676l0.00683594 -0.420898
c0 -3.46533 -1.22852 -6.41943 -3.68555 -8.8623c-2.08253 -2.30068 -4.67465 -3.50999 -7.77637 -3.62793h-46.6572v56.4922c0 15.0566 -6.81999 26.0876 -20.46 33.0928l-43.3887 20.1748c-4.94687 2.14553 -9.03834 5.3747 -12.2744 9.6875
c10.9089 15.5957 16.3662 33.6182 16.3721 54.0674c0.00390625 0.369792 0.00585938 0.704753 0.00585938 1.00488c0 12.5416 -2.45736 24.5817 -7.37207 36.1201c7.54358 5.92188 16.1103 8.88281 25.7002 8.88281l0.487305 -0.00292969
c14.1868 0 26.194 -5.65039 36.0215 -16.9512c9.81641 -11.2949 14.7275 -25.0137 14.7334 -41.1562c0 -23.1458 -9.00553 -40.0941 -27.0166 -50.8447l67.9375 -32.2852c4.9082 -2.15495 7.36361 -6.18945 7.36621 -12.1035z" />
    <glyph glyph-name="notepad" unicode="&#xf119;" 
d="M75.2471 300.043c0.0136719 19.7354 16.042 35.752 35.7773 35.752h0.0283203h98.5859c4.84668 -0.271484 11.7148 -3.12109 15.3291 -6.36133l58.958 -58.957c3.25684 -3.5957 6.10645 -10.4463 6.36133 -15.29v-206.14v-0.0429688
c0 -19.7344 -16.0166 -35.7588 -35.751 -35.7695h-143.539h-0.00585938c-19.7305 0 -35.7441 16.0137 -35.7441 35.7451v0.00683594v251.057zM361.93 371.635h35.9141c19.7637 -0.00878906 35.8037 -16.0557 35.8037 -35.8193
c0 -0.015625 -0.000976562 -0.0419922 -0.000976562 -0.0585938v-250.842l-35.334 -59.0068c-10.1758 -16.9941 -26.708 -16.9395 -36.8516 0l-35.334 59.0068v250.842c0.00292969 19.7598 16.042 35.833 35.8027 35.8779zM397.807 147.635v134.362
c0 0.0546875 -35.877 0.0380859 -35.877 0.0380859c0.0458984 0 0.0527344 -79.0381 0.0527344 -134.4h35.8242zM397.807 111.795h-35.8262c-0.00195312 -10.5098 -0.00195312 -16.9609 -0.00195312 -16.9609l17.9082 -29.8018l17.9199 29.582v17.1807zM254.563 210.354
h-71.7441h-0.0693359c-9.88281 0 -17.9033 8.02051 -17.9033 17.9033v0.0166016v71.6807h-53.7939l0.0341797 -250.969c0 0.0439453 143.449 0.0888672 143.449 0.0888672c-0.0380859 0 0.00195312 103.106 0.0273438 161.279zM254.581 246.195
c0.000976562 1.91016 0.000976562 2.93945 0.000976562 2.93945l-50.9795 50.8203h-2.91602v-53.7598h53.8936h0.000976562z" />
    <glyph glyph-name="phone" unicode="&#xf111;" 
d="M430.025 68.6523l-50.457 -50.457c-4.6543 -4.61914 -13.6963 -9.14062 -20.1836 -10.0918h-7.06348c-55.8509 0 -116.064 32.6292 -180.639 97.8877c-65.2637 64.5859 -97.8929 127.154 -97.8877 187.703c0.951172 6.48828 5.47266 15.5303 10.0918 20.1836
l50.457 50.457c4.69922 3.3584 9.08301 5.0459 13.1191 5.0459c6.7168 0 11.7627 -3.36393 15.1377 -10.0918l41.375 -76.6953c4.03646 -11.4479 2.35449 -20.1937 -5.0459 -26.2373l-18.165 -19.1748c-2.01758 -2.01758 -3.02734 -3.70508 -3.02734 -5.04492
l2.01855 -7.06445c1.34049 -5.39323 6.0498 -14.1393 14.1279 -26.2383c7.87305 -11.46 22.3398 -28.6406 32.293 -38.3486c30.9362 -30.9525 54.8193 -47.099 71.6494 -48.4395c0.894531 0.103516 2.25098 0.555664 3.02832 1.00977
c0.876953 0.236328 1.78125 1.14062 2.01758 2.01758l22.2021 21.1924c3.61523 3.87207 10.8486 7.03711 16.1455 7.06445c0.165039 0.00585938 0.431641 0.0107422 0.59668 0.0107422c2.88867 0 7.14258 -1.36133 9.49512 -3.03809l74.6777 -43.3936
c5.3763 -3.375 8.40365 -7.74805 9.08203 -13.1191c0.662109 -4.71484 -1.01986 -9.76074 -5.0459 -15.1377z" />
    <glyph glyph-name="facebook" unicode="&#xf109;" 
d="M402.78 341.657c2.75977 -2.6123 5 -7.81738 5 -11.6182v-0.0478516v-273.333c-0.21875 -8.98145 -7.68555 -16.4482 -16.666 -16.667h-78.333v118.333h39.999l5.83301 46.667h-45.832v30c0 15 7.77767 22.5 23.333 22.5h24.166v40.834
c-8.33333 1.66667 -20.2777 2.5 -35.833 2.5c-17.7865 0 -32.0921 -5.41667 -42.917 -16.25c-10.8333 -10.8333 -16.25 -25.9723 -16.25 -45.417v-34.167h-40v-46.667h40v-118.333h-147.5c-8.98145 0.21875 -16.4482 7.68555 -16.667 16.667v273.333
c0.21875 8.98145 7.68555 16.4482 16.667 16.667h273.333h0.0488281c3.80078 0 9.00488 -2.24023 11.6182 -5.00098z" />
    <glyph glyph-name="user" unicode="&#xf120;" 
d="M417.663 119.936v-88.624c0.00292969 -0.125 0.00488281 -0.329102 0.00488281 -0.454102c0 -4.58105 -2.39941 -11.1396 -5.35645 -14.6387c-2.74707 -3.49805 -8.58691 -6.33789 -13.0352 -6.33789c-0.0322266 0 -0.0849609 0.000976562 -0.117188 0.000976562
h-286.328c-0.0380859 -0.000976562 -0.0996094 -0.000976562 -0.137695 -0.000976562c-4.44141 0 -10.2676 2.83984 -13.0049 6.33789c-2.95703 3.4873 -5.35742 10.0293 -5.35742 14.6016c0 0.135742 0.00195312 0.355469 0.00488281 0.491211v88.624
c-0.00976562 0.245117 -0.0175781 0.642578 -0.0175781 0.887695c0 7.33105 5.24121 16.0967 11.6982 19.5674l80.834 37.0098l31.1592 14.6045c-14.2799 8.42969 -25.6416 21.0879 -34.085 37.9746c-5.86426 12.5195 -10.6602 33.9004 -10.7051 47.7246
c0.255859 7.9082 1.99902 20.5625 3.89062 28.2451c5.18945 20.1198 15.0918 36.5156 29.707 49.1875c14.6048 12.6543 30.9974 18.9814 49.1777 18.9814c18.8301 0 35.3883 -6.65234 49.6748 -19.957c12.1768 -11.4482 25.2627 -33.9209 29.209 -50.1621
c2.15723 -6.78223 3.90723 -18.0625 3.90723 -25.1797c0 -0.307617 -0.00292969 -0.807617 -0.00683594 -1.11523c-0.0966797 -12.9277 -4.45996 -32.999 -9.74023 -44.7998c-8.44987 -18.1797 -19.8115 -31.488 -34.085 -39.9248l33.1094 -15.5801l77.9102 -37.0098
c7.80013 -3.89974 11.6969 -10.7178 11.6904 -20.4541z" />
    <glyph glyph-name="life-saver" unicode="&#xf10a;" 
d="M256 384c105.979 -0.00488281 191.995 -86.0205 192 -192c0 -105.984 -86.0156 -192 -192 -192s-192 86.0156 -192 192s86.0156 192 192 192zM256 336c-25.3643 -0.000976562 -62.6846 -11.9902 -83.3037 -26.7598l34.6074 -34.6084
c12.4277 7.37891 34.2432 13.3682 48.6963 13.3682s36.2686 -5.98926 48.6963 -13.3682l34.6074 34.6074c-20.6191 14.7705 -57.9395 26.7598 -83.3037 26.7607zM304 192c-0.0214844 2.05859 -0.355469 5.37012 -0.744141 7.3916
c-2.97559 19.0293 -20.834 36.8887 -39.8643 39.8643c-2.01855 0.411133 -5.33105 0.744141 -7.3916 0.744141s-5.37207 -0.333008 -7.3916 -0.744141c-19.0361 -2.96875 -36.8955 -20.8281 -39.8643 -39.8643c-0.411133 -2.01953 -0.744141 -5.33105 -0.744141 -7.3916
s0.333008 -5.37305 0.744141 -7.3916c2.96191 -19.0439 20.8213 -36.9023 39.8643 -39.8643c2.01953 -0.411133 5.33105 -0.744141 7.3916 -0.744141s5.37305 0.333008 7.3916 0.744141c19.0371 2.96875 36.8955 20.8271 39.8643 39.8643
c0.388672 2.02148 0.722656 5.33301 0.744141 7.3916zM112 192c0.000976562 -25.3643 11.9902 -62.6846 26.7598 -83.3037l34.6084 34.6074c-7.37891 12.4277 -13.3682 34.2432 -13.3682 48.6963s5.98926 36.2686 13.3682 48.6963l-34.6074 34.6074
c-14.7705 -20.6191 -26.7598 -57.9395 -26.7607 -83.3037zM256 48c25.3643 0.000976562 62.6846 11.9902 83.3037 26.7607l-34.6074 34.6074c-12.4277 -7.37891 -34.2432 -13.3682 -48.6963 -13.3682s-36.2686 5.98926 -48.6963 13.3682l-34.6074 -34.6074
c20.6191 -14.7705 57.9395 -26.7598 83.3037 -26.7607zM373.24 108.696l-34.6084 34.6074c7.37891 12.4277 13.3682 34.2432 13.3682 48.6963s-5.98926 36.2686 -13.3682 48.6963l34.6084 34.6074c14.7715 -20.6191 26.7598 -57.9395 26.7598 -83.3037
s-11.9883 -62.6846 -26.7598 -83.3037z" />
    <glyph glyph-name="world" unicode="&#xf133;" 
d="M256 -4.2666c-103.629 0 -187.733 84.1045 -187.733 187.733s84.1045 187.733 187.733 187.733s187.733 -84.1045 187.733 -187.733s-84.1045 -187.733 -187.733 -187.733zM122.231 186.556c13.1758 1.46777 40.4482 3.41309 53.3164 -3.08887
c22.2891 -11.3496 46.5068 -38.8271 46.5068 -38.8271l-53.4873 -62.0879c20.8926 -18.709 60.6113 -33.8936 88.6562 -33.8936c73.3604 0 132.898 59.5381 132.898 132.898c0 10.7881 -2.52051 27.9297 -5.62695 38.2617
c-10.9229 -12.7314 -33.041 -29.0127 -33.041 -29.0127c-18.7734 2.09863 -9.66016 -21.1289 -9.66016 -21.1289c7.91895 -51.3877 -19.3359 -57.7197 -19.3359 -57.7197c-37.1377 -38.2295 -66.458 44.6982 -66.458 44.6982
c-6.82715 46.0801 -10.8369 60.9277 -10.8369 60.9277c-47.5479 29.7129 -0.700195 40.5508 9.38672 42.2744h0.290039c2.40625 0.34082 1.82617 0.375 -0.290039 0c-13.4658 -1.84375 -10.8887 6.33105 -19.0469 21.1279s-18.2959 -2.52539 -19.3369 0
c-1.04102 2.52637 -5.76855 -27.3066 -19.3018 -31.6924c-13.5342 -4.38672 -9.66016 31.6924 -9.66016 31.6924c-26.1455 -40.0381 -34.6963 -29.8154 -37.4443 -16.6572c-14.5889 -18.9902 -26.9297 -53.833 -27.5449 -77.7725z" />
    <glyph glyph-name="megaphone-outline" unicode="&#xf11c;" 
d="M456.604 194.669c-0.101562 -33.4561 -26.4805 -67.3789 -58.8799 -75.7197v-100.92h-39.2539v17.3066l-137.386 68.6934v-36.9043c0 -27.085 -21.9824 -49.0664 -49.0674 -49.0664s-49.0664 21.9814 -49.0664 49.0664v68.6641h-19.627
c-21.6465 0.0205078 -39.2324 17.6064 -39.2529 39.2529v39.2539c0.0205078 21.6465 17.6064 39.2324 39.2529 39.2529h54.2402l200.906 100.453v17.3066h39.2539v-100.92c32.3994 -8.34082 58.7783 -42.2637 58.8799 -75.7197zM103.324 214.296v-39.2539h39.2539v39.2539
h-39.2539zM181.831 67.125v56.5303l-19.627 9.81348v-66.3438c0 -5.41699 4.39648 -9.81348 9.81348 -9.81348s9.81348 4.39648 9.81348 9.81348zM181.831 167.549l176.64 -88.3203v230.881l-176.64 -88.3203v-54.2402zM397.725 160.874
c10.834 6.18164 19.627 21.3213 19.627 33.7949s-8.79297 27.6133 -19.627 33.7949v-67.5898z" />
    <glyph glyph-name="info" unicode="&#xf12b;" 
d="M256 -4.2666c-108.339 0 -196.267 87.9277 -196.267 196.267s87.9277 196.267 196.267 196.267s196.267 -87.9277 196.267 -196.267c-0.0380859 -108.302 -87.9648 -196.229 -196.267 -196.267zM321.422 110.223
c0.000976562 0.0244141 0.000976562 0.0634766 0.000976562 0.0878906c0 4.45605 -3.61621 8.07227 -8.07227 8.07227c-0.0341797 0 -0.0898438 -0.000976562 -0.125 -0.000976562h-24.5146v130.844c0.000976562 0.0322266 0.000976562 0.0849609 0.000976562 0.117188
c0 4.45996 -3.62012 8.08008 -8.08008 8.08008c-0.0322266 0 -0.0849609 0 -0.117188 -0.000976562h-81.7402c-0.0322266 0.000976562 -0.0849609 0.000976562 -0.117188 0.000976562c-4.45996 0 -8.08008 -3.62012 -8.08008 -8.08008
c0 -0.0322266 0 -0.0849609 0.000976562 -0.117188v-40.8701c-0.000976562 -0.0244141 -0.000976562 -0.0634766 -0.000976562 -0.0878906c0 -4.45605 3.61621 -8.07227 8.07227 -8.07227c0.0341797 0 0.0898438 0.000976562 0.125 0.000976562h24.5146v-81.8145h-24.5146
c-0.0351562 0 -0.0908203 0.000976562 -0.125 0.000976562c-4.45605 0 -8.07227 -3.61621 -8.07227 -8.07227c0 -0.0244141 0 -0.0634766 0.000976562 -0.0878906v-40.8711c-0.000976562 -0.0322266 -0.000976562 -0.0839844 -0.000976562 -0.116211
c0 -4.46094 3.62012 -8.08105 8.08008 -8.08105c0.0322266 0 0.0849609 0.000976562 0.117188 0.000976562h114.451c0.0322266 0 0.0849609 -0.000976562 0.117188 -0.000976562c4.45996 0 8.08008 3.62012 8.08008 8.08105c0 0.0322266 0 0.0839844 -0.000976562 0.116211
v40.8711zM288.711 339.2c0 0.0244141 0.000976562 0.0634766 0.000976562 0.0878906c0 4.45605 -3.61621 8.07227 -8.07227 8.07227c-0.0341797 0 -0.0908203 -0.000976562 -0.125 -0.000976562h-49.0293c-0.0341797 0 -0.0908203 0.000976562 -0.125 0.000976562
c-4.45605 0 -8.07227 -3.61621 -8.07227 -8.07227c0 -0.0244141 0.000976562 -0.0634766 0.000976562 -0.0878906v-40.8701c-0.000976562 -0.0322266 -0.000976562 -0.0849609 -0.000976562 -0.117188c0 -4.46094 3.62012 -8.08008 8.08008 -8.08008
c0.0322266 0 0.0849609 0 0.117188 0.000976562h49.0293c0.0322266 -0.000976562 0.0849609 -0.000976562 0.117188 -0.000976562c4.45996 0 8.08008 3.61914 8.08008 8.08008c0 0.0322266 0 0.0849609 -0.000976562 0.117188v40.8701z" />
    <glyph glyph-name="tea-cup" unicode="&#xf11f;" 
d="M54.9346 94.8799h388.481c-0.170898 -30.4033 -24.9854 -55.2178 -55.3887 -55.3887h-277.704c-0.264648 -0.00488281 -0.694336 -0.00878906 -0.958984 -0.00878906c-30.0498 0 -54.4385 24.3887 -54.4385 54.4385c0 0.264648 0.00390625 0.694336 0.00878906 0.958984z
M457.065 261.046c0.00488281 -0.318359 0.0078125 -0.836914 0.0078125 -1.15625c0 -18.6465 -10.8789 -44.3008 -24.2842 -57.2627c-16.6882 -16.696 -36.4144 -25.0439 -59.1787 -25.0439h-13.6572v-6.82812c-0.361328 -26.4482 -22.1201 -48.2031 -48.5684 -48.5605
h-152.501c-26.4512 0.354492 -48.2061 22.1094 -48.5605 48.5605v160.097c0 0.0507812 -0.000976562 0.133789 -0.000976562 0.18457c0 2.90918 1.70215 6.90723 3.79883 8.92285c2.18164 2.42676 6.59863 4.46484 9.85938 4.5498h249.63
c22.2507 0 41.9769 -8.09473 59.1787 -24.2842c16.1816 -17.194 24.2738 -36.9202 24.2764 -59.1787zM415.342 261.046c0 0.0791016 0.000976562 0.208008 0.000976562 0.287109c0 22.8779 -18.5674 41.4453 -41.4453 41.4453
c-0.0791016 0 -0.208008 0 -0.287109 -0.000976562h-13.6572v-83.4629h13.6572c10.6191 0 20.4837 4.0459 29.5938 12.1377c6.7041 6.54785 12.1455 19.4668 12.1455 28.8369c0 0.208984 -0.00390625 0.547852 -0.0078125 0.756836z" />
    <glyph glyph-name="star-alt" unicode="&#xf138;" 
d="M424.396 242.397c18.1592 0 37.3594 -16.8105 22.6475 -26.7432l-84.4453 -57.293c-6.04688 -3.91113 -10.9531 -12.9307 -10.9531 -20.1318c0 -2.17383 0.563477 -5.61035 1.25879 -7.66992l32.3242 -92.6035c0.34668 -1.29297 0.626953 -3.42871 0.626953 -4.7666
c0 -10.1748 -8.25684 -18.4316 -18.4316 -18.4316c-3.37695 0 -8.31348 1.6377 -11.0205 3.65723l-84.4463 57.2588c-3.92285 2.62695 -10.9375 4.75781 -15.6582 4.75781s-11.7363 -2.13086 -15.6592 -4.75781l-84.5137 -57.3271
c-2.70605 -2.01367 -7.63965 -3.64746 -11.0127 -3.64746c-10.1846 0 -18.4492 8.26465 -18.4492 18.4492c0 1.33008 0.277344 3.4541 0.619141 4.73926l32.2393 92.6719c0.712891 2.08008 1.29199 5.55273 1.29199 7.75195c0 7.21387 -4.92969 16.2266 -11.0029 20.1182
l-84.3613 57.293c-14.5918 9.9502 1.41699 26.6748 19.542 26.6748h96.9385c10.666 1.7334 21.5303 11.627 24.252 22.085l32.2383 92.6543c2.65039 6.68945 10.6396 12.1182 17.835 12.1182s15.1846 -5.42871 17.835 -12.1182v0l32.2217 -92.6543
c1.56445 -10.1699 11.0225 -20.0635 21.1113 -22.085h96.9727z" />
    <glyph glyph-name="burger" unicode="&#xf127;" 
d="M68.2666 66.8447v0.110352c0 17.2109 13.9678 31.1787 31.1787 31.1787h0.1875h312.734h0.0761719c17.2715 0 31.2891 -14.0176 31.2891 -31.2891s-14.0176 -31.2891 -31.2891 -31.2891h-0.0761719h-312.734h-0.115234c-17.251 0 -31.251 14 -31.251 31.25v0.0390625z
M68.2666 192v0.111328c0 17.21 13.9678 31.1777 31.1787 31.1777h0.1875h312.734h0.0761719c17.2715 0 31.2891 -14.0176 31.2891 -31.2891s-14.0176 -31.2891 -31.2891 -31.2891h-0.0761719h-312.734h-0.115234c-17.251 0 -31.251 14 -31.251 31.251v0.0380859z
M68.2666 317.155v0.111328c0 17.2109 13.9678 31.1787 31.1787 31.1787c0.0517578 0 0.135742 -0.000976562 0.1875 -0.000976562h312.734h0.0761719c17.2715 0 31.2891 -14.0176 31.2891 -31.2891s-14.0176 -31.2891 -31.2891 -31.2891h-0.0761719h-312.734h-0.115234
c-17.251 0 -31.251 14.001 -31.251 31.251v0.0380859z" />
    <glyph glyph-name="credit-card" unicode="&#xf11b;" 
d="M66.3037 247.724l13.1357 12.8672l246.58 -241.548l-13.1357 -12.8672c-4.03809 -3.92285 -11.8848 -7.10547 -17.5146 -7.10547s-13.4766 3.18262 -17.5146 7.10547l-211.551 207.233c-4.00391 3.88867 -7.25391 11.5752 -7.25391 17.1572s3.25 13.2686 7.25391 17.1572
zM445.699 136.273l-84.8955 -83.1553l-246.572 241.548l84.8877 83.1562c4.03613 3.92383 11.8809 7.1084 17.5107 7.1084s13.4746 -3.18457 17.5107 -7.1084l211.559 -207.234c4.00293 -3.88965 7.25098 -11.5762 7.25098 -17.1572s-3.24805 -13.2676 -7.25098 -17.1572z
M275.775 259.914l10.3115 10.1016l-76.0449 74.4932l-10.3125 -10.1006z" />
    <glyph glyph-name="dollars" unicode="&#xf117;" 
d="M256 370.884c103.515 -0.114258 187.619 -84.2188 187.733 -187.733c0 -103.629 -84.1045 -187.733 -187.733 -187.733s-187.733 84.1045 -187.733 187.733s84.1045 187.733 187.733 187.733zM256 32.9639c82.8086 0.0947266 150.092 67.3779 150.187 150.187
c0 82.9033 -67.2832 150.188 -150.187 150.188s-150.187 -67.2842 -150.187 -150.188c0 -82.9023 67.2832 -150.187 150.187 -150.187zM256 239.471c-10.3633 0 -18.7734 -8.41016 -18.7734 -18.7734c0 -10.3623 8.41016 -18.7734 18.7734 -18.7734h0.139648
c31.0117 0 56.1807 -25.168 56.1807 -56.1797c0 -21.9697 -16.8213 -45.7139 -37.5469 -53v-22.2334h-37.5469v22.2354c-20.6582 7.27539 -37.4795 30.9561 -37.5469 52.8584h37.5469c0 -10.3633 8.41016 -18.7734 18.7734 -18.7734s18.7734 8.41016 18.7734 18.7734
c0 10.3623 -8.41016 18.7725 -18.7734 18.7725h-0.138672c-31.0127 0 -56.1816 25.1699 -56.1816 56.1816c0 21.9697 16.8213 45.7139 37.5469 53.001v22.2314h37.5469v-22.2314c20.6582 -7.27734 37.4795 -30.96 37.5469 -52.8623h-37.5469
c-0.0136719 10.3496 -8.42383 18.7598 -18.7734 18.7734z" />
    <glyph glyph-name="youtube" unicode="&#xf12a;" 
d="M453.714 291.2c7.08594 -31.7715 7.08594 -66.5146 7.08594 -99.2002s0 -67.4287 -7.31445 -99.2002c-4.7998 -22.4004 -22.6279 -38.8574 -44.1143 -41.3711c-50.7422 -5.71484 -102.171 -5.71484 -153.371 -5.71484s-102.629 0 -153.372 5.71484
c-21.4854 2.51367 -39.3135 18.9707 -44.3428 41.3711c-7.08496 31.7715 -7.08496 66.5146 -7.08496 99.2002s0 67.4287 7.31348 99.2002c5.0293 22.3994 22.6289 38.8564 44.1143 41.3711c50.7432 5.71484 102.172 5.71484 153.372 5.71484s102.629 0 153.371 -5.71484
c21.4863 -2.51465 39.3145 -18.9717 44.3428 -41.3711zM336.914 179.657c3.78516 2.35547 6.85742 7.88477 6.85742 12.3428s-3.07227 9.9873 -6.85742 12.3428l-117.028 73.1426c-1.9707 1.26465 -5.46875 2.29102 -7.80957 2.29102
c-2.07715 0 -5.23438 -0.821289 -7.04785 -1.83398c-4.13184 -2.32422 -7.51074 -8.05859 -7.54297 -12.7998v-146.285c0.0322266 -4.74121 3.41113 -10.4756 7.54297 -12.8008c1.83398 -0.977539 5.00781 -1.79688 7.08594 -1.82812
c0.0732422 -0.00195312 0.191406 -0.00292969 0.264648 -0.00292969c2.26465 0 5.62695 1.02539 7.50684 2.28906z" />
    <glyph glyph-name="camera-solid" unicode="&#xf128;" 
d="M394.923 305.664c27.832 -0.0537109 50.4639 -22.6855 50.5176 -50.5176v-176.811c-0.0537109 -27.832 -22.6855 -50.4639 -50.5176 -50.5176h-277.846c-27.832 0.0537109 -50.4639 22.6855 -50.5176 50.5176v176.811c0.0537109 27.832 22.6855 50.4639 50.5176 50.5176
h44.2031l10.0635 26.8369c4.93359 13.0244 20.3252 23.6807 34.1387 23.6807h101.035c13.8125 0 29.2051 -10.6562 34.1387 -23.6807l10.0635 -26.8369h44.2031zM256 78.3359c48.7412 0.0585938 88.3467 39.665 88.4053 88.4053
c0 48.7998 -39.6055 88.4053 -88.4053 88.4053s-88.4053 -39.6055 -88.4053 -88.4053s39.6055 -88.4053 88.4053 -88.4053zM199.168 166.741c0 31.3877 25.4443 56.832 56.832 56.832s56.832 -25.4443 56.832 -56.832s-25.4443 -56.832 -56.832 -56.832
s-56.832 25.4443 -56.832 56.832z" />
    <glyph glyph-name="plus" unicode="&#xf137;" 
d="M219.921 36.54v119.125h-119.347c-19.9863 0 -36.207 16.2207 -36.207 36.207s16.2207 36.207 36.207 36.207h119.312v119.364c0 19.9863 16.2207 36.207 36.207 36.207s36.207 -16.2207 36.207 -36.207v-119.348h119.125c19.9863 0 36.207 -16.2207 36.207 -36.207
c0 -19.9854 -16.2207 -36.2061 -36.207 -36.2061h-119.108v-119.126c0 -19.9863 -16.2207 -36.207 -36.2061 -36.207c-19.9863 0 -36.207 16.2207 -36.207 36.207z" />
    <glyph glyph-name="gear" unicode="&#xf136;" 
d="M452.045 219.818v-56.6611c0 -3.82324 -3.05469 -8.43066 -7.15137 -9.18164l-47.2402 -7.15137c-2.18359 -6.65137 -6.6416 -17.0576 -9.9502 -23.2275c8.6875 -12.5098 17.8691 -23.7393 27.3066 -35.2256c1.34668 -1.50488 2.49414 -4.36426 2.56055 -6.38281
v-0.0390625c0 -1.86035 -1.03223 -4.47363 -2.30371 -5.83203c-6.12695 -8.1748 -40.585 -45.6875 -49.2715 -45.6875c-2.01172 0.121094 -4.98535 1.15332 -6.63965 2.30371l-35.2256 27.5635c-6.19141 -3.20117 -16.5977 -7.54395 -23.2275 -9.69434
c-1.70703 -15.5645 -3.31055 -32.1709 -7.40723 -47.4795c-0.956055 -3.94727 -5.02734 -7.15137 -9.08984 -7.15137c-0.0253906 0 -0.0664062 0 -0.0917969 0.000976562h-56.6445c-0.046875 -0.000976562 -0.12207 -0.00195312 -0.168945 -0.00195312
c-4.28711 0 -8.32422 3.43359 -9.0127 7.66406l-7.15039 46.9678c-6.55664 2.07812 -16.8486 6.30664 -22.9717 9.43848l-35.9941 -27.3076c-1.50977 -1.27148 -4.33691 -2.30371 -6.31152 -2.30371h-0.0712891c-2.08691 0.0585938 -4.94629 1.33496 -6.38281 2.85059
c-13.5342 12.2539 -31.4023 28.0742 -42.1211 42.8887c-0.944336 1.39258 -1.71094 3.88965 -1.71094 5.57324c0 0.0820312 0.00195312 0.214844 0.00488281 0.296875c0.0117188 1.81348 0.929688 4.44434 2.04785 5.87109c8.66992 11.7422 18.125 22.9717 26.7949 34.9697
c-3.5957 6.68359 -8.28223 18.0068 -10.4619 25.2754l-46.7119 6.82715c-4.08887 0.856445 -7.40723 4.94238 -7.40723 9.12012c0 0.0175781 0 0.0449219 0.000976562 0.0615234v56.6787c0 3.82324 3.05469 8.43066 6.82617 9.18164l47.4795 7.15137
c2.13184 6.74121 6.58887 17.2627 9.9502 23.4834c-8.6875 12.2539 -17.8691 23.7402 -27.3066 35.2256c-1.34375 1.4248 -2.49023 4.16992 -2.56055 6.12695c0.0917969 1.83398 1.12402 4.46387 2.30371 5.87109c6.12695 8.43066 40.585 45.6875 49.2715 45.6875
c2.06641 -0.101562 5.04004 -1.24902 6.63965 -2.56055l35.2256 -27.3066c6.19141 3.20117 16.5977 7.54395 23.2275 9.69434c1.70703 15.5645 3.31055 32.1709 7.40723 47.4795c0.956055 3.94727 5.02734 7.15137 9.08984 7.15137
c0.0253906 0 0.0664062 0 0.0917969 -0.000976562h56.6445c0.0566406 0.00195312 0.149414 0.00292969 0.206055 0.00292969c4.27832 0 8.31445 -3.42676 9.00977 -7.64844l7.15039 -46.9678c6.55664 -2.07715 16.8486 -6.30566 22.9717 -9.4375l36.25 27.3066
c1.37793 1.27344 4.01953 2.30664 5.89551 2.30664c0.0644531 0 0.167969 -0.000976562 0.231445 -0.00292969c2.01855 -0.0664062 4.87793 -1.21289 6.38281 -2.55957c13.5342 -12.5098 31.4023 -28.3311 42.1211 -43.4004
c0.947266 -1.27637 1.7168 -3.60156 1.7168 -5.19043c0 -0.117188 -0.00488281 -0.307617 -0.0107422 -0.424805c-0.0117188 -1.81348 -0.929688 -4.44336 -2.04785 -5.87109c-8.66992 -11.7412 -18.125 -22.9717 -26.8115 -34.9697
c3.55566 -6.625 8.24316 -17.834 10.4619 -25.0195l46.7109 -7.15039c4.12695 -0.833008 7.47559 -4.9248 7.47559 -9.13477v-0.0478516zM321.349 192c0 36.0723 -29.2764 65.3486 -65.3486 65.3486s-65.3486 -29.2764 -65.3486 -65.3486s29.2764 -65.3486 65.3486 -65.3486
c36.0068 0.0664062 65.2822 29.3418 65.3486 65.3486z" />
    <glyph glyph-name="chevron-up" unicode="&#xf105;" 
d="M441.945 124.125l-40 -39.167c-2.08008 -2.74121 -6.56055 -4.98145 -10 -5.00098c-5.00098 0 -8.62012 1.66699 -10.834 5.00098l-126.666 125.832l-126.667 -125.832c-2.22656 -3.33398 -5.83789 -5.00098 -10.834 -5.00098
c-3.44238 0.0146484 -7.92285 2.25488 -10 5.00098l-39.999 39.167c-2.30762 2.35059 -4.17969 6.93164 -4.17969 10.2256c0 0.167969 0.00585938 0.439453 0.0126953 0.607422c0.19043 3.35938 2.05664 8.21289 4.16699 10.833l176.666 175.834
c2.35352 2.75977 7.20703 5 10.834 5s8.47949 -2.24023 10.833 -5l176.667 -175.834c2.10449 -2.62305 3.9707 -7.47559 4.16602 -10.833c0.00683594 -0.162109 0.0117188 -0.424805 0.0117188 -0.586914c0 -3.29883 -1.87207 -7.88867 -4.17773 -10.2461z" />
    <glyph glyph-name="made-with" unicode="&#xf10c;" 
d="M1299.43 229.8c11.9785 -11.749 18.2656 -26.9873 18.6455 -46.8984v-76.9795c-0.0820312 -6.99414 -5.82617 -12.6709 -12.8213 -12.6709h-0.0810547h-0.164062h-0.0751953c-6.99512 0 -12.7266 5.67676 -12.793 12.6709v77.0615
c-0.280273 12.2266 -4.21289 21.4746 -11.6514 29.0107c-7.4707 7.53711 -16.7676 10.417 -27.6611 10.6475h-39.1152l-0.0654297 -116.72c-0.0693359 -6.99512 -5.80176 -12.6719 -12.7969 -12.6719c-0.0244141 0 -0.0644531 0.000976562 -0.0888672 0.000976562
c-7.27344 0 -13.0322 5.67676 -13.0322 11.8809v193.354c-0.00585938 0.139648 -0.00976562 0.366211 -0.00976562 0.504883c0 7.15723 5.80859 12.9658 12.9648 12.9658c7.00098 0 12.8086 -5.68066 12.9619 -12.6807v-51.4404h8.82031
c0.0498047 0 0.115234 -0.0332031 0.165039 -0.0332031l20.207 0.0332031h2.28613l7.78418 0.0166016c18.9404 -0.263672 34.5898 -6.33496 46.5205 -18.0518zM1052.22 243.091c0.0576172 0.000976562 0.150391 0.00195312 0.207031 0.00195312
c6.99609 0 12.7568 -5.67773 12.8584 -12.6729v-124.503c-0.0761719 -6.99512 -5.81445 -12.6719 -12.8096 -12.6719c-0.0253906 0 -0.0654297 0 -0.0908203 0.000976562c-7.25781 0 -13.0332 5.67676 -13.0332 11.8975v124.486
c-0.00488281 0.133789 -0.00878906 0.350586 -0.00878906 0.484375c0 7.1084 5.76855 12.9219 12.877 12.9766zM1155.54 223.135h-33.2402v-73.7207c-0.0107422 -0.286133 -0.0195312 -0.750977 -0.0195312 -1.03809c0 -9.30859 6.76172 -20.2334 15.0928 -24.3867
c4.66211 -2.41113 12.6904 -4.72656 17.9199 -5.16699c6.94727 -0.202148 12.5859 -6.00781 12.5859 -12.958c0 -7.15527 -5.80762 -12.9629 -12.9639 -12.9629c-0.200195 0 -0.524414 0.00878906 -0.724609 0.0195312c-8.26465 0.555664 -20.9746 4.03613 -28.3691 7.76758
c-19.2529 9.90625 -29.8672 27.5967 -29.8672 48.7256v150.421c0.140625 7.12891 6.04199 12.915 13.1729 12.915s13.0322 -5.78613 13.1729 -12.915v-51.5391h33.2402c7.09277 0 12.8682 -5.33203 12.8682 -11.8809c0 -6.5332 -5.77539 -13.2803 -12.8682 -13.2803z
M995.673 243.26c0.0595703 0.00195312 0.158203 0.00195312 0.217773 0.00195312c6.96875 0 12.6953 -5.65527 12.7822 -12.623v-91.1475c-0.0175781 -11.7461 -6.97754 -27.8105 -15.5342 -35.8574c-10.0371 -9.54395 -23.1201 -14.5791 -38.8838 -14.9414h-0.203125
c-7.10742 0 -18.1562 2.32227 -24.6621 5.18359c-7.19141 3.20898 -15.3691 8.01367 -20.3389 14.2832c-0.0244141 0.0234375 -0.0683594 0.0527344 -0.0986328 0.0664062c-0.0283203 -0.0166016 -0.0722656 -0.0458984 -0.0986328 -0.0664062
c-4.95312 -6.26953 -13.1318 -11.0752 -20.3232 -14.2832c-6.50195 -2.86133 -17.5449 -5.18359 -24.6494 -5.18359h-0.214844c-15.7803 0.362305 -28.8467 5.39746 -38.8848 14.9414c-8.56641 8.04297 -15.5332 24.1064 -15.5498 35.8574v91.1475
c0.176758 6.96973 5.97852 12.626 12.9502 12.626s12.7734 -5.65625 12.9502 -12.626v-84.8457c0.131836 -10.0713 2.78125 -18.1348 7.94824 -23.96c5.18359 -5.90723 12.3418 -8.93457 21.7715 -9.0498c9.47852 0 17.0967 2.92969 22.626 8.75488
c5.64453 5.875 8.57324 15.5342 8.67188 28.6982v80.4023c0.0898438 6.9043 5.7666 12.5439 12.6709 12.5889v0.0322266c0.0332031 0 0.0820312 -0.0166016 0.131836 -0.0166016c0.0488281 0 0.0976562 0.0166016 0.148438 0.0166016v-0.0322266
c6.90332 -0.0449219 12.5801 -5.68457 12.6709 -12.5889v-80.4014c0.0976562 -13.1641 3.02734 -22.8232 8.6709 -28.6982c5.5459 -5.82617 13.1484 -8.75488 22.6104 -8.75488c9.44629 0.114258 16.6045 3.14258 21.7871 9.0498
c5.16699 5.8252 7.7998 13.8887 7.94824 23.96v84.8447c0.0791016 6.96777 5.79785 12.6221 12.7656 12.6221c0.0322266 0 0.0859375 0 0.119141 -0.000976562zM647.407 249.661c36.1201 0 75.3828 -25.4561 75.3828 -81.291
c0 -8.54004 -5.03516 -14.7598 -15.9619 -14.7598h-105.447c4.87012 -24.9805 26.6416 -38.7207 61.5273 -38.7207c12.6719 0 21.3438 2.22168 34.4912 6.10547c11.7168 3.43848 23.4824 -15.4033 4.67383 -22.3643c-14.2832 -5.29785 -24.6836 -7.4043 -37.7002 -7.4043
c-67.1719 0 -91.082 41.7148 -91.082 80.748c0 50.9961 37.2881 77.6865 74.1162 77.6865zM697.071 177.486v0.000976562c0.0136719 0.00976562 0.0283203 0.0322266 0.0322266 0.0488281c-0.921875 33.7178 -26.1318 49.1201 -49.5811 49.1201
c-22.9561 0 -47.6553 -15.3701 -48.5439 -49.0869zM363.186 237.907c7.61914 -3.42285 12.0293 -6.38477 19.5664 -16.0107c6.73047 -8.52441 14.0039 -26.2969 14.0039 -45.1055v-75.5967c-0.0927734 -6.97656 -5.83008 -12.6387 -12.8076 -12.6387
c-0.0302734 0 -0.0800781 0 -0.110352 0.000976562h-69.8711c-31.7754 0.229492 -57.6113 25.6543 -57.6113 56.6729c0 31.002 25.6055 56.459 57.0684 56.7549h53.8271c-1.01074 2.48633 -3.28125 6.12793 -5.06836 8.12988
c-5.5293 5.75879 -13.0332 8.7207 -22.3633 8.78711h-44.1172c-0.21582 -0.0136719 -0.566406 -0.0253906 -0.782227 -0.0253906c-6.68066 0 -12.1025 5.42188 -12.1025 12.1025s5.42188 12.1025 12.1025 12.1025c0.207031 0 0.542969 -0.00976562 0.749023 -0.0234375
l41.7979 0.0332031c0.269531 0.00488281 0.707031 0.0078125 0.976562 0.0078125c7.12988 0 18.2139 -2.32617 24.7422 -5.19141zM368.962 112.762l0.0654297 65.0332h-54.3359c-19.0234 -0.115234 -33.9316 -14.3164 -33.9316 -32.5654
c0.15918 -17.9238 14.835 -32.4697 32.7588 -32.4697c0.109375 0 0.289062 0.000976562 0.398438 0.00195312h55.0449zM178.362 243.256c15.7812 -0.363281 28.8477 -5.39746 38.8838 -14.9424c8.56738 -8.04199 15.5342 -24.1064 15.5508 -35.8564v-91.1475
c-0.180664 -6.96582 -5.98242 -12.6191 -12.9502 -12.6191c-6.96875 0 -12.7705 5.65332 -12.9512 12.6191v84.8447c-0.130859 10.0713 -2.78027 18.1338 -7.94824 23.96c-5.18359 5.90723 -12.3408 8.93457 -21.7705 9.0498c-9.47852 0 -17.0967 -2.92871 -22.626 -8.75391
c-5.64453 -5.875 -8.57422 -15.5342 -8.67285 -28.6992v-80.4023c-0.0898438 -6.9043 -5.76562 -12.5439 -12.6709 -12.5889v-0.0322266c-0.0322266 0 -0.0820312 0.0166016 -0.130859 0.0166016c-0.0498047 0 -0.0986328 -0.0166016 -0.148438 -0.0166016v0.0322266
c-6.9043 0.0449219 -12.5811 5.68555 -12.6709 12.5889v80.4023c-0.0986328 13.1641 -3.02734 22.8242 -8.67188 28.6982c-5.5459 5.82617 -13.1484 8.75488 -22.6104 8.75488c-9.44531 -0.115234 -16.6035 -3.14258 -21.7871 -9.05078
c-5.16602 -5.8252 -7.7998 -13.8887 -7.94824 -23.959v-84.8457c-0.176758 -6.96484 -5.97461 -12.6172 -12.9424 -12.6172c-6.9668 0 -12.7646 5.65234 -12.9414 12.6172v91.1484c0.0175781 11.7461 6.97754 27.8096 15.5342 35.8564
c10.0381 9.54492 23.1191 14.5801 38.8838 14.9424h0.204102c7.10742 0 18.1562 -2.32227 24.6621 -5.18359c7.19043 -3.20898 15.3691 -8.01367 20.3379 -14.2842c0.0244141 -0.0224609 0.0683594 -0.0517578 0.0986328 -0.0654297
c0.0283203 0.0166016 0.0722656 0.0458984 0.0986328 0.0654297c4.95312 6.26953 13.1318 11.0752 20.3232 14.2842c6.50195 2.86133 17.5449 5.18359 24.6494 5.18359h0.214844zM539.022 311.953c0.0576172 0.000976562 0.150391 0.000976562 0.207031 0.000976562
c6.99609 0 12.7568 -5.67773 12.8594 -12.6729v-198.043c-0.0693359 -7.00391 -5.81055 -12.6875 -12.8145 -12.6875h-0.0869141h-50.2236c-38.9502 0 -70.627 34.7217 -70.627 77.4072c-0.00195312 0.201172 -0.00390625 0.526367 -0.00390625 0.726562
c0 16.7754 8.98828 40.6152 20.0635 53.2158c11.1006 12.7617 33.8379 23.1201 50.752 23.1201h0.0625h36.9434v55.4717c-0.00488281 0.133789 -0.00878906 0.350586 -0.00878906 0.484375c0 7.1084 5.76855 12.9219 12.877 12.9766zM526.154 113.794v104.378
l-38.21 0.0332031c-24.3047 -0.576172 -44.0684 -23.9922 -44.0684 -52.2471c0 -28.7803 20.207 -52.2129 45.0879 -52.2129z" />
    <glyph glyph-name="chevron-down" unicode="&#xf102;" 
d="M441.946 248.291l-176.666 -176.666c-2.54785 -2.2998 -7.40137 -4.16699 -10.834 -4.16699c-3.43164 0 -8.28516 1.86719 -10.833 4.16699l-176.667 176.666c-2.11133 2.62012 -3.97754 7.47363 -4.16602 10.834
c-0.00683594 0.163086 -0.0117188 0.427734 -0.0117188 0.59082c0 3.29785 1.87207 7.88574 4.17773 10.2422l40 39.167c2.07715 2.74512 6.55762 4.98535 10 5c5 0 8.61133 -1.66667 10.834 -5l126.667 -125.833l126.666 125.833c2.21387 3.33301 5.83398 5 10.834 5
c3.44043 -0.0195312 7.91992 -2.25977 10 -5l40 -39.167c2.30566 -2.36328 4.17773 -6.96094 4.17773 -10.2627c0 -0.157227 -0.00488281 -0.413086 -0.0107422 -0.570312c-0.194336 -3.3584 -2.06152 -8.21191 -4.16797 -10.834z" />
  </font>
</defs>
</svg>
