<svg xmlns="http://www.w3.org/2000/svg" viewBox="0 0 300 300"><title>briefcase-outline</title><path d="M242.08,80.24h-60.7a3.45,3.45,0,0,0,.19-1.09V70.37a13,13,0,0,0-13-13H132.74a13,13,0,0,0-13,13v8.78a3.45,3.45,0,0,0,.19,1.09H59.25A12.63,12.63,0,0,0,46.63,92.87v45.71a3.49,3.49,0,0,0,2.57,3.36l2.07.56a3.48,3.48,0,0,0-.07.65V219.9a22.72,22.72,0,0,0,22.72,22.71h153.5a22.72,22.72,0,0,0,22.71-22.71V143.15a3.48,3.48,0,0,0-.07-.65l2.07-.56a3.49,3.49,0,0,0,2.57-3.36V92.87A12.63,12.63,0,0,0,242.08,80.24ZM126.72,79.16V70.37a6,6,0,0,1,6-6h35.85a6,6,0,0,1,6,6v8.78a3.45,3.45,0,0,0,.19,1.09H126.53a3.45,3.45,0,0,0,.19-1.09ZM53.59,92.87a5.67,5.67,0,0,1,5.66-5.66H242.08a5.67,5.67,0,0,1,5.66,5.66v43L159.27,160a32.69,32.69,0,0,1-17.21,0L53.59,135.91Zm189.57,127a15.77,15.77,0,0,1-15.75,15.75H73.91A15.77,15.77,0,0,1,58.16,219.9V144.38l82.07,22.38a39.66,39.66,0,0,0,20.87,0l82.06-22.38Z"/><path d="M163.29,124.86a12.62,12.62,0,1,0-12.62,12.62A12.63,12.63,0,0,0,163.29,124.86Zm-18.28,0a5.66,5.66,0,1,1,5.66,5.66A5.67,5.67,0,0,1,145,124.86Z"/></svg>