<svg id="aeabf4d6-d3c0-4af8-aa26-8171cf0c18f7" data-name="a4f5474f-3dfe-48e8-85a0-f453e4b3676e" xmlns="http://www.w3.org/2000/svg" viewBox="0 0 300 300"><path d="M300,85.8c-2.92-25.28-7.33-34.94-11.16-42.94-1.1-2.32-4.29-3.24-5.83-2.21-11,7.44-13.74,18.12-17.5,23.35a63.82,63.82,0,0,1-18.66.84C235.6,63.72,229,62.31,229,62.31s-2.81-18.4-13.86-28.83c-1.64-1.54-6.22-2.19-7-.21-3.6,8.9-29.16,62.19-10,93.53-21.65-6.21-46.21-4.07-76,8.94C66.45,160,53.82,244.75,54.7,249.31c.12.62.25,1.21.39,1.79A3.1,3.1,0,0,1,52.17,250c-9.65-11.42-27.48-36.52-10.5-82.23,10.83-29.15,45-56.61,54.55-78.7,15.82-36.64,8-53.47.83-65-3.53-5.67-16.28-15.73-27.24-9-13.07,8.06-3,24,.15,29.67C91.5,82.86,1.47,121,0,207.35c-.47,28,12.91,73.3,55.8,79.54,6.24.91,183.2-1.63,183.2-1.63.36-9.61-1.72-15.82-4.85-19.81C279.18,244.64,300.51,189.06,300,85.8Z"/></svg>