<svg id="Layer_1" data-name="Layer 1" xmlns="http://www.w3.org/2000/svg" viewBox="0 0 300 300"><title>FontTristan</title><path d="M258.9521,189.7707L235.5146,212.72a7.4088,7.4088,0,0,1-5.8594,2.93c-2.93,0-5.0508-.9766-6.3477-2.93l-74.2187-73.73L74.87,212.72q-1.957,2.93-6.3477,2.93a7.3867,7.3867,0,0,1-5.8594-2.93L39.2256,189.7707a8.5544,8.5544,0,0,1-2.4414-6.3477,11.1267,11.1267,0,0,1,2.4414-6.3477L142.7412,74.0481a8.3415,8.3415,0,0,1,12.6953,0L258.9521,177.0754a11.1826,11.1826,0,0,1,2.4414,6.3477A8.5848,8.5848,0,0,1,258.9521,189.7707Z"/></svg>