<svg xmlns="http://www.w3.org/2000/svg" viewBox="0 0 300 300"><defs><style>.a{fill-rule:evenodd;}</style></defs><title>coins</title><path class="a" d="M150,140.554c-60.74316,0-110-19.10525-110-42.65931v26.81445c0,23.57228,49.25684,42.65926,110,42.65926s110-19.087,110-42.65926V97.89471c0,23.55405-49.2569,42.65931-110,42.65931"/><path class="a" d="M150,186.8698c-60.74316,0-110-19.10525-110-42.65928v26.81441c0,23.57229,49.25684,42.65927,110,42.65927s110-19.087,110-42.65927V144.21053c0,23.554-49.2569,42.65928-110,42.65928"/><path class="a" d="M150,233.18559c-60.74316,0-110-19.10526-110-42.65928v26.8144C40,240.913,89.25684,260,150,260s110-19.087,110-42.65928v-26.8144c0,23.554-49.2569,42.65928-110,42.65928"/><path class="a" d="M260,80.52632c0,22.38793-49.2569,40.52632-110,40.52632S40,102.91425,40,80.52632,89.25684,40,150,40,260,58.1384,260,80.52632"/></svg>