<svg id="Layer_1" data-name="Layer 1" xmlns="http://www.w3.org/2000/svg" viewBox="0 0 300 300"><title>comments</title><path d="M255.89,189.28a50.09,50.09,0,0,0-.52-58.33q-9.62-13.74-26.18-22.85a66.05,66.05,0,0,1-5.65,52.11q-8.59,15.4-24.64,27.21A113.5,113.5,0,0,1,165,204a135.66,135.66,0,0,1-39.66,5.78c-2.57,0-6.33-.18-11.3-.52q25.8,16.95,60.58,16.94a128.82,128.82,0,0,0,22.59-2.05A102.36,102.36,0,0,0,244,242.61a3.81,3.81,0,0,0,2.82-.9,4.68,4.68,0,0,0,1.67-2.82l.13-.83-.06-.84-.26-.77-.32-.64a7.24,7.24,0,0,0-.45-.71,5,5,0,0,0-.51-.64c-.13-.13-.32-.34-.58-.64l-.51-.58q-.65-.77-3-3.21a48.62,48.62,0,0,1-3.33-3.78q-1-1.35-2.89-3.72a32.65,32.65,0,0,1-3.21-4.95c-.9-1.71-1.77-3.59-2.63-5.64Q246.77,202.7,255.89,189.28Z"/><path d="M170.73,184.54q20.85-8.81,32.92-23.94t12.06-33q0-17.83-12.06-33T170.73,70.69a115.66,115.66,0,0,0-45.37-8.79A115.59,115.59,0,0,0,80,70.69Q59.13,79.48,47.06,94.63T35,127.61a50.45,50.45,0,0,0,9.11,28.75q9.12,13.48,25,22.72c-.86,2-1.73,3.94-2.63,5.65a32.57,32.57,0,0,1-3.21,4.94q-1.86,2.37-2.89,3.72a50.28,50.28,0,0,1-3.33,3.79q-2.31,2.43-3,3.21l-.51.57-.58.65-.51.64-.45.7-.32.64a3,3,0,0,0-.26.77,5.53,5.53,0,0,0-.06.84,2.45,2.45,0,0,0,.13.83,4.25,4.25,0,0,0,1.47,2.7,4.05,4.05,0,0,0,2.63,1h.39a108,108,0,0,0,11-2.06,108,108,0,0,0,35.68-16.43,128.85,128.85,0,0,0,22.59,2.06A115.66,115.66,0,0,0,170.73,184.54Z"/></svg>