<svg id="ab640780-00b8-4fe7-a8a9-f97074c10c91" data-name="bb67b0b9-7554-4f65-89c8-ebc0a4a8ae6c" xmlns="http://www.w3.org/2000/svg" viewBox="0 0 300 300"><path d="M264.37,121.75c-.54-1.9-3.47-2.28-4.06-.39-17.74,57.18-28,88.89-35.53,106.83-5.2-22.41-16.83-44.26-28.14-55.7-65.81-66.66-59.3-101.19-59.9-104.2a1.37,1.37,0,0,0-.19-.35c7.57-11.94,17.59-31.8,10.57-45.11a4.49,4.49,0,0,0-6.32-1.59c-6.37,4-14.66,9.64-21.31,14.23,2-14.06.15-27.79-8.63-34.51a4,4,0,0,0-5.94,1.25c-6,10.07-14.73,23.87-24,33C79.77,36.37,41,19.78,35.5,21c-10.85,10.17-11,37.69-1,48.65C45.2,81.37,52.79,86,61.09,92.47c3.08,2.41,6.61,6.42,6.19,7.6-16.36,45.13-9.61,89,10,110.52,1.49,1.64-18.14,64-34.39,86.13a1.83,1.83,0,0,0,1.45,2.9c9,.21,31.64.35,32.1.12,8.45-4.22,28.71-38.73,38.24-55.12,6.84,6.84-16.79,41.19-24.92,52.08a2.07,2.07,0,0,0,1.69,3.3c46.7-.27,91.19-.51,91.57-.54,17.21-1.4,28.43-10.2,33.92-14.2C269.3,239.16,281,179.84,264.37,121.75Z"/></svg>