<svg id="bb67b0b9-7554-4f65-89c8-ebc0a4a8ae6c" data-name="b3437657-b147-4da7-9489-633249e60c4b" xmlns="http://www.w3.org/2000/svg" viewBox="0 0 300 300"><path d="M155.89,121.9l87.82,31.38V281.2a9.37,9.37,0,0,1-9.37,9.37H196.85a9.37,9.37,0,0,1-9.37-9.37V215.61H93.77V281.2a9.36,9.36,0,0,1-9.37,9.37H46.92a9.36,9.36,0,0,1-9.37-9.37V155.94A56.14,56.14,0,0,1,.06,103.15a18.75,18.75,0,0,1,37.49,0A18.78,18.78,0,0,0,56.29,121.9ZM299.94,56.3V75a37.49,37.49,0,0,1-37.49,37.48H243.71v20.84l-75-26.75V18.81a9.37,9.37,0,0,1,16-6.62l16,16h31.41c6.39,0,13.93,4.68,16.77,10.37l4.19,8.37h37.48A9.37,9.37,0,0,1,299.94,56.3Zm-65.6,0A9.37,9.37,0,1,0,225,65.67,9.37,9.37,0,0,0,234.34,56.3Z"/></svg>