<svg id="Layer_1" data-name="Layer 1" xmlns="http://www.w3.org/2000/svg" viewBox="0 0 300 300"><title>FontTristan</title><path d="M150,45.1851a110,110,0,1,0,110,110A110.122,110.122,0,0,0,150,45.1851Zm0,198a88,88,0,1,1,88-88A88.1006,88.1006,0,0,1,150,243.1851Z"/><path d="M150,122.1851a11.0145,11.0145,0,0,1,11,11h22a32.947,32.947,0,0,0-22-30.9738V89.1851H139v13.0262a32.9187,32.9187,0,0,0,11,63.9738,11,11,0,1,1-11,11H117a32.9441,32.9441,0,0,0,22,30.9716v13.0284h22V208.1578a32.9181,32.9181,0,0,0-11-63.9727A11,11,0,0,1,150,122.1851Z"/></svg>