<svg id="Layer_1" data-name="Layer 1" xmlns="http://www.w3.org/2000/svg" viewBox="0 0 300 300"><title>dollar-dollar</title><path d="M265,183.1c0,23.37-16.72,41.81-41,45.82v20a3.62,3.62,0,0,1-3.57,3.67H204.86A3.69,3.69,0,0,1,201.2,249V229c-26.8-3.78-41.46-19.82-42-20.5a3.8,3.8,0,0,1-.23-4.7l11.8-15.46A3.74,3.74,0,0,1,173.4,187a3.12,3.12,0,0,1,2.75,1c.23.11,16.26,15.46,36.54,15.46,11.23,0,23.37-6,23.37-18.9,0-11-13.52-16.38-29-22.56-20.62-8.13-46.28-18.44-46.28-47.19,0-21.08,16.49-38.49,40.43-43.07V51a3.69,3.69,0,0,1,3.67-3.67h15.46A3.62,3.62,0,0,1,224,50.91s0,.06,0,.09V71.19c23.25,2.63,35.62,15.23,36.08,15.69a3.67,3.67,0,0,1,.57,4.35L251.37,108a3.39,3.39,0,0,1-2.63,1.83,3.78,3.78,0,0,1-3.09-.8c-.11-.11-14-12.37-31.16-12.37-14.55,0-24.63,7.22-24.63,17.64,0,12.14,14,17.53,30.24,23.83C241.17,146.22,265,155.5,265,183.1Zm-123.23,0c0,23.37-16.72,41.81-41,45.82v20a3.62,3.62,0,0,1-3.57,3.67H81.64A3.69,3.69,0,0,1,78,249V229c-26.8-3.78-41.46-19.82-42-20.5a3.8,3.8,0,0,1-.23-4.7l11.8-15.46A3.74,3.74,0,0,1,50.2,187,3.12,3.12,0,0,1,53,188c.23.11,16.27,15.46,36.54,15.46,11.23,0,23.37-6,23.37-18.9,0-11-13.52-16.38-29-22.56-20.62-8.13-46.28-18.44-46.28-47.19C37.54,93.64,54,76.23,78,71.65V51a3.69,3.69,0,0,1,3.67-3.67H97.1a3.62,3.62,0,0,1,3.67,3.57s0,.07,0,.1V71.19c23.25,2.63,35.62,15.23,36.08,15.69a3.67,3.67,0,0,1,.57,4.35L128.14,108a3.38,3.38,0,0,1-2.63,1.83,3.78,3.78,0,0,1-3.09-.8c-.11-.11-14-12.37-31.16-12.37-14.55,0-24.63,7.22-24.63,17.64,0,12.14,14,17.53,30.24,23.83,21.08,8.09,44.9,17.37,44.9,45Z"/></svg>