<svg id="Layer_1" data-name="Layer 1" xmlns="http://www.w3.org/2000/svg" viewBox="0 0 300 300"><defs><style>.cls-1{fill-rule:evenodd;}</style></defs><title>download</title><path class="cls-1" d="M250.63,172.34a14.38,14.38,0,0,0-14.37,14.38v28.75a14.37,14.37,0,0,1-14.37,14.38H78.13a14.38,14.38,0,0,1-14.37-14.37V186.72a14.38,14.38,0,0,0-28.75,0v43.13a28.75,28.75,0,0,0,28.75,28.75h172.5A28.74,28.74,0,0,0,265,229.84V186.72A14.37,14.37,0,0,0,250.63,172.34Z"/><path class="cls-1" d="M139.09,196.94a14.37,14.37,0,0,0,10.18,4.21c.19,0,.33-.1.52-.1s.14,0,.22,0a14.12,14.12,0,0,0,11.51-6.2l41.6-41.43a14.39,14.39,0,0,0-20.37-20.33l-18.37,18.27V57.34a14.38,14.38,0,0,0-28.75,0V152.5l-18.82-19.25a14.38,14.38,0,1,0-20.35,20.33Z"/></svg>