<svg id="Layer_1" data-name="Layer 1" xmlns="http://www.w3.org/2000/svg" viewBox="0 0 300 300"><title>FontTristan</title><path d="M236.0039,62.31a9.3732,9.3732,0,0,1,2.93,6.8359V229.302a10.0127,10.0127,0,0,1-9.7656,9.7656H183.27V169.7317H206.707l3.418-27.3437H183.27V124.81q0-13.1836,13.6719-13.1836h14.16V87.7q-7.3242-1.4648-20.9961-1.4648-15.6328,0-25.1465,9.5215-9.5215,9.5215-9.5215,26.6113v20.02H132v27.3438h23.4375v69.3359H69.0117a10.0127,10.0127,0,0,1-9.7656-9.7656V69.1457A10.0127,10.0127,0,0,1,69.0117,59.38H229.168A9.3732,9.3732,0,0,1,236.0039,62.31Z"/></svg>