<?xml version="1.0" encoding="utf-8"?>
<!-- Generator: Adobe Illustrator 22.0.0, SVG Export Plug-In . SVG Version: 6.00 Build 0)  -->
<svg version="1.1" id="Layer_1" xmlns="http://www.w3.org/2000/svg" xmlns:xlink="http://www.w3.org/1999/xlink" x="0px" y="0px"
	 viewBox="0 0 300 300" style="enable-background:new 0 0 300 300;" xml:space="preserve">
<g>
	<path d="M114.22,165.61l-35.17-0.05L79.11,124l35.17,0.05l0.04-32.88c0.02-17.35,4.91-30.82,14.67-40.4
		c9.76-9.58,22.7-14.36,38.84-14.34c13.09,0.02,23.75,0.64,31.97,1.87l-0.05,36.99l-21.92-0.03c-8.22-0.01-13.86,1.81-16.91,5.46
		c-2.44,3.04-3.66,7.91-3.67,14.61l-0.04,28.77l38.82,0.05l-5.53,41.55l-33.34-0.04l-0.14,104.59l-42.93-0.06L114.22,165.61z"/>
</g>
</svg>
