<svg id="ae16d3b4-0349-4b3b-bcae-88591d7d03a9" data-name="b3437657-b147-4da7-9489-633249e60c4b" xmlns="http://www.w3.org/2000/svg" viewBox="0 0 300 300"><path d="M82.76,200.42c22.11,0,40.67,15.11,45.39,35.29h160c6.55,0,11.86,5.65,11.86,12.61s-5.31,12.6-11.86,12.6H126.65a47,47,0,0,1-87.78,0H12.14a12.61,12.61,0,0,1,0-25.21H37.37C42.08,215.53,60.65,200.42,82.76,200.42Zm0,23.68c-12.27,0-22.26,9.74-22.26,21.7s10,21.69,22.26,21.69S105,257.76,105,245.8,95,224.1,82.76,224.1ZM206.89,104.62c22.12,0,40.68,15.11,45.4,35.3h36.28c6.31,0,11.43,5.64,11.43,12.6s-5.12,12.61-11.43,12.61H250.79a47,47,0,0,1-87.78,0H11.74C5.25,165.13,0,159.48,0,152.52s5.25-12.6,11.74-12.6H161.5C166.22,119.73,184.78,104.62,206.89,104.62Zm0,23.68c-12.27,0-22.25,9.74-22.25,21.7s10,21.7,22.25,21.7S229.15,162,229.15,150,219.17,128.3,206.89,128.3ZM82.76,8.82a46.57,46.57,0,0,1,43.89,30.25H288.14c6.55,0,11.86,5.64,11.86,12.6s-5.31,12.61-11.86,12.61h-160c-4.72,20.18-23.28,35.29-45.39,35.29S42.08,84.47,37.37,64.29H12.14a12.61,12.61,0,0,1,0-25.21H38.87A46.57,46.57,0,0,1,82.76,8.82Zm0,23.69c-12.27,0-22.26,9.73-22.26,21.69s10,21.7,22.26,21.7S105,66.16,105,54.2,95,32.51,82.76,32.51Z"/></svg>