<svg id="Layer_1" data-name="Layer 1" xmlns="http://www.w3.org/2000/svg" viewBox="0 0 300 300"><defs><style>.cls-1{fill-rule:evenodd;}</style></defs><title>gear</title><path class="cls-1" d="M264.87,133.7v33.2c0,2.24-1.79,4.94-4.19,5.38L233,176.47a84.71,84.71,0,0,1-5.83,13.61c5.09,7.33,10.47,13.91,16,20.64a5.9,5.9,0,0,1,1.5,3.74,5,5,0,0,1-1.35,3.44c-3.59,4.79-23.78,26.77-28.87,26.77a7.61,7.61,0,0,1-3.89-1.35l-20.64-16.15a90.3,90.3,0,0,1-13.61,5.68c-1,9.12-1.94,18.85-4.34,27.82a5.48,5.48,0,0,1-5.38,4.19H133.4a5.35,5.35,0,0,1-5.38-4.49l-4.19-27.52a87.89,87.89,0,0,1-13.46-5.53l-21.09,16a5.74,5.74,0,0,1-3.74,1.35A5.36,5.36,0,0,1,81.8,243c-7.93-7.18-18.4-16.45-24.68-25.13a5.82,5.82,0,0,1-1-3.44,5.64,5.64,0,0,1,1.2-3.44c5.08-6.88,10.62-13.46,15.7-20.49a79.37,79.37,0,0,1-6.13-14.81l-27.37-4a5.46,5.46,0,0,1-4.34-5.38V133.1c0-2.24,1.79-4.94,4-5.38L67,123.53a79.18,79.18,0,0,1,5.83-13.76c-5.09-7.18-10.47-13.91-16-20.64a5.52,5.52,0,0,1-1.5-3.59,5.8,5.8,0,0,1,1.35-3.44c3.59-4.94,23.78-26.77,28.87-26.77a6.65,6.65,0,0,1,3.89,1.5l20.64,16a90.22,90.22,0,0,1,13.61-5.68c1-9.12,1.94-18.85,4.34-27.82a5.48,5.48,0,0,1,5.38-4.19H166.6A5.35,5.35,0,0,1,172,39.62l4.19,27.52a87.82,87.82,0,0,1,13.46,5.53l21.24-16a5.09,5.09,0,0,1,3.59-1.35,5.9,5.9,0,0,1,3.74,1.5c7.93,7.33,18.4,16.6,24.68,25.43a5.1,5.1,0,0,1,1,3.29,5.64,5.64,0,0,1-1.2,3.44c-5.08,6.88-10.62,13.46-15.71,20.49a82.41,82.41,0,0,1,6.13,14.66l27.37,4.19A5.46,5.46,0,0,1,264.87,133.7ZM188.29,150A38.29,38.29,0,1,0,150,188.29,38.36,38.36,0,0,0,188.29,150Z"/></svg>