<svg xmlns="http://www.w3.org/2000/svg" viewBox="0 0 300 300"><title>gift</title><path d="M174,223.67V116.46H126V223.67a6.78,6.78,0,0,0,2.7,5.77,11.2,11.2,0,0,0,6.89,2h28.74a11.2,11.2,0,0,0,6.89-2A6.78,6.78,0,0,0,174,223.67ZM105.68,97.29h29.2L116,73.18a12.83,12.83,0,0,0-10.33-4.64A14.4,14.4,0,0,0,95.5,93.1,13.86,13.86,0,0,0,105.68,97.29Zm103-14.37a14.32,14.32,0,0,0-14.38-14.38A12.83,12.83,0,0,0,184,73.18L165.27,97.29h29A14.32,14.32,0,0,0,208.7,82.92ZM265,121.25v47.92a4.62,4.62,0,0,1-4.79,4.79H245.83v62.29a14.31,14.31,0,0,1-14.37,14.37H68.54a14.31,14.31,0,0,1-14.37-14.37V174H39.79A4.62,4.62,0,0,1,35,169.17V121.25a4.62,4.62,0,0,1,4.79-4.79h65.89A33.48,33.48,0,0,1,72.14,82.92a33.46,33.46,0,0,1,33.54-33.54q16,0,25.15,11.53L150,85.61l19.17-24.7q9.14-11.53,25.15-11.53a33.46,33.46,0,0,1,33.54,33.54,33.48,33.48,0,0,1-33.54,33.54h65.89a4.62,4.62,0,0,1,4.79,4.79Z"/></svg>