<svg xmlns="http://www.w3.org/2000/svg" viewBox="0 0 300 300"><title>graph-outline</title><path d="M91.25,208.22H82.1a8.05,8.05,0,0,0-8.05,8.05v18.28a8.05,8.05,0,0,0,8.05,8.05h9.14a8.05,8.05,0,0,0,8.05-8.05V216.28A8.05,8.05,0,0,0,91.25,208.22Zm1.09,26.34a1.09,1.09,0,0,1-1.09,1.09H82.1A1.09,1.09,0,0,1,81,234.56V216.28a1.09,1.09,0,0,1,1.09-1.09h9.14a1.09,1.09,0,0,1,1.09,1.09Z"/><path d="M132.38,176.23h-9.14a8.05,8.05,0,0,0-8.05,8.05v50.28a8.05,8.05,0,0,0,8.05,8.05h9.14a8.05,8.05,0,0,0,8.05-8.05V184.28A8.05,8.05,0,0,0,132.38,176.23Zm1.09,58.33a1.09,1.09,0,0,1-1.09,1.09h-9.14a1.09,1.09,0,0,1-1.09-1.09V184.28a1.09,1.09,0,0,1,1.09-1.09h9.14a1.09,1.09,0,0,1,1.09,1.09Z"/><path d="M173.52,144.23h-9.14a8.05,8.05,0,0,0-8.05,8.05v82.27a8.05,8.05,0,0,0,8.05,8.05h9.14a8.05,8.05,0,0,0,8.05-8.05V152.29A8.05,8.05,0,0,0,173.52,144.23Zm1.09,90.33a1.09,1.09,0,0,1-1.09,1.09h-9.14a1.09,1.09,0,0,1-1.09-1.09V152.29a1.09,1.09,0,0,1,1.09-1.09h9.14a1.09,1.09,0,0,1,1.09,1.09Z"/><path d="M214.65,112.24h-9.14a8.05,8.05,0,0,0-8.05,8.05V234.56a8.05,8.05,0,0,0,8.05,8.05h9.14a8.05,8.05,0,0,0,8.05-8.05V120.29A8.05,8.05,0,0,0,214.65,112.24Zm1.09,122.32a1.09,1.09,0,0,1-1.09,1.09h-9.14a1.09,1.09,0,0,1-1.09-1.09V120.29a1.09,1.09,0,0,1,1.09-1.09h9.14a1.09,1.09,0,0,1,1.09,1.09Z"/><path d="M78.1,160.29h0c.57-.08,65.29-11,137.64-90.87v14.3a3.48,3.48,0,1,0,7,0V60.87a3.48,3.48,0,0,0-3.48-3.48H196.37a3.48,3.48,0,0,0,0,7h14.57c-35.47,39.27-68.94,61.52-93.55,74a197.42,197.42,0,0,1-29.65,12.28c-3.52,1.1-6.25,1.81-8.08,2.24-.92.22-1.61.36-2.06.45l-.5.1-.13,0a3.48,3.48,0,1,0,1.13,6.87Z"/></svg>