<svg id="b4c8b485-ccf8-429b-bdcf-c3ed01129707" data-name="Layer 1" xmlns="http://www.w3.org/2000/svg" viewBox="0 0 300 300"><path d="M150,75a75,75,0,1,0,75,75h0A75,75,0,0,0,150,75Zm0,112.48A37.49,37.49,0,1,1,187.5,150h0A37.51,37.51,0,0,1,150,187.49Z"/><circle cx="225.01" cy="75.01" r="18.75"/><path d="M299.05,88.11c-.69-16-3.24-26.9-6.95-36.39A76.41,76.41,0,0,0,248.26,7.88c-9.51-3.71-20.52-6.26-36.39-6.95S190.77,0,150,0s-45.9.12-61.89.93-26.88,3.24-36.39,7A76.41,76.41,0,0,0,7.86,51.72C4.15,61.23,1.6,72.24.91,88.11S0,109.21,0,150s.12,45.9.93,61.89,3.24,26.88,7,36.39A76.41,76.41,0,0,0,51.7,292.12c9.51,3.71,20.52,6.26,36.39,6.95s21.1.93,61.89.93,45.9-.12,61.89-.93,26.88-3.24,36.39-6.95a76.41,76.41,0,0,0,43.84-43.84c3.71-9.51,6.26-20.51,6.95-36.39s.93-21.1.93-61.89S299.88,104.1,299.05,88.11ZM261.65,205.4c-.64,13.34-2.87,20.65-4.77,25.41a42.46,42.46,0,0,1-10.27,15.78,42.91,42.91,0,0,1-15.79,10.27c-4.87,1.91-12.07,4.13-25.41,4.78-14.5.64-18.75.84-55.4.84s-41-.1-55.39-.84C81.28,261,74,258.77,69.2,256.86a42.29,42.29,0,0,1-15.78-10.27,42.79,42.79,0,0,1-10.27-15.78c-1.91-4.87-4.13-12.07-4.77-25.41-.64-14.51-.85-18.86-.85-55.4s.11-41,.85-55.4C39,81.26,41.24,74,43.15,69.19A42.46,42.46,0,0,1,53.42,53.41,43,43,0,0,1,69.2,43.14c4.88-1.91,12.08-4.13,25.42-4.78,14.5-.64,18.85-.84,55.39-.84s41,.1,55.4.84c13.34.65,20.66,2.87,25.41,4.78a42.37,42.37,0,0,1,15.79,10.27,42.91,42.91,0,0,1,10.27,15.78c1.9,4.87,4.13,12.07,4.77,25.41.64,14.51.84,18.86.84,55.4S262.29,191,261.65,205.4Z"/></svg>