<svg xmlns="http://www.w3.org/2000/svg" viewBox="0 0 300 300"><defs><style>.a{fill-rule:evenodd;}</style></defs><title>linkedin</title><path class="a" d="M206.25,60H93.75A33.75871,33.75871,0,0,0,60,93.75v112.5A33.75871,33.75871,0,0,0,93.75,240h112.5A33.75871,33.75871,0,0,0,240,206.25V93.75A33.75871,33.75871,0,0,0,206.25,60ZM114.84375,210.70313H87.77344V129.375h27.07031ZM101.25,118.35938h-.11719c-9.14062,0-15-6.32812-15-14.0625,0-7.96875,6.09375-14.0625,15.35156-14.0625s15,6.09375,15.11719,14.0625C116.60156,112.03125,110.74219,118.35938,101.25,118.35938Zm110.9765,92.34375H185.15625V167.22656c0-11.01562-3.86719-18.39844-13.59375-18.39844-7.5,0-11.95312,5.03906-13.94531,9.84375a19.01153,19.01153,0,0,0-.82031,6.5625v45.46875H129.72656c.35156-73.71094,0-81.32812,0-81.32812h27.07031v11.46436C160.36328,135.23682,166.84052,127.5,181.05469,127.5c17.8125,0,31.17181,11.60156,31.17181,36.5625Z"/></svg>