<svg xmlns="http://www.w3.org/2000/svg" viewBox="0 0 300 300"><title>linkedin-in</title><path d="M61.31,116.5H97.72V243.39H61.31Zm17.27-15.88h-.26c-13.18,0-21.73-9.7-21.73-22,0-12.54,8.8-22,22.25-22s21.69,9.49,22,22c0,12.29-8.52,22-22.21,22ZM243.41,243.41H202.12V177.73c0-17.19-6.46-28.91-20.66-28.91-10.87,0-16.91,7.9-19.72,15.55-1.05,2.72-.89,6.54-.89,10.37v68.67H120s.53-116.34,0-126.91h40.9v19.91c2.42-8.71,15.49-21.13,36.35-21.13,25.88,0,46.21,18.26,46.21,57.55v70.58Z" style="fill-rule:evenodd"/></svg>