<svg id="Layer_1" data-name="Layer 1" xmlns="http://www.w3.org/2000/svg" viewBox="0 0 300 300"><title>FontTristan</title><path d="M245.2813,80.8645V92.5832a2.73,2.73,0,0,1-.9766,1.4648,11.532,11.532,0,0,0-2.4414,1.4648l-91.7969,53.7109c0,0.3281-.3281.4883-0.9766,0.4883l-0.4883-.4883L53.875,95.5129a2.6819,2.6819,0,0,1-.9766-1.4648V80.8645q0-6.34,6.3477-6.3477H238.9336Q245.2734,74.5168,245.2813,80.8645ZM55.34,198.54c0,0.3281-.3281.4883-0.9766,0.4883H53.875a2.6819,2.6819,0,0,1-.9766-1.4648v-81.543a1.9868,1.9868,0,0,1,.4883-1.4648H55.34l54.1992,31.25a0.8653,0.8653,0,0,1,.9766.9766,1.9948,1.9948,0,0,1-.4883,1.4648Zm183.1055,22.4609c0.32,0.3281.32,0.9766,0,1.9531,0,0.6563-.4883.9766-1.4648,0.9766H59.2461a19.78,19.78,0,0,1-3.418-.9766,1.4433,1.4433,0,0,0-.4883-0.9766v-0.4883a1.9868,1.9868,0,0,1,.4883-1.4648L125.1641,156.06c0.9766-.6484,1.625-0.8086,1.9531-0.4883l18.0664,10.7422a8.3615,8.3615,0,0,0,8.3008-.4883l20.5078-12.207a2.86,2.86,0,0,1,1.9531.4883Zm6.8359-106.4453v86.4258c0,0.9766-.3281,1.4648-0.9766,1.4648l-0.4883.4883a3.8939,3.8939,0,0,0-1.4648-.4883l-51.7578-56.1523-0.4883-.9766v-0.4883l0.9766-.9766L242.84,113.5793a1.2125,1.2125,0,0,1,1.4648,0A0.8653,0.8653,0,0,1,245.2813,114.5559Z"/></svg>