<svg id="Layer_1" data-name="Layer 1" xmlns="http://www.w3.org/2000/svg" viewBox="0 0 1200 300"><defs><style>.cls-1{fill-rule:evenodd;}</style></defs><title>FontTristan</title><path class="cls-1" d="M950.2148,117.0094c-11.0879.1447-20.2666,3.7025-27.2871,10.5386-6.981,6.8458-10.644,16.2178-10.8857,27.9039V200.451a7.5952,7.5952,0,0,0,15.186,0V155.4326c0.1646-7.1929,2.4785-13.0552,6.8369-17.4713a22.55,22.55,0,0,1,32.31,0c4.3584,4.3871,6.6538,10.2687,6.8555,17.4327V200.451a7.4839,7.4839,0,0,0,7.55,7.4147h0.0767a7.497,7.497,0,0,0,7.5508-7.4147V155.4326c-0.2129-11.6378-3.896-21.01-10.9253-27.8846C970.4824,120.7119,961.3223,117.1541,950.2148,117.0094Z"/><path class="cls-1" d="M830.2095,116.9949a7.5149,7.5149,0,0,0-7.5591,7.434v45.1147c-0.1641,7.2026-2.4678,13.0842-6.8359,17.5a22.5281,22.5281,0,0,1-32.31,0c-4.3584-4.3967-6.6636-10.288-6.8472-17.4713V124.4289a7.5,7.5,0,0,0-7.5493-7.434h-0.0869a7.5045,7.5045,0,0,0-7.54,7.434V169.534c0.2119,11.6668,3.8853,21.0581,10.9141,27.9424,7,6.8555,16.17,10.423,27.2686,10.5676,11.0874-.1447,20.2666-3.7122,27.2856-10.5676,6.9819-6.8651,10.6455-16.2563,10.8867-27.9521V124.4289A7.5181,7.5181,0,0,0,830.2095,116.9949Z"/><path class="cls-1" d="M642.7607,193.26H615.9941c-14.2314-.3375-25.7925-14.0773-25.7925-30.6036,0-16.8638,11.8408-30.6036,26.41-30.6036h26.043a7.3779,7.3779,0,1,0,0-14.7523h-26.043c-22.832,0-41.3838,20.3446-41.3838,45.3558a47.4946,47.4946,0,0,0,11.7544,31.6642,39.2256,39.2256,0,0,0,29.6675,13.6338h26.1113A7.35,7.35,0,1,0,642.7607,193.26Z"/><path class="cls-1" d="M706.5938,117.2745l-4.5605.01h-1.3408l-11.84.0193c-0.0283,0-.0669-0.0193-0.0962-0.0193h-5.168V87.1434a7.5965,7.5965,0,1,0-15.1855.4628V200.8994c0,3.635,3.3745,6.9615,7.6362,6.9615a7.4982,7.4982,0,0,0,7.5493-7.4243l0.0386-68.3906h22.9185c6.3833,0.1351,11.8315,1.8224,16.2085,6.2384,4.3584,4.4161,6.6631,9.8348,6.8267,16.9988v45.1533a7.4963,7.4963,0,0,0,7.54,7.4243h0.0967a7.5128,7.5128,0,0,0,7.56-7.4243V155.3314c-0.2217-11.6668-3.9048-20.5953-10.9238-27.48C726.8618,120.9867,717.6914,117.4288,706.5938,117.2745Z"/><path class="cls-1" d="M889.9326,131.7567c4.1553,0,7.54-3.9532,7.54-7.781,0-3.8376-3.3843-6.9615-7.54-6.9615H870.4556V86.8156a7.72,7.72,0,0,0-15.4375,0v88.1373c0,12.38,6.22,22.7454,17.5,28.55a43.35,43.35,0,0,0,16.6235,4.551,7.5957,7.5957,0,1,0,.6455-15.1765,27.95,27.95,0,0,1-10.5-3.0276,15.9648,15.9648,0,0,1-8.832-14.8969V131.7567h19.4771Z"/><path class="cls-1" d="M1181.98,124.4713a7.5895,7.5895,0,0,0-15.1758,0V168.93c-0.1934,7.2122-2.4873,13.0938-6.8657,17.51a22.55,22.55,0,0,1-32.31,0c-4.3687-4.416-6.6538-10.2976-6.8369-17.4809v-44.488a7.5845,7.5845,0,0,0-15.166,0V168.94c0.1919,11.6668,3.8765,21.0581,10.895,27.9232,7.01,6.8651,16.1787,10.423,27.2861,10.5869a43.3315,43.3315,0,0,0,23.4985-6.9712c-0.1064,7.9836-1.9292,13.9423-5.4575,17.6448-3.0273,3.1915-5.3608,5.12-11.9658,5.12l-24.24.01a7.0971,7.0971,0,1,0,0,14.1641H1149.42c12.1865,0,20.0449-6.72,24.49-12.39,3.9531-4.9945,8.1963-15.4175,8.1963-26.4286Z"/><path class="cls-1" d="M1047.1221,116.2139c-21.5781,0-43.4272,15.6392-43.4272,45.52,0,22.8708,14.01,47.3132,53.3687,47.3132,7.6265,0,13.7207-1.2342,22.0894-4.3389,11.021-4.0786,4.127-15.1187-2.7383-13.1035-7.7036,2.2755-12.7856,3.5771-20.21,3.5771-20.44,0-33.1973-8.051-36.0508-22.6876H1081.94c6.4019,0,9.3525-3.6447,9.3525-8.6488C1091.2925,131.13,1068.2861,116.2139,1047.1221,116.2139Zm29.1,42.29-57.4761-.0482c0.52-19.7564,14.9932-28.762,28.4443-28.762,13.7393,0,28.5112,9.0249,29.05,28.7813A0.0488,0.0488,0,0,1,1076.2222,158.5036Z"/><path class="cls-1" d="M219.666,123.1012a36.115,36.115,0,0,0-15.08-3.0373l-24.481.0193a7.0914,7.0914,0,1,0,.019,14.1544h25.84c5.4673,0.0386,9.8735,1.7741,13.1035,5.1488a16.64,16.64,0,0,1,2.9795,4.7631H190.5083c-18.4351.1736-33.4478,15.09-33.4478,33.2552,0,18.1751,15.1377,33.072,33.7661,33.2069h40.94a7.4964,7.4964,0,0,0,7.5591-7.405V158.9114c0-11.0208-4.2617-21.4341-8.2051-26.4286C226.7046,126.8422,224.12,125.1067,219.666,123.1012Zm2.4395,73.3272H190.7979a19.1894,19.1894,0,0,1-19.4287-19.0236c0-10.693,8.7358-19.014,19.8818-19.0815h30.8926Z"/><path class="cls-1" d="M419.3594,119.9164h-29.436c-22.8232,0-41.3838,20.3445-41.3838,45.3558a47.28,47.28,0,0,0,11.7534,31.6064,39.4125,39.4125,0,0,0,29.7739,13.5469h21.8394a23.2192,23.2192,0,0,1-5.2544,10.0855,16.9612,16.9612,0,0,1-11.9463,5.12l-24.26.0289a7.0875,7.0875,0,1,0,0,14.1448h24.7705a34.4321,34.4321,0,0,0,12.043-3.0082c4.4448-1.9959,7.0093-3.7218,11.4644-9.3624,3.9331-5.0042,8.1865-15.3983,8.1865-26.4383V127.35A7.5008,7.5008,0,0,0,419.3594,119.9164Zm-6.4209,75.95-23.6138.0193c-14.2412-.3375-25.8208-14.058-25.8208-30.6133,0-16.8638,11.84-30.594,26.4194-30.594l23.0151,0.0386v61.1494Z"/><path class="cls-1" d="M295.3535,119.9647c-11.0884.1446-20.2578,3.6929-27.2773,10.51-6.99,6.8265-10.6543,16.17-10.8955,27.8171v44.8544a7.5959,7.5959,0,0,0,15.186,0V158.2626c0.1738-7.1544,2.478-13.0167,6.8364-17.4135a22.63,22.63,0,0,1,32.32,0c4.3491,4.3775,6.6528,10.24,6.8462,17.3845v44.9123a7.4657,7.4657,0,0,0,7.5493,7.3857h0.0771a7.4782,7.4782,0,0,0,7.5493-7.3857V158.2722c-0.2119-11.6089-3.895-20.9424-10.9141-27.7979C315.63,123.6575,306.4609,120.1093,295.3535,119.9647Z"/><path class="cls-1" d="M487.5991,118.554c-24.9448,0-45.2212,20.8652-45.2212,46.5032,0,25.6284,20.2764,46.4936,45.2212,46.4936,24.9243,0,45.2207-20.8652,45.2207-46.4936C532.82,139.4193,512.5234,118.554,487.5991,118.554Zm0,77.3575c-16.2178,0-29.4082-13.8362-29.4082-30.8543s13.19-30.864,29.4082-30.864c16.1987,0,29.3789,13.8459,29.3789,30.864S503.7979,195.9116,487.5991,195.9116Z"/><path class="cls-1" d="M112.0776,119.9675a35.8584,35.8584,0,0,0-14.5688,3.0372c-4.2134,1.88-9.0059,4.6957-11.9077,8.3692a0.6062,0.6062,0,0,1-.0581.0386,0.2011,0.2011,0,0,1-.0576-0.0386c-2.9121-3.6735-7.7041-6.489-11.9175-8.3692a35.8928,35.8928,0,0,0-14.5693-3.0372c-9.2368.2122-16.9023,3.1625-22.7837,8.7549a28.9031,28.9031,0,0,0-9.1021,21.01v53.4069a7.5856,7.5856,0,0,0,15.1665,0v-49.714c0.0869-5.9009,1.63-10.6254,4.6572-14.0387,3.0371-3.4615,7.2314-5.2356,12.7661-5.303,5.5439,0,9.9985,1.7162,13.248,5.1295,3.3071,3.4422,5.0234,9.1021,5.0815,16.8156v47.1107a7.4735,7.4735,0,0,0,7.4238,7.3762v0.0192c0.0293,0,.0581-0.01.0869-0.01s0.0581,0.01.0771,0.01v-0.0192a7.4736,7.4736,0,0,0,7.4243-7.3762V156.0285c0.0581-7.7136,1.7744-13.3734,5.0815-16.8156,3.24-3.4133,7.7036-5.1295,13.2578-5.1295,5.5244,0.0674,9.7188,1.8416,12.7563,5.303,3.0273,3.4133,4.58,8.1378,4.6567,14.0387v49.714a7.5909,7.5909,0,0,0,15.1768,0V149.7323a28.8764,28.8764,0,0,0-9.1118-21.01C128.98,123.13,121.3242,120.18,112.0776,119.9675Z"/></svg>