<svg xmlns="http://www.w3.org/2000/svg" viewBox="0 0 300 300"><title>medal</title><path d="M207.3,58.39a4.29,4.29,0,0,0-5.92,1.33l-36.69,57.84-10.56-16.81,24.69-36.32a4.29,4.29,0,0,0-7.1-4.83L149.14,92.81,128.37,59.73a4.29,4.29,0,0,0-7.27,4.57l44.78,71.3L151,144.16l-12.57-20.26a4.14,4.14,0,0,0-.59-1L98.64,59.75a4.29,4.29,0,0,0-7.29,4.53l38.26,61.64-5.21,9A4.29,4.29,0,0,0,126,140.8L140,148.93a47.21,47.21,0,1,0,19.9,0L174,140.8a4.29,4.29,0,0,0,1.49-6l-5.77-9.19,38.89-61.3A4.29,4.29,0,0,0,207.3,58.39Zm-72.56,75.8,1.7,2.74L134,135.51Zm53.88,60.87a38.63,38.63,0,1,1-11.31-27.31A38.49,38.49,0,0,1,188.63,195.07Z"/><path d="M115.66,195.07A34.34,34.34,0,1,0,150,160.73,34.34,34.34,0,0,0,115.66,195.07Zm60.09,0a25.75,25.75,0,1,1-7.54-18.21A25.65,25.65,0,0,1,175.75,195.07Z"/></svg>