<svg id="Layer_1" data-name="Layer 1" xmlns="http://www.w3.org/2000/svg" viewBox="0 0 300 300"><title>FontTristan</title><path d="M267.5417,148.4362a45.9584,45.9584,0,0,0-34.5-44.367V44.9362h-23V55.0769L92.3231,113.9362H60.5417a23.0224,23.0224,0,0,0-23,23v23a23.0224,23.0224,0,0,0,23,23h11.5V223.169a28.75,28.75,0,1,0,57.5,0V201.5455l80.5,40.25v10.1407h23v-59.133A45.9584,45.9584,0,0,0,267.5417,148.4362Zm-207-11.5h23v23h-23v-23Zm46,86.2328a5.75,5.75,0,1,1-11.5,0V184.2955l11.5,5.75V223.169Zm0-58.8421V132.5455l103.5-51.75V216.0769Zm126.5,3.9112V128.6344A22.7984,22.7984,0,0,1,233.0417,168.2381Z"/></svg>