<svg id="Layer_1" data-name="Layer 1" xmlns="http://www.w3.org/2000/svg" viewBox="0 0 300 300"><defs><style>.cls-1{fill-rule:evenodd;}</style></defs><title>FontTristan</title><path class="cls-1" d="M244.7242,110.8647q15.3123,37.7973,17.36,67.4046,2.0369,31.1516-10.2135,36.7642a18.4334,18.4334,0,0,1-15.8313-1.0171,80.976,80.976,0,0,1-17.36-10.2135q-8.6905-7.1489-25.5336-10.7247a127.2047,127.2047,0,0,0-39.315-2.0448q-7.1568,1.03-10.7246,5.1067-3.57,3.5784-1.5283,9.7023,3.5625,9.7049,11.7417,28.0844a18.5786,18.5786,0,0,0,6.64,5.6179c3.3974,2.0395,5.4369,3.7488,6.1238,5.1067q3.57,9.1857-5.6125,12.2529-15.32,6.1265-27.062,10.2135-7.66,3.0592-13.7866-10.7247-9.2017-22.4611-15.32-34.7247-1.5416-3.0592-8.68-4.0843a18.9428,18.9428,0,0,1-12.2583-8.1686,69.2013,69.2013,0,0,0-9.7023,3.5784q-9.1857,3.0593-19.4045-3.0672a30.7218,30.7218,0,0,1-14.2925-15.8261q-4.0976-8.6825-1.0277-20.4269,2.556-12.2529,11.2359-16.3426a315.1084,315.1084,0,0,0,55.6575-28.079q23.4835-15.32,32.1687-27.062a116.6564,116.6564,0,0,0,15.32-24,57.3706,57.3706,0,0,0,6.64-20.4269,42.6488,42.6488,0,0,1,4.0844-15.32,17.3673,17.3673,0,0,1,9.1911-9.191q12.7561-5.0961,34.2134,17.8709,20.9276,22.98,37.2754,59.7417m-5.1066,68.427q0.4951-7.66-2.5508-25.5337a212.0353,212.0353,0,0,0-10.7247-33.191q-8.1793-19.4018-17.8762-32.1686-9.6968-15.3123-17.36-21.9553-6.6376-7.1409-9.191-6.1291-2.5561,1.03-2.5507,10.7247-0.5192,9.1937,2.5507,27.5731a180.5015,180.5015,0,0,0,10.2135,34.7247A155.9022,155.9022,0,0,0,210,164.4827q11.7416,14.817,17.8708,19.91,7.1409,6.1345,9.1964,5.1067,2.5482-1.5256,2.5508-10.2081"/></svg>