<svg id="Layer_1" data-name="Layer 1" xmlns="http://www.w3.org/2000/svg" viewBox="0 0 300 300"><defs><style>.cls-1{fill-rule:evenodd;}</style></defs><title>FontTristan</title><path class="cls-1" d="M44.09,86.6937A20.9632,20.9632,0,0,1,65.07,65.7452h57.7654a14.6868,14.6868,0,0,1,8.9818,3.7272l34.5455,34.5455a14.4765,14.4765,0,0,1,3.7272,8.959V233.7618a20.9585,20.9585,0,0,1-20.9478,20.9834H65.0376A20.944,20.944,0,0,1,44.09,233.7968V86.6937ZM212.068,44.7452h21.0438A20.9877,20.9877,0,0,1,254.09,65.7676V212.7452l-20.7035,34.5742c-5.9627,9.9575-15.6493,9.9256-21.5929,0L191.09,212.7452V65.7676A21.0256,21.0256,0,0,1,212.068,44.7452Zm21.0219,131.25V97.2676c0-.0321-21.0219-0.0224-21.0219-0.0224,0.0271,0,.0312,46.3114.0308,78.75H233.09Zm0,21v10.0665l-10.5,17.3335L212.0969,206.933s0-3.78.0009-9.9378H233.09Zm-83.9314-57.75c-0.0151,34.0856-.0388,94.5-0.0163,94.5,0,0-84.0522.0264-84.0522,0.0516L65.07,86.7452H96.59v42a10.49,10.49,0,0,0,10.5308,10.5h42.0378Zm0.01-21c0.0005-1.1194.0008-1.7224,0.0008-1.7224L119.2984,86.7452H117.59v31.5h31.5783Z"/></svg>