<svg id="bb3bbd90-8607-432f-8f03-0dc84dd8eea2" data-name="b3437657-b147-4da7-9489-633249e60c4b" xmlns="http://www.w3.org/2000/svg" viewBox="0 0 300 300"><path d="M166.4,57c6.92-25.43,27.24-42.18,45.36-37.4S238.94,48.87,232,74.3s-27.25,42.17-45.37,37.4S159.48,82.45,166.4,57Zm-53,54.68c18.12-4.76,27.19-29.25,20.25-54.68s-27.24-42.17-45.36-37.4S61.06,48.87,68,74.3,95.25,116.48,113.36,111.7ZM278.17,94.52c-17.06-4.1-35.82,9.07-41.91,29.36s2.79,40.05,19.84,44.13,35.82-9.07,41.92-29.36S295.22,98.6,278.17,94.52ZM150,131.26c-46.51,0-112.45,71.9-112.45,117.28,0,20.44,15.7,32.66,42,32.66,28.6,0,47.49-14.69,70.43-14.69,23.14,0,42.08,14.69,70.44,14.69,26.31,0,42-12.22,42-32.66C262.45,203.16,196.51,131.26,150,131.26Zm-86.26-7.39c-6.09-20.29-24.85-33.43-41.91-29.36S-4.11,118.37,2,138.64,26.84,172.08,43.89,168,69.83,144.17,63.74,123.87Z"/></svg>