<svg id="ff59b5e6-2c3d-4460-b32e-49b0a5095f71" data-name="bb3bbd90-8607-432f-8f03-0dc84dd8eea2" xmlns="http://www.w3.org/2000/svg" viewBox="0 0 300 300"><path d="M34.12,165.21c-6.71-2-23.75-18.26-29.93-33.74-3.59-9-9.25-34.1,5.94-47,5.34-4.53,11.53-2.83,20.21.23,26.85,9.45,52.47,26.93,51.29,49.49C81,145.56,52.53,170.7,34.12,165.21ZM290.56,99.47c-5-4.24-10.8-2.65-18.93.22-25.15,8.85-49.16,25.22-48,46.36.56,10.66,27.26,34.21,44.51,29.07,6.28-1.87,22.24-17.11,28-31.6C299.49,135.12,304.8,111.56,290.56,99.47ZM100.06,112c6,5.11,15.59,12.55,23.13,10.24s11.8-10.43,14.48-18c7.19-20.21,13.74-52-2.9-71.16-8.54-9.81-25.41-12.44-37.28-9.06S64.56,39.75,70.92,68.3C73,77.74,89.19,102.7,100.06,112Zm84,12c7.74,2,15.51-2.75,21.72-7.77C222.47,102.71,244.66,79,240.43,54c-2.17-12.82-15.19-23.86-27.09-27.16s-36.29-3.76-45.75,23.92c-3.13,9.15-2.35,38.88,2.09,52.45C172.13,110.67,176.44,122,184.07,124Zm8.69,20.57c-40.42-18.15-53.55-9.22-76.42-.86-46.75,17.1-84.26,65-89.9,79.9s-3.57,33.82,8.8,43.86c8.58,6.95,28.53,13.91,93-3.78,18.62-5.11,40-7.07,57.42,1.16,41.27,19.43,53,9.83,60.86,2.63,8.26-7.55,10.27-19.88,9.27-31C254.82,225.59,231.73,162.05,192.76,144.55Z"/></svg>