<svg id="Layer_1" data-name="Layer 1" xmlns="http://www.w3.org/2000/svg" viewBox="0 0 300 300"><defs><style>.cls-1{fill-rule:evenodd;}</style></defs><title>FontTristan</title><path class="cls-1" d="M235.18,42.5026a13.6575,13.6575,0,0,0-19.2995,0l-20.1,20.1141a6.0615,6.0615,0,0,0,0,8.5822l34.0339,34.0339a6.0615,6.0615,0,0,0,8.5822,0l20.1-20.1a13.649,13.649,0,0,0,0-19.3135ZM188.4766,78.4889a6.0321,6.0321,0,0,0-8.5682,0l-111.344,111.33a6.0742,6.0742,0,0,0,0,8.5822l34.0479,34.0479a6.07,6.07,0,0,0,8.5682,0L222.5246,121.105a6.0615,6.0615,0,0,0,0-8.5822ZM62.1172,206.5339a4.561,4.561,0,0,0-6.4332,0c-1.2922,1.2922-17.4594,49.5971-18.0634,51.4371a4.5328,4.5328,0,0,0,5.464,5.4078c1.7277-.5759,50.1027-16.7711,51.395-18.0493a4.561,4.561,0,0,0,0-6.4331Z"/></svg>