<svg id="Layer_1" data-name="Layer 1" xmlns="http://www.w3.org/2000/svg" viewBox="0 0 300 300"><title>FontTristan</title><path d="M251.9681,222.2738l-29.565,29.565a21.14,21.14,0,0,1-11.826,5.913H206.438q-49.0873,0-105.8427-57.3561Q43.2345,143.6309,43.2392,90.4133a21.14,21.14,0,0,1,5.913-11.826l29.565-29.565c2.7531-1.9678,5.3217-2.9565,7.6869-2.9565q5.9035,0,8.8695,5.913l24.2433,44.9388q3.5478,10.0616-2.9565,15.3738L105.917,123.5261c-1.1826,1.1826-1.7739,2.1713-1.7739,2.9565l1.1826,4.1391q1.1779,4.74,8.2782,15.3738a150.1479,150.1479,0,0,0,18.9216,22.47q27.19,27.2045,41.9823,28.3824a4.5464,4.5464,0,0,0,1.7739-.5913,1.6768,1.6768,0,0,0,1.1826-1.1826l13.0086-12.4173a13.0369,13.0369,0,0,1,9.4608-4.1391,9.5845,9.5845,0,0,1,5.913,1.7739l43.7562,25.4259q4.7257,2.966,5.3217,7.6869Q255.5064,217.5481,251.9681,222.2738Z"/></svg>