<svg id="be2d499e-8677-45ae-aaa0-09dd708f6861" data-name="ee60d37a-743d-4368-bd06-18f4dc58afce" xmlns="http://www.w3.org/2000/svg" viewBox="0 0 300 300"><path d="M275.24,210.81c-.07-.08-.13-.11-.19-.17-2.81-80.15-91.12-95.56-129.37-76.78-2.68,1.32-5.67-1.59-5.71-4.57l-.31-24a14.42,14.42,0,0,1,.65-5.48c.95-2.4,3.08-4.07,5-5.8,9.91-9,15.6-21.82,18.19-34.92,2.86-14.39,2.3-29.24,2.07-43.88a18.93,18.93,0,0,0-1.44-7.33c-4.83-11-17-8.07-25.06-3a66.17,66.17,0,0,0-14,11.78c-.06-.44-.13-.88-.19-1.32a19,19,0,0,0-2.39-7.07C116.31-2,104.67,2.48,97.29,8.55A68.83,68.83,0,0,0,73,67.88c.56,5.21,1.72,10.42,1.21,15.64a20.57,20.57,0,0,1-1.08,4.86,54.13,54.13,0,0,0-7.61,1.74c-16.26,5.06-30.62,17.08-37,33C27,126.92,25.8,131,23,133.9c-1.42,1.47-3.19,2.56-4.67,4-7.79,7.42-4.83,21.3,3,28.63s18.88,10,29.24,12.86c3.18.89,6.54,1.94,8.66,4.48a11.42,11.42,0,0,1,2.93,7.72c-1.73,26.89,4.53,43.8,15.72,63.36a77.78,77.78,0,0,0,10,13.64c-.21-.14-13,4.13-13.61,4.42-10.69,5.42-9.13,23-9.1,23a4.07,4.07,0,0,0,3.53,1.18c.56-.15,133.4,2.7,135.19,2.7,1,0,15.7,1.67,33.54-7.13,12.84-7.14,26.89-23.73,33.58-46.42a12.87,12.87,0,0,0,15.06-10C288.21,226.86,282.72,220.13,275.24,210.81Z"/></svg>