<svg id="ee60d37a-743d-4368-bd06-18f4dc58afce" data-name="b3437657-b147-4da7-9489-633249e60c4b" xmlns="http://www.w3.org/2000/svg" viewBox="0 0 300 300"><path d="M279.89,285.6l-54.78-87.66V159.37h4.3A33.18,33.18,0,0,0,248.7,99.19L220.2,78.84c-.64-.32-1.33-.43-2-.71,4.57-7.32,8.91-17.43,12-29.09,6.63-24.73,5.32-46.59-2.92-48.79S207,16.3,200.39,41.06A130,130,0,0,0,197,58.12a132,132,0,0,0-3.38-17.06C187,16.3,174.91-2,166.67.25S157.11,24.31,163.74,49C167.8,64.21,173.91,76.89,179.93,84a30.81,30.81,0,0,0-10.55,18.48,37.41,37.41,0,0,0-.5,6V150h-7.5A104.87,104.87,0,0,0,60,228.25,28.11,28.11,0,1,0,59.88,278a37.41,37.41,0,0,0,34,22h84.34a9.37,9.37,0,0,0,9.37-9.38v-9.37a18.74,18.74,0,0,0-18.74-18.74H155.65L199.2,227.2l42.7,68.33a9.37,9.37,0,0,0,7.95,4.41H272a9.37,9.37,0,0,0,7.93-14.34ZM215.73,121.89a9.38,9.38,0,1,1,9.38-9.37A9.38,9.38,0,0,1,215.73,121.89Z"/></svg>