<svg xmlns="http://www.w3.org/2000/svg" viewBox="0 0 300 300"><title>radial-bar-outline</title><path d="M236.95,123.18A90.3,90.3,0,0,0,152.54,59.7a3.48,3.48,0,0,0-.14,7,83.48,83.48,0,1,1-75,43.72,3.48,3.48,0,1,0-6.12-3.32h0a90.33,90.33,0,1,0,165.7,16.12Z"/><path d="M150.84,218a67.47,67.47,0,0,0,1.4-134.92,3.48,3.48,0,0,0-.14,7,60.54,60.54,0,1,1-61,51.2,3.48,3.48,0,1,0-6.88-1.08h0A67.5,67.5,0,0,0,150.84,218Z"/><path d="M151,195.71a44.61,44.61,0,0,0,.92-89.22,3.48,3.48,0,1,0-.14,7,37.65,37.65,0,1,1-36.73,48.78,3.48,3.48,0,1,0-6.65,2.06A44.64,44.64,0,0,0,151,195.71Z"/><polygon points="108.42 164.31 108.42 164.31 108.42 164.31 108.42 164.31"/></svg>