<svg id="Layer_1" data-name="Layer 1" xmlns="http://www.w3.org/2000/svg" viewBox="0 0 300 300"><title>search</title><path d="M257.5,234l-46.38-46.38a92.56,92.56,0,0,0,16.76-53.95,93.57,93.57,0,0,0-7.5-37A93.25,93.25,0,0,0,169.67,46a94.92,94.92,0,0,0-74,0A93.33,93.33,0,0,0,45,96.71a94.92,94.92,0,0,0,0,74,93.25,93.25,0,0,0,50.71,50.71,93.57,93.57,0,0,0,37,7.5,92.56,92.56,0,0,0,53.95-16.76L233,258.36a16.06,16.06,0,0,0,12.17,5.14A17.31,17.31,0,0,0,257.5,234Zm-82-57.53q-17.79,17.77-42.8,17.78T89.9,176.49q-17.79-17.79-17.78-42.8A58.31,58.31,0,0,1,89.9,90.9a58.31,58.31,0,0,1,42.79-17.78q25,0,42.8,17.78t17.78,42.79Q193.27,158.71,175.49,176.49Z"/></svg>