<svg id="e2897d55-2fdf-48b7-9044-32961f9827fe" data-name="Layer 1" xmlns="http://www.w3.org/2000/svg" viewBox="0 0 300 300"><path d="M293.31,261.65l-61.83-61.83a123.4,123.4,0,0,0,22.34-71.92,124.81,124.81,0,0,0-10-49.33A124.33,124.33,0,0,0,176.22,11a126.59,126.59,0,0,0-98.65,0A124.44,124.44,0,0,0,10,78.63a126.59,126.59,0,0,0,0,98.65,124.32,124.32,0,0,0,67.6,67.6,124.84,124.84,0,0,0,49.33,10,123.41,123.41,0,0,0,71.92-22.35l61.78,61.59A21.42,21.42,0,0,0,276.87,301a23.08,23.08,0,0,0,16.44-39.33ZM184,185q-23.72,23.7-57.05,23.71T69.88,185q-23.71-23.72-23.7-57.06a77.72,77.72,0,0,1,23.7-57,77.72,77.72,0,0,1,57-23.7q33.33,0,57.06,23.7t23.7,57q0,33.36-23.7,57.06Z"/></svg>