<svg xmlns="http://www.w3.org/2000/svg" viewBox="0 0 300 300"><defs><style>.a{fill-rule:evenodd;}</style></defs><title>shoe</title><path class="a" d="M145.77035,99.852c7.15906,1.5667,19.24541,2.51956,36.09162-1.86687-4.393-11.02428-7.71834-19.45236-8.69967-21.86948-2.95242-7.252-25.74632-6.05339-29.97716,20.0528a3.27737,3.27737,0,0,0,2.58521,3.68355"/><path class="a" d="M198.292,167.67387a1.05675,1.05675,0,0,0-.49008,1.14708,1.13073,1.13073,0,0,0,.948.8626l13.66939,2.00345c-1.27683-2.70093-2.77411-6.03233-4.42391-9.82347Z"/><path class="a" d="M43.67434,98.91274c30.66571,29.21408,123.713,109.92654,147.19968,119.68762,33.12761,13.79491,55.91645,15.81561,70.82182,6.175a3.62136,3.62136,0,0,0,1.21892-4.78633c-1.998-3.71258-5.31073-7.76937-10.59709-12.166-13.09225-10.88666-21.622-14.90624-28.11712-20.12021l-18.48908,13.185c-4.574,3.25868-9.97294-3.57312-5.26731-6.93176l15.73122-11.21646a1.062,1.062,0,0,0,.41132-1.1394,1.15089,1.15089,0,0,0-.93976-.825l-33.097-4.84154a4.28407,4.28407,0,0,1-1.78506-7.8794l18.43553-11.04041a1.052,1.052,0,0,0,.4989-1.11748,1.12167,1.12167,0,0,0-.8907-.88167l-33.33683-6.80277c-4.8895-1.00622-4.27021-7.31693-.64873-8.85308L189.91,128.68918a2.71871,2.71871,0,0,0,1.47536-3.548,134.578,134.578,0,0,1-5.74914-17.565c-25.99461,6.93961-57.01777,5.12451-72.15779-17.20063C101.92447,73.33916,118.3379,64.844,112.47532,52.489c-5.656-11.91143-35.50763-1.34557-54.93478,20.801A106.91754,106.91754,0,0,0,42.89895,94.553a3.6783,3.6783,0,0,0,.7754,4.35975"/><path class="a" d="M265,234.14528c-21.90271,12.96328-52.22219,4.35292-77.92367-6.33652C161.41144,217.136,68.90836,136.218,37.71541,106.82852c-2.90531,8.56046-3.335,15.26594-1.9725,18.338,2.84908,6.42247,111.20463,103.04111,149.894,116.36289,38.68357,13.31982,71.84659,14.94264,76.20078,2.29717.83407-2.42226,2.51718-5.66536,3.16236-9.68135"/><path class="a" d="M195.98754,135.49463l-13.083,5.56351a1.05492,1.05492,0,0,0-.64566,1.10786,1.13483,1.13483,0,0,0,.89953.9605l18.47568,3.76685c-.42521-1.02437-4.286-8.60339-5.6465-11.39873"/></svg>