<svg id="f6681006-a9d6-48e6-9ef9-8a7311d9f31f" data-name="Layer 1" xmlns="http://www.w3.org/2000/svg" viewBox="0 0 300 300"><path d="M287.2,49.94H75.08L70.39,27c-1-5.74-6.25-10.43-12-10.43H6.29A6.34,6.34,0,0,0,0,22.84v12.5A6,6,0,0,0,6.29,41.6H48l36,185.53a33.44,33.44,0,1,0,57.85,22.93c0-4.69-2.08-12-4.69-16.67h75.57a39.47,39.47,0,0,0-4.17,16.67,33.36,33.36,0,1,0,66.71,0c0-9.38-4.17-17.72-10.42-24l.52-2.08c1.56-7.82-4.17-15.64-12.51-15.64h-147l-4.69-25H263.75a12.38,12.38,0,0,0,12.5-9.38l23.46-108.4C301.27,57.75,295.54,49.94,287.2,49.94ZM241.86,237.55a12.68,12.68,0,0,1,12.5,12.51,12.34,12.34,0,0,1-12.5,12.51,12,12,0,0,1-12.51-12.51A12.35,12.35,0,0,1,241.86,237.55Zm-133.42,0A12.69,12.69,0,0,1,121,250.06a12.35,12.35,0,0,1-12.51,12.51,12,12,0,0,1-12.51-12.51A12.35,12.35,0,0,1,108.44,237.55Zm145.4-79.21H95.93L79.78,75h192.3Z"/></svg>