<svg id="Layer_1" data-name="Layer 1" xmlns="http://www.w3.org/2000/svg" viewBox="0 0 300 300"><defs><style>.cls-1{fill-rule:evenodd;}</style></defs><title>FontTristan</title><path class="cls-1" d="M107.0935,264.7813a21.9192,21.9192,0,1,0-21.9192-21.9192A21.9192,21.9192,0,0,0,107.0935,264.7813Zm98.6365,0a21.9192,21.9192,0,1,0-21.9192-21.9192A21.9192,21.9192,0,0,0,205.73,264.7813ZM97.2751,155.1851l128.6106-.0047,10.379-55.5613L82.2719,90.2ZM77.13,67.9254L251.4475,78.6145a9.3824,9.3824,0,0,1,8.9165,11.3642l-14.2662,76.3707a13.6854,13.6854,0,0,1-12.9588,10.7549H102.3356l2.53,10.96H227.6492a10.96,10.96,0,0,1,0,21.9192H96.1339A10.96,10.96,0,0,1,85.455,201.488L53.7542,64.1178l-17.137-8.6091a10.96,10.96,0,0,1,9.784-19.6144l21.746,10.8472a10.96,10.96,0,0,1,5.787,7.3428Z"/></svg>