<svg id="Layer_1" data-name="Layer 1" xmlns="http://www.w3.org/2000/svg" viewBox="0 0 300 300"><defs><style>.cls-1{fill-rule:evenodd;}</style></defs><title>star-alt</title><path class="cls-1" d="M248.67,120.47H191.85a15.62,15.62,0,0,1-12.37-12.94L160.6,53.24h0a11.24,11.24,0,0,0-20.9,0l-18.89,54.29a17.6,17.6,0,0,1-14.21,12.94H49.8c-10.62,0-20,9.8-11.45,15.63l49.43,33.57A14,14,0,0,1,93.47,186l-18.89,54.3a10.81,10.81,0,0,0,16.9,11.45L141,218.16a16.49,16.49,0,0,1,18.35,0l49.48,33.55a10.8,10.8,0,0,0,16.89-11.45L206.78,186a14.05,14.05,0,0,1,5.68-16.29l49.48-33.57C270.56,130.32,259.31,120.47,248.67,120.47Z"/></svg>