<svg xmlns="http://www.w3.org/2000/svg" viewBox="0 0 300 300"><defs><style>.a{fill-rule:evenodd;}</style></defs><title>FontTristan-01</title><path class="a" d="M265,125.32753c0-4.14663-4.42307-5.80528-7.74056-6.35816l-69.38691-10.09015L156.7728,45.98856c-1.244-2.62606-3.59376-5.667-6.77283-5.667s-5.52885,3.04095-6.77283,5.667l-31.09976,62.89066-69.387,10.09015C39.28485,119.52225,35,121.1809,35,125.32753c0,2.488,1.79687,4.83774,3.45553,6.63462L88.768,180.89242,76.881,250.003a18.73389,18.73389,0,0,0-.27644,2.76442c0,3.59375,1.79688,6.91106,5.8053,6.91106a11.66909,11.66909,0,0,0,5.52884-1.65865L150,225.39961l62.06119,32.62018a11.2271,11.2271,0,0,0,5.52884,1.65865c4.00854,0,5.66719-3.31731,5.66719-6.91106a18.529,18.529,0,0,0-.13819-2.76442l-11.8871-69.11055,50.17427-48.93026C263.203,130.16527,265,127.81551,265,125.32753Z"/></svg>