<svg id="Layer_1" data-name="Layer 1" xmlns="http://www.w3.org/2000/svg" viewBox="0 0 300 300"><defs><style>.cls-1{fill-rule:evenodd;}</style></defs><title>FontTristan</title><path class="cls-1" d="M32.1883,206.9064H259.814A32.6384,32.6384,0,0,1,227.36,239.3608H64.6427a31.8974,31.8974,0,0,1-32.4544-32.4544m235.6234-97.3632a46.6731,46.6731,0,0,1-14.2243,34.23q-14.6671,14.674-34.6751,14.674H210.91v4.0012a28.85,28.85,0,0,1-28.4578,28.4532H93.0959a28.8422,28.8422,0,0,1-28.4532-28.4532V68.6416a7.2532,7.2532,0,0,1,2.2254-5.3365,8.05,8.05,0,0,1,5.7769-2.6659H218.9123q19.556,0,34.6751,14.229,14.2219,15.1121,14.2243,34.6751m-24.4475,0a24.2842,24.2842,0,0,0-24.452-24.452H210.91v48.9041h8.0024q9.3329,0,17.34-7.1121a23.6175,23.6175,0,0,0,7.1122-17.34"/></svg>