<svg id="Layer_1" data-name="Layer 1" xmlns="http://www.w3.org/2000/svg" viewBox="0 0 300 300"><title>team-alt</title><path d="M183.7,104.2a4.8,4.8,0,0,0,3,2.9,24.32,24.32,0,0,0,27.6-6.8,25.26,25.26,0,0,0,2.9-28.6,24.45,24.45,0,0,0-25.6-12.3h0a4.91,4.91,0,0,0-3.5,2.3,5.15,5.15,0,0,0-.4,4.2,37,37,0,0,1-3.6,34.3A4.28,4.28,0,0,0,183.7,104.2Z"/><path d="M111.9,61.6a4.55,4.55,0,0,0-3.4-2.3,25.07,25.07,0,0,0-18.9,4.8,25.66,25.66,0,0,0-9.8,17.1,25.71,25.71,0,0,0,9.8,22.1,24.67,24.67,0,0,0,23.7,3.6,4.57,4.57,0,0,0,3-2.9,5.15,5.15,0,0,0-.4-4.2,37.31,37.31,0,0,1-3.6-34.3A4.23,4.23,0,0,0,111.9,61.6Z"/><path d="M188.3,202.4a5.33,5.33,0,0,0-3.6,4.3L182,236.6a6,6,0,0,0,1.7,4.6,6.36,6.36,0,0,0,4.5,1.9H205a7.21,7.21,0,0,0,7.3-6.6l3.8-49.2a4.88,4.88,0,0,1,4.8-4.5l3.2-.1a7.21,7.21,0,0,0,6.9-6.5l4.3-46.9A11.42,11.42,0,0,0,223.7,118H210.2a4.27,4.27,0,0,0-3.5,1.7,4.19,4.19,0,0,0-.6,3.9,24.18,24.18,0,0,1,1.2,7.6v-.1l-4.9,54.5A19.9,19.9,0,0,1,188.3,202.4Z"/><path d="M125.7,112.8a27.76,27.76,0,0,0-21.4,18.3l4.9,53.4a8.37,8.37,0,0,0,8,7.5l3.6.1a5.55,5.55,0,0,1,5.4,5.2l4.4,56a8.2,8.2,0,0,0,8.3,7.5h22.5a8.2,8.2,0,0,0,8.3-7.5l4.4-56.1a5.62,5.62,0,0,1,5.4-5.2l3.6-.1a8.19,8.19,0,0,0,7.9-7.4l4.9-53.5a28,28,0,0,0-21.5-18.2H125.7Z"/><path d="M125.8,75.7a24.2,24.2,0,1,0,48.4.2h0a24.2,24.2,0,1,0-48.4-.2Z"/><path d="M68.3,121.1a11.6,11.6,0,0,0-3.5,8.1l4.3,46.9a7.21,7.21,0,0,0,6.9,6.5l3.2.1a4.88,4.88,0,0,1,4.8,4.5l3.8,49.2a7.21,7.21,0,0,0,7.3,6.6h16.8a6.36,6.36,0,0,0,4.5-1.9,6,6,0,0,0,1.7-4.6l-2.8-29.8a5.33,5.33,0,0,0-3.6-4.3,19.64,19.64,0,0,1-14-16.7l-4.9-54.5a24.64,24.64,0,0,1,1.2-7.6h0a4.49,4.49,0,0,0-.6-3.9,4,4,0,0,0-3.5-1.7H76.4A10.76,10.76,0,0,0,68.3,121.1Z"/></svg>