<svg xmlns="http://www.w3.org/2000/svg" viewBox="0 0 300 300"><title>team-outline</title><polygon points="83.62 227.78 83.62 227.78 83.62 227.77 83.62 227.78"/><polygon points="74.34 118.39 74.34 118.39 74.33 118.39 74.34 118.39"/><polygon points="233.5 118.39 233.5 118.39 233.49 118.39 233.5 118.39"/><path d="M252.85,170c-3.29-7.18-9.62-13.26-20-17.14a105.28,105.28,0,0,1-16-7.85c-.89-.53-1.69-1-2.43-1.48a48.59,48.59,0,0,0,9-9.77,68.15,68.15,0,0,0,4.48-7.16,33.1,33.1,0,0,0,2.22-4.88c.17-.12.61-.38,1.22-.86a8,8,0,0,0,2.11-2.52c2.43-4.5,3.44-8.28,3.44-11.52a12.12,12.12,0,0,0-3.11-8.41,11.58,11.58,0,0,0-1.22-1.13c0-.12,0-.25,0-.38a65.29,65.29,0,0,0-1.89-16h0a31.86,31.86,0,0,0-6.8-11.81c-5.13-5.82-14.16-11.61-28.05-11.57a38.07,38.07,0,0,0-17.29,3.8A32.5,32.5,0,0,0,165,74.33a32.83,32.83,0,0,0-3,7,44.26,44.26,0,0,0-8.85-.84,45.46,45.46,0,0,0-6.66.47,35.31,35.31,0,0,0-6.37-11.11C135,63.68,125.92,57.55,112,57.59S89,63.33,83.91,69.16A31.87,31.87,0,0,0,77.11,81v0a65.4,65.4,0,0,0-1.89,16c0,.13,0,.25,0,.37A11.58,11.58,0,0,0,74,98.46a12.12,12.12,0,0,0-3.11,8.41c0,3.24,1,7,3.45,11.52a8.53,8.53,0,0,0,3,3.16l.33.22A30.27,30.27,0,0,0,80,126.65a79.09,79.09,0,0,0,7.5,10.79,56.51,56.51,0,0,0,6.1,6.37A126.57,126.57,0,0,1,75,152.91c-10.35,3.87-16.68,9.95-20,17.12s-3.78,15-3.79,22.9c0,1.29,0,2.59,0,3.88A14.62,14.62,0,0,0,54.8,206a12.06,12.06,0,0,0,9.06,4.42H86a98,98,0,0,0-2.43,17.36l0,.77a14.72,14.72,0,0,0,3.47,9.36,12,12,0,0,0,9.16,4.51H213.93A12.15,12.15,0,0,0,223,238a14.31,14.31,0,0,0,3.55-9.25l0-.76A98.79,98.79,0,0,0,224,210.42h20A12.06,12.06,0,0,0,253,206a14.62,14.62,0,0,0,3.57-9.18c0-1.28,0-2.57,0-3.85C256.62,185.07,256.15,177.21,252.85,170ZM176,96.63a27.15,27.15,0,0,1,4.21,6.33c.41.86.69,1.56.85,2l.17.52,0,.11a58.57,58.57,0,0,1,1.65,14.15c0,.66,0,1.19,0,1.54l0,.51a3.48,3.48,0,0,0,2.38,3.49h0a2.86,2.86,0,0,1,1,.77,4.48,4.48,0,0,1,.93,3.1c0,1.78-.59,4.66-2.72,8.82-.24.41-.23.37-.76.73a10.09,10.09,0,0,0-1.26.89,5,5,0,0,0-1.55,2.43h0a38.46,38.46,0,0,1-2.83,6.44,54.06,54.06,0,0,1-10.17,13.68c-4.37,4.09-9.36,6.82-14.78,6.81a18.9,18.9,0,0,1-10.21-3.22c-4.78-3-9-8-12-12.71a49.19,49.19,0,0,1-5.52-11l-.13-.36a6.2,6.2,0,0,0-1.54-2.21,13.5,13.5,0,0,0-1.72-1.24l-.34-.38c-2-3.78-2.61-6.46-2.61-8.2a5,5,0,0,1,1.26-3.66l.81-.68.2-.12h0a3.49,3.49,0,0,0,2.1-3.38l0-.51c0-.35,0-.88,0-1.54A58.48,58.48,0,0,1,125,105.62a25.66,25.66,0,0,1,5.66-9.42c4.18-4.42,10.84-8.76,22.46-8.8C165.09,87.44,171.81,92.06,176,96.63ZM63.86,203.45a5.14,5.14,0,0,1-3.78-2,7.72,7.72,0,0,1-1.88-4.74c0-1.28,0-2.54,0-3.78,0-7.6.56-14.45,3.14-20s7-10.06,16.12-13.55A137.41,137.41,0,0,0,101.7,147a3.48,3.48,0,0,0-.11-5.87c-3.74-2.26-8.06-7-11.37-11.54a70.08,70.08,0,0,1-4.17-6.39,22.85,22.85,0,0,1-1.87-3.85l-.13-.36a6.3,6.3,0,0,0-1.51-2.2,14.13,14.13,0,0,0-1.7-1.27l-.39-.43h0c-2-3.78-2.61-6.46-2.61-8.21a5.09,5.09,0,0,1,1.26-3.68l.81-.68.2-.12h0A3.48,3.48,0,0,0,82.22,99l0-.51c0-.35,0-.88,0-1.54a58.75,58.75,0,0,1,1.65-14.17,25.69,25.69,0,0,1,5.67-9.42c4.18-4.43,10.84-8.77,22.46-8.8,11.93,0,18.62,4.88,22.79,9.73A29,29,0,0,1,139,81c.26.57.46,1.06.62,1.48A33.34,33.34,0,0,0,125,92a31.83,31.83,0,0,0-6.8,11.81h0a65.13,65.13,0,0,0-1.89,16c0,.13,0,.24,0,.36a11.55,11.55,0,0,0-1.21,1.12,12.07,12.07,0,0,0-3.12,8.4c0,3.23,1,7,3.45,11.52a8.31,8.31,0,0,0,3.07,3.16l.26.17a47.08,47.08,0,0,0,3.21,7.26,61.81,61.81,0,0,0,10.77,14.71,61.22,61.22,0,0,1-16.67,9.28c-11.53,4.33-19.54,11.36-24.57,20.34a51.17,51.17,0,0,0-3.37,7.35Zm153.91,30a5.22,5.22,0,0,1-3.84,2H96.22a5.11,5.11,0,0,1-3.83-2,7.82,7.82,0,0,1-1.83-4.87v-.36h0c.67-11.42,2.74-21.07,7-28.67s10.72-13.34,21-17.25A65.87,65.87,0,0,0,138.21,171a26.28,26.28,0,0,0,14.89,4.94A25.87,25.87,0,0,0,167,171.64a36.49,36.49,0,0,0,3.17-2.31,3.45,3.45,0,0,0,.71.88h0c.22.19,7.59,6.54,20.68,11.5,10.16,3.88,16.59,9.93,20.92,17.83a46.6,46.6,0,0,1,2.81,6.24,3.42,3.42,0,0,0,1.3,4,87.11,87.11,0,0,1,3,18.63v.34A7.41,7.41,0,0,1,217.77,233.45Zm31.87-36.74a7.72,7.72,0,0,1-1.88,4.74,5.14,5.14,0,0,1-3.78,2H221.91a54.37,54.37,0,0,0-3.26-7.25c-5-9.23-13-16.65-24.58-21a76.19,76.19,0,0,1-13.89-6.9c-1.58-1-2.78-1.87-3.57-2.46l-.87-.68-.2-.17,0,0a3.43,3.43,0,0,0-.33-.23,60.42,60.42,0,0,0,6-7.86,57.38,57.38,0,0,0,6.15-12.18c.24-.15.57-.37.95-.66a8.32,8.32,0,0,0,2.35-2.83h0c2.47-4.83,3.48-8.72,3.49-12a11.25,11.25,0,0,0-3.21-8.28,10.32,10.32,0,0,0-1.07-.9c0-.08,0-.15,0-.23A65.22,65.22,0,0,0,188,103.82v0A31.85,31.85,0,0,0,181.15,92a33,33,0,0,0-12.52-8.75,27.17,27.17,0,0,1,5.22-9.46c4-4.66,10.45-9.18,22-9.23,12,0,18.71,4.66,22.85,9.24a27.16,27.16,0,0,1,4.21,6.33c.41.86.69,1.56.85,2l.17.52,0,.11a58.65,58.65,0,0,1,1.65,14.16c0,.66,0,1.19,0,1.54l0,.51a3.48,3.48,0,0,0,2.09,3.38h0l.07,0a4.15,4.15,0,0,1,1.27,1.16,5.35,5.35,0,0,1,.94,3.29c0,1.75-.56,4.43-2.61,8.21h0c-.22.33-.11.23-.73.67a9.62,9.62,0,0,0-1.35,1,6.3,6.3,0,0,0-1.51,2.2l-.13.36a25.23,25.23,0,0,1-1.83,4,60.18,60.18,0,0,1-6.59,9.75c-2.71,3.25-5.84,6-8.61,7.26a3.48,3.48,0,0,0-.59,6,121.08,121.08,0,0,0,24.39,13.08c9.09,3.49,13.53,8.06,16.13,13.56s3.15,12.37,3.14,20C249.67,194.2,249.65,195.45,249.63,196.71Z"/></svg>