<svg xmlns="http://www.w3.org/2000/svg" viewBox="0 0 300 300"><title>trash-alt</title><path d="M133.07,138.71a5.57,5.57,0,0,0-5.64,5.62v45.2a5.69,5.69,0,0,0,5.64,5.62,5.57,5.57,0,0,0,5.64-5.62v-45.2A5.69,5.69,0,0,0,133.07,138.71Z"/><path d="M229,93.56H183.86s0-.07,0-.11V71.09A11.34,11.34,0,0,0,172.68,59.7H127.32a11.23,11.23,0,0,0-11.18,11.39V93.56H71a11.29,11.29,0,1,0,0,22.58H82.27V217.69a22.66,22.66,0,0,0,22.67,22.61h90.11a22.62,22.62,0,0,0,22.67-22.61V116.14H229a11.29,11.29,0,1,0,0-22.58ZM138.71,82.27h22.58V93.56H138.71Zm56.44,124.19a11.25,11.25,0,0,1-11.25,11.26H116.1a11.31,11.31,0,0,1-11.25-11.26V127.4a11.25,11.25,0,0,1,11.25-11.26H183.9a11.31,11.31,0,0,1,11.25,11.26Z"/><path d="M166.93,138.71a5.57,5.57,0,0,0-5.64,5.62v45.2a5.69,5.69,0,0,0,5.64,5.62,5.57,5.57,0,0,0,5.64-5.62v-45.2A5.69,5.69,0,0,0,166.93,138.71Z"/></svg>