<svg id="Layer_1" data-name="Layer 1" xmlns="http://www.w3.org/2000/svg" viewBox="0 0 300 300"><defs><style>.cls-1{fill-rule:evenodd;}</style></defs><title>FontTristan</title><path class="cls-1" d="M249.8464,109.6823V244.5258a13.4906,13.4906,0,0,1-13.487,13.4844H74.5156a13.4906,13.4906,0,0,1-13.487-13.4844V109.6823H47.5417V96.1979a13.4906,13.4906,0,0,1,13.487-13.4844h53.9479V55.7448A13.4905,13.4905,0,0,1,128.4635,42.26h53.9479a13.4905,13.4905,0,0,1,13.487,13.4843V82.7135h53.9479a13.4906,13.4906,0,0,1,13.487,13.4844v13.4844h-13.487ZM141.9505,82.7135h26.974V69.2292h-26.974V82.7135ZM88.0026,231.0415h134.87V109.6823H88.0026V231.0415Zm26.974-26.9687h26.974V136.651h-26.974v67.4218Zm53.9479,0h26.974V136.651h-26.974v67.4218Z"/></svg>