<svg id="b5248bfc-6503-45d2-8187-805951d2e132" data-name="Layer 1" xmlns="http://www.w3.org/2000/svg" viewBox="0 0 300 300"><path d="M269.54,88.31v7.61q0,67-47.59,121.07T94.42,271.05A171,171,0,0,1,0,243.64a97.19,97.19,0,0,0,14.47.76,122,122,0,0,0,76.9-26.65A57.07,57.07,0,0,1,55.2,205.57a63.34,63.34,0,0,1-21.7-30.46,62.07,62.07,0,0,0,11.42,1.52,58.29,58.29,0,0,0,16.76-2.28A62,62,0,0,1,26.27,153,58.48,58.48,0,0,1,12.18,114.2v-1.53a64.41,64.41,0,0,0,27.41,8.38Q12.18,101.27,12.18,69.27a59.88,59.88,0,0,1,8.38-30.45Q70,99,147.72,102.78a90.31,90.31,0,0,1-1.53-13.71A61.09,61.09,0,0,1,206.71,27.4h1.16q25.88,0,44.92,19A100,100,0,0,0,291.62,32,59.91,59.91,0,0,1,265,65.47q16-.75,35-9.14A131,131,0,0,1,269.54,88.31Z"/></svg>