<svg id="Layer_1" data-name="Layer 1" xmlns="http://www.w3.org/2000/svg" viewBox="0 0 300 300"><title>FontTristan</title><path d="M225.75,110.1613v4.8828q0,42.9727-30.5176,77.6367-30.5215,34.6758-81.7871,34.668a109.6369,109.6369,0,0,1-60.5469-17.5781,62.2268,62.2268,0,0,0,9.2773.4883,78.2782,78.2782,0,0,0,49.3164-17.09,36.6041,36.6041,0,0,1-23.1934-7.8125,40.5764,40.5764,0,0,1-13.916-19.5312,40.53,40.53,0,0,0,7.3242.9766,37.2818,37.2818,0,0,0,10.7422-1.4648,39.7618,39.7618,0,0,1-22.7051-13.6719,37.4922,37.4922,0,0,1-9.0332-24.9023v-0.9766a41.3345,41.3345,0,0,0,17.5781,5.3711Q60.7109,118.466,60.7109,97.9543A38.3587,38.3587,0,0,1,66.082,78.4231q31.7344,38.5781,81.543,41.0156a58.0569,58.0569,0,0,1-.9766-8.7891,39.1827,39.1827,0,0,1,39.5508-39.5508q16.5938,0,28.8086,12.207A64.2882,64.2882,0,0,0,239.91,74.0285a38.3971,38.3971,0,0,1-17.09,21.4844q10.2539-.48,22.4609-5.8594A83.9154,83.9154,0,0,1,225.75,110.1613Z"/></svg>