<svg xmlns="http://www.w3.org/2000/svg" viewBox="0 0 300 300"><title>user-add</title><path d="M103.16,160.44a39.07,39.07,0,0,0,39.51,0A40.57,40.57,0,0,0,157.05,146a39.07,39.07,0,0,0,0-39.51,40.57,40.57,0,0,0-14.39-14.39,39.07,39.07,0,0,0-39.51,0,40.57,40.57,0,0,0-14.39,14.39,39.07,39.07,0,0,0,0,39.51A40.57,40.57,0,0,0,103.16,160.44Z"/><path d="M239.31,142.24a3.27,3.27,0,0,0-2.4-1H217.44V121.78a3.37,3.37,0,0,0-3.39-3.39H203.33a3.37,3.37,0,0,0-3.39,3.39v19.47H180.48a3.37,3.37,0,0,0-3.39,3.39v10.72a3.37,3.37,0,0,0,3.39,3.39h19.47v19.47a3.37,3.37,0,0,0,3.39,3.39h10.72a3.37,3.37,0,0,0,3.39-3.39V158.75h19.47a3.37,3.37,0,0,0,3.39-3.39V144.64A3.27,3.27,0,0,0,239.31,142.24Z"/><path d="M168.06,169.19l-17.5-4.52a45.6,45.6,0,0,1-29.07,9,46.47,46.47,0,0,1-26.24-9l-17.5,4.52A23.95,23.95,0,0,0,59.7,192.33v9a12,12,0,0,0,11.85,11.85H174.27a12,12,0,0,0,11.85-11.85v-9a23.95,23.95,0,0,0-18.06-23.14Z"/></svg>